<svg width="81" height="81" viewBox="0 0 81 81" fill="none" xmlns="http://www.w3.org/2000/svg">
<path d="M40.3494 80.3403C18.4474 80.3403 0.704209 62.5793 0.718878 40.6701C0.733546 18.7609 18.5005 1 40.4025 1C62.3045 1 80.0477 18.7609 80.033 40.6701C80.0183 62.5793 62.2514 80.3403 40.3494 80.3403Z" fill="#F76897"/>
<path opacity="0.5" d="M8.37615 60.5638C-2.63307 42.89 2.78038 19.6444 20.4674 8.64338C38.1545 -2.35763 61.4174 3.05179 72.4266 20.7256C83.4359 38.3995 78.0224 61.6451 60.3354 72.6461C42.6483 83.6471 19.3854 78.2377 8.37615 60.5638Z" stroke="white" stroke-width="5" stroke-miterlimit="22.93"/>
<path fill-rule="evenodd" clip-rule="evenodd" d="M65.8476 25.9978C57.7536 11.9934 39.8339 7.19021 25.8131 15.2783C11.7982 23.3663 6.99141 41.2726 15.0855 55.283C23.1796 69.2874 41.0992 74.0906 55.1201 66.0025C69.1349 57.9145 73.9417 40.0082 65.8476 25.9978Z" fill="#E64077"/>
<g clip-path="url(#clip0_528_354)">
<path d="M40.6855 30.1021C40.9765 30.1021 41.2126 29.8669 41.2126 29.5768V27.2335C41.2126 26.9434 40.9765 26.7081 40.6855 26.7081C40.3944 26.7081 40.1583 26.9434 40.1583 27.2335V29.5768C40.1583 29.8669 40.3944 30.1021 40.6855 30.1021ZM53.5726 44.757L52.6413 43.8316C52.3099 43.5019 51.8686 43.3203 51.3979 43.3203C51.0969 43.3203 50.8085 43.3949 50.5525 43.5347L48.7972 41.7877L48.8825 41.7026C49.5945 40.9916 49.5945 39.8366 48.8825 39.1282C48.6317 38.8772 48.3129 38.7051 47.9648 38.6336C48.013 38.4677 48.0376 38.2956 48.0376 38.1224C48.0376 37.6346 47.8475 37.1766 47.5031 36.8349C47.2523 36.584 46.9335 36.4118 46.5854 36.3403C46.6335 36.1744 46.6581 36.0023 46.6581 35.8291C46.6581 35.3408 46.4681 34.8833 46.1231 34.5411C45.8723 34.2912 45.5535 34.1196 45.2059 34.0476C45.386 33.4294 45.2321 32.734 44.7442 32.2473C44.338 31.8445 43.7867 31.6713 43.2559 31.7272L39.7782 31.0714C39.2479 30.9713 38.5852 30.905 38.1674 31.2848C38.1412 31.3088 38.114 31.3364 38.0878 31.3672C37.4397 31.1319 36.6833 31.2717 36.1645 31.7887C35.82 32.1315 35.6305 32.589 35.6305 33.0767C35.6305 33.2525 35.6556 33.4242 35.7033 33.588C35.3557 33.6594 35.0374 33.8311 34.7871 34.0815C34.4421 34.4242 34.2516 34.8807 34.2516 35.3679C34.2516 35.5411 34.2757 35.7138 34.3244 35.8807C33.9767 35.9522 33.6579 36.1233 33.4072 36.3737C33.0622 36.7175 32.8721 37.175 32.8721 37.6623C32.8721 38.0358 32.9842 38.3916 33.1915 38.692C32.9271 38.7812 32.6868 38.9304 32.4889 39.1276C31.7765 39.8366 31.7765 40.9921 32.4889 41.7042L32.5743 41.7887L30.819 43.5347C30.1667 43.2285 29.3631 43.3433 28.8244 43.8791L27.8926 44.805C27.5601 45.1347 27.3774 45.575 27.3774 46.044C27.3774 46.513 27.5601 46.9533 27.8915 47.2835L29.0548 48.4411C29.261 48.6461 29.5945 48.6461 29.8002 48.4411C30.006 48.2361 30.006 47.9033 29.8002 47.6982L28.637 46.5406C28.5051 46.4092 28.4323 46.2334 28.4323 46.0445C28.4323 45.8557 28.5051 45.6804 28.637 45.5489L29.5688 44.623C29.8018 44.3913 30.1583 44.3564 30.429 44.5181C30.4829 44.599 30.5583 44.6631 30.6467 44.7038L35.9912 50.0218C36.0168 50.0786 36.053 50.1303 36.0969 50.1741C36.1399 50.2169 36.1901 50.2518 36.2456 50.2774C36.3592 50.4052 36.4215 50.5701 36.421 50.7412C36.421 50.9295 36.3482 51.1053 36.2163 51.2368L35.285 52.1632C35.0096 52.4361 34.5625 52.4361 34.2882 52.1643L33.125 51.0051C32.9193 50.8001 32.5853 50.8001 32.3795 51.0051C32.1738 51.2101 32.1738 51.543 32.3795 51.748L33.5433 52.9077C33.8857 53.2478 34.3359 53.4174 34.7861 53.4174C35.2363 53.4174 35.6865 53.2473 36.0299 52.9066L36.9618 51.9796C37.2931 51.6494 37.4759 51.2096 37.4759 50.7401C37.4759 50.4052 37.3821 50.0854 37.2089 49.81L39.1846 47.8438L39.1909 47.8375C39.417 47.6043 40.0468 47.6482 40.6561 47.6904C41.0891 47.7207 41.5718 47.7535 42.0429 47.6998L44.206 49.8528C44.0657 50.1073 43.9909 50.3948 43.9909 50.6942C43.9909 51.1627 44.1736 51.603 44.505 51.9327L45.4368 52.8597C45.7682 53.1894 46.2095 53.3709 46.6801 53.3709C47.1507 53.3709 47.5921 53.1894 47.9234 52.8597L53.5741 47.2355C53.9055 46.9058 54.0882 46.4655 54.0882 45.9965C54.0882 45.5275 53.9055 45.0873 53.5736 44.757H53.5726ZM39.5819 32.1038L41.8691 32.5352L40.5001 33.8989C40.2886 33.7977 39.9981 33.6083 39.6798 33.3047C39.2443 32.8895 38.9322 32.4095 38.904 32.1106V32.1101C38.9024 32.0929 38.9014 32.0756 38.9019 32.0584C38.971 32.0417 39.1542 32.023 39.5824 32.1043L39.5819 32.1038ZM36.9089 32.5321C37.1759 32.2661 37.591 32.2358 37.8926 32.4392C38.0637 33.1539 38.6752 33.8013 38.9506 34.0637C39.1547 34.2583 39.8091 34.841 40.4693 35.0017C40.5598 35.1311 40.608 35.2845 40.6075 35.442C40.6075 35.6486 40.5279 35.8421 40.3823 35.9872C40.2373 36.1322 40.0431 36.2115 39.8348 36.2115C39.6264 36.2115 39.4322 36.1317 39.2867 35.9861L36.9089 33.6208C36.7639 33.4769 36.6843 33.2833 36.6843 33.0762C36.6843 32.8696 36.7644 32.6761 36.9089 32.5316V32.5321ZM35.531 34.8249C35.676 34.6804 35.8703 34.6005 36.0781 34.6005C36.2859 34.6005 36.4807 34.6804 36.6267 34.8259L38.5412 36.73C38.8427 37.031 38.8427 37.5204 38.5422 37.8203C38.3962 37.9648 38.2014 38.0446 37.9931 38.0446C37.7847 38.0446 37.5895 37.9648 37.4444 37.8208L35.9922 36.3737C35.9901 36.3716 35.9875 36.3695 35.9854 36.3669L35.531 35.9141C35.385 35.7691 35.3049 35.575 35.3049 35.3685C35.3049 35.1624 35.385 34.9699 35.5316 34.8243L35.531 34.8249ZM34.1505 37.1171C34.2956 36.9726 34.4903 36.8933 34.6987 36.8933C34.907 36.8933 35.0981 36.9716 35.2426 37.1135L36.6995 38.5648C36.8445 38.7087 36.9246 38.9023 36.9246 39.1089C36.9246 39.3154 36.8445 39.5085 36.6984 39.6535C36.5534 39.798 36.3587 39.8773 36.1509 39.8773C35.943 39.8773 35.7478 39.7975 35.6022 39.6535L35.074 39.1276L34.15 38.2079C34.0045 38.0629 33.9244 37.8694 33.9244 37.6628C33.9244 37.4562 34.0045 37.2627 34.15 37.1176L34.1505 37.1171ZM33.2323 39.871C33.3784 39.726 33.5731 39.6462 33.781 39.6462C33.9888 39.6462 34.1835 39.726 34.3296 39.871L34.8583 40.3974C35.0039 40.5414 35.0834 40.7349 35.0834 40.9415C35.0834 41.1481 35.0033 41.3411 34.8573 41.4867C34.7123 41.6312 34.518 41.711 34.3097 41.711C34.1013 41.711 33.9071 41.6312 33.7611 41.4856L33.6951 41.4199C33.6951 41.4199 33.6935 41.4178 33.6925 41.4173L33.6893 41.4147L33.2323 40.9613C32.9308 40.6603 32.9308 40.1715 33.2318 39.8715L33.2323 39.871ZM43.9762 45.8421C43.7705 45.6366 43.4365 45.6366 43.2307 45.8421L42.7617 46.309C42.3162 46.753 41.5084 46.6971 40.7273 46.6434C39.8793 46.5845 39.0024 46.5239 38.4349 47.1046L36.4927 49.0374L31.6367 44.2051L33.3553 42.4956C33.6396 42.6693 33.9673 42.7621 34.3102 42.7621C34.8002 42.7621 35.2593 42.5728 35.6027 42.23C35.9483 41.8873 36.1383 41.4298 36.1383 40.9415C36.1383 40.9368 36.1383 40.9326 36.1383 40.9279C36.143 40.9279 36.1472 40.9279 36.1519 40.9279C36.6414 40.9279 37.1005 40.7391 37.4439 40.3974C37.7894 40.0547 37.9795 39.5971 37.9795 39.1089C37.9795 39.1042 37.9795 39.1 37.9795 39.0953C37.9842 39.0953 37.9889 39.0953 37.9931 39.0953C38.482 39.0953 38.9417 38.907 39.2877 38.5637C39.6468 38.2053 39.8243 37.7332 39.8212 37.2627C39.8259 37.2627 39.8306 37.2627 39.8353 37.2627C40.3253 37.2627 40.7844 37.0733 41.1283 36.73C41.4728 36.3873 41.6623 35.9298 41.6623 35.442C41.6623 35.1008 41.5691 34.7748 41.3959 34.492L42.902 32.9917C43.0103 32.8842 43.148 32.8112 43.2977 32.7815C43.3135 32.7799 43.3292 32.7773 43.3443 32.7742C43.5773 32.7423 43.8213 32.8138 43.9998 32.9901C44.3013 33.2911 44.3013 33.781 44.0008 34.0804L43.5422 34.5359C43.5422 34.5359 43.5391 34.5385 43.5375 34.54L43.0093 35.0659C42.803 35.2709 42.803 35.6037 43.0093 35.8087C43.215 36.0143 43.549 36.0143 43.7548 35.8087L44.2155 35.3502L44.2851 35.2808C44.5871 34.9824 45.0771 34.9829 45.3792 35.2834C45.5247 35.4274 45.6043 35.6209 45.6043 35.8275C45.6043 36.0341 45.5242 36.2271 45.3776 36.3727L44.9164 36.8333L44.3882 37.3576C44.1819 37.5626 44.1814 37.8949 44.3866 38.1005C44.5919 38.306 44.9258 38.3065 45.1321 38.102L45.6629 37.5751C45.808 37.4301 46.0022 37.3508 46.2105 37.3508C46.4189 37.3508 46.6131 37.4306 46.7592 37.5762C46.9047 37.7202 46.9843 37.9137 46.9843 38.1203C46.9843 38.3269 46.9042 38.5199 46.7581 38.6649L45.8383 39.582C45.6326 39.787 45.6326 40.1199 45.8383 40.3249C45.9373 40.4235 46.0713 40.4788 46.2111 40.4788C46.3461 40.4788 46.4812 40.4277 46.5838 40.3249L47.0345 39.8757C47.0345 39.8757 47.0398 39.871 47.0424 39.8684C47.1874 39.7234 47.3816 39.6441 47.59 39.6441C47.7983 39.6441 47.9925 39.7239 48.1381 39.8689C48.4391 40.1689 48.4391 40.6577 48.1381 40.9582L47.6795 41.4141H47.679V41.4152L46.9513 42.1393C46.7456 42.3443 46.745 42.6771 46.9513 42.8821C47.0502 42.9807 47.1842 43.0365 47.3245 43.036C47.4596 43.036 47.5942 42.9849 47.6973 42.8821L48.0533 42.5279L49.7588 44.2254L44.9028 49.0582L43.1632 47.3268C43.2883 47.247 43.4045 47.1536 43.5092 47.0493L43.9778 46.5829C44.184 46.3779 44.184 46.045 43.9783 45.84L43.9762 45.8421ZM52.8276 46.4926L47.1769 52.1168C47.045 52.2483 46.8681 52.3208 46.6785 52.3208C46.489 52.3208 46.3126 52.2483 46.1802 52.1168L45.2483 51.1898C45.1164 51.0583 45.0436 50.8825 45.0436 50.6947C45.0436 50.5069 45.1164 50.3311 45.2483 50.1997L50.899 44.5755C51.0315 44.444 51.2079 44.3715 51.3974 44.3715C51.5869 44.3715 51.7633 44.444 51.8958 44.576L52.8271 45.5015C52.959 45.6329 53.0318 45.8087 53.0318 45.9971C53.0318 46.1854 52.959 46.3617 52.8271 46.4926H52.8276ZM33.6846 29.6592C33.7836 29.7578 33.9176 29.8131 34.0568 29.8126C34.1919 29.8126 34.327 29.761 34.4301 29.6582C34.6358 29.4527 34.6353 29.1204 34.4296 28.9153L32.5083 27.005C32.3021 26.7999 31.9686 26.8005 31.7628 27.0055C31.5571 27.211 31.5576 27.5433 31.7634 27.7483L33.6846 29.6592ZM47.3136 29.8126C47.4486 29.8126 47.5832 29.7615 47.6863 29.6592L49.606 27.7483C49.8117 27.5433 49.8122 27.2105 49.606 27.0055C49.4002 26.8005 49.0662 26.7999 48.8605 27.0055L46.9408 28.9164C46.7351 29.1214 46.7346 29.4542 46.9408 29.6592C47.0398 29.7578 47.1738 29.8137 47.3136 29.8131V29.8126Z" fill="white"/>
<path d="M30.6196 49.3071C30.4155 49.5142 30.4181 49.8465 30.6259 50.0499L30.6275 50.0515C30.7259 50.148 30.8578 50.2023 30.996 50.2017C31.1327 50.2017 31.2688 50.1491 31.3724 50.0442C31.5766 49.8371 31.5729 49.5037 31.3651 49.3003C31.1578 49.0968 30.8238 49.1 30.6196 49.3065V49.3071ZM45.2668 45.0846C45.3469 45.0846 45.4285 45.0664 45.505 45.0283C45.7652 44.8974 45.8693 44.5817 45.7385 44.3225C45.6071 44.0632 45.2903 43.9594 45.0302 44.0898L45.027 44.0914C44.7668 44.2223 44.6642 44.5374 44.7951 44.7962C44.8878 44.9793 45.0736 45.0846 45.2668 45.0846Z" fill="white"/>
</g>
<defs>
<clipPath id="clip0_528_354">
<rect width="26.7097" height="26.7097" fill="white" transform="translate(27.3774 26.7081)"/>
</clipPath>
</defs>
</svg>
