<svg width="117" height="118" viewBox="0 0 117 118" fill="none" xmlns="http://www.w3.org/2000/svg">
<path d="M58.5033 117.389C90.7731 117.389 116.938 91.2294 116.945 58.9595C116.952 26.6897 90.7973 0.529785 58.5274 0.529785C26.2575 0.529785 0.0922559 26.6897 0.0855943 58.9595C0.0789327 91.2294 26.2334 117.389 58.5033 117.389Z" fill="white"/>
<path d="M58.5144 111.298C87.4143 111.298 110.842 87.8656 110.842 58.9598C110.842 30.0539 87.4143 6.62109 58.5144 6.62109C29.6145 6.62109 6.18652 30.0539 6.18652 58.9598C6.18652 87.8656 29.6145 111.298 58.5144 111.298Z" fill="#DE2C68"/>
<g clip-path="url(#clip0_579_3642)">
<path d="M91.74 74.6202C91.032 71.9812 88.2822 70.3777 85.4801 70.964L65.9506 75.1007C66.7437 72.9253 65.8616 70.4965 63.8565 69.3317L52.5356 62.8093C52.0814 62.5259 51.6548 62.2008 51.2608 61.8391C50.2662 60.9812 49.028 59.9143 46.7207 59.6688C44.5285 59.4364 41.6753 59.9496 37.821 61.2802C37.5553 59.5957 36.1012 58.3539 34.392 58.3513H30.4709C28.5548 58.3539 27.0026 59.9026 27 61.8143V81.063C27.0026 82.9747 28.5548 84.5233 30.4709 84.526H34.3802C36.274 84.5233 37.8171 83.0073 37.8498 81.1178C40.9725 80.6804 44.9394 82.9394 48.7846 85.1305C52.0984 87.0187 55.2578 88.8194 57.8976 88.8194C58.3937 88.8233 58.8884 88.7515 59.3635 88.6066L88.0938 80.9259C90.8448 80.1881 92.4769 77.3663 91.74 74.6202ZM34.3802 82.4367H30.4709C29.7105 82.4367 29.0954 81.8217 29.094 81.063V61.8143C29.094 61.0556 29.7105 60.4419 30.4709 60.4406H34.3802C35.1406 60.4406 35.7557 61.0556 35.757 61.8143V81.063C35.757 81.8217 35.1406 82.4354 34.3802 82.4367ZM87.5519 78.911L58.8033 86.5943L58.7549 86.6087C56.7354 87.2525 53.2227 85.252 49.8264 83.3168C45.7784 81.0081 41.606 78.6342 37.855 79.0077V63.4805C46.4079 60.4197 48.1773 61.9435 49.8958 63.4191C50.3879 63.8696 50.9232 64.2718 51.4925 64.6191L62.8134 71.1403C64.0986 71.8846 64.5358 73.5272 63.7898 74.8108C63.0438 76.0944 61.3973 76.5293 60.1108 75.785L50.6588 70.3411C50.151 70.0656 49.5149 70.2536 49.2388 70.7603C48.9731 71.2486 49.1367 71.8584 49.6118 72.1496L59.0638 77.5948C59.7875 78.0127 60.6107 78.2333 61.4471 78.2333C62.1983 78.2333 62.9391 78.0557 63.6092 77.7188C63.6589 77.7149 63.7073 77.7084 63.7557 77.6993L85.9081 73.0193C87.6501 72.6511 89.2848 73.5743 89.7127 75.166C90.1473 76.7943 89.1814 78.4671 87.5506 78.9071V78.911H87.5519ZM34.1708 64.213C34.1734 65.1754 33.3947 65.9575 32.4301 65.9602C31.4656 65.9628 30.6816 65.1858 30.679 64.2235C30.6764 63.2611 31.4551 62.4789 32.4197 62.4763C32.4223 62.4763 32.4236 62.4763 32.4262 62.4763C33.3868 62.4789 34.1669 63.2546 34.1708 64.213ZM54.8416 52.7364H56.6137C56.9645 53.9952 57.4684 55.2082 58.1136 56.3456L56.8611 57.5965C56.1818 58.2664 56.1059 59.3346 56.6844 60.0932C57.7916 61.5596 59.1004 62.8641 60.5702 63.9688C61.3293 64.5473 62.4011 64.4729 63.0726 63.7938L64.3264 62.5442C65.4663 63.188 66.6809 63.6907 67.9425 64.0433V65.8113C67.9373 66.7645 68.6414 67.5728 69.589 67.6995C71.4121 67.9554 73.2627 67.9554 75.0858 67.6995C76.0347 67.5741 76.7401 66.7632 76.7336 65.8087V64.0433C77.9952 63.692 79.2098 63.1906 80.3511 62.5468L81.6035 63.7965C82.275 64.4755 83.3468 64.5499 84.1059 63.9714C85.5757 62.8667 86.8832 61.5609 87.9891 60.0932C88.5689 59.3359 88.493 58.2664 87.8137 57.5965L86.5599 56.3456C87.2051 55.2082 87.709 53.9965 88.0598 52.7377H89.8331C90.7886 52.7442 91.6 52.0404 91.7256 51.095C91.9822 49.276 91.9822 47.4296 91.7256 45.6106C91.5987 44.6665 90.7886 43.9627 89.8331 43.9693H88.0584C87.7064 42.7105 87.2025 41.4974 86.5573 40.36L87.8111 39.1104C88.4864 38.4418 88.5623 37.3789 87.9891 36.6215C86.8819 35.1538 85.5744 33.8493 84.1033 32.7446C83.3442 32.1662 82.2723 32.2406 81.6009 32.9196L80.3484 34.1706C79.2085 33.5255 77.9952 33.0202 76.7336 32.6676V30.8995C76.7401 29.9463 76.036 29.1367 75.0884 29.0101C73.2653 28.7567 71.4147 28.7567 69.5916 29.0101C68.6453 29.138 67.9399 29.9463 67.9464 30.8995V32.6676C66.6835 33.0189 65.4676 33.5216 64.3264 34.1653L63.0726 32.9144C62.4011 32.2367 61.3293 32.1609 60.5702 32.7394C59.0991 33.8454 57.7903 35.1525 56.6844 36.6215C56.1046 37.3789 56.1805 38.4497 56.8611 39.1182L58.1136 40.3679C57.4684 41.5052 56.9645 42.717 56.6137 43.9771H54.8416C53.8862 43.9706 53.0748 44.6731 52.9478 45.6185C52.6913 47.4374 52.6913 49.2838 52.9478 51.1028C53.0774 52.0443 53.8889 52.7442 54.8416 52.7364ZM55 46.0611H57.4291C57.9199 46.0611 58.3439 45.7216 58.4513 45.2437C58.8086 43.6533 59.4381 42.1359 60.315 40.7596C60.5767 40.347 60.5178 39.8077 60.171 39.4616L58.4539 37.7471C59.3897 36.5288 60.4838 35.4372 61.7049 34.5035L63.422 36.2181C63.7688 36.5641 64.3107 36.6242 64.7242 36.3617C66.1037 35.4868 67.6245 34.8587 69.2186 34.5022C69.695 34.3952 70.0339 33.9747 70.0366 33.4876V31.0575C71.5626 30.8591 73.1083 30.8591 74.6343 31.0575V33.4876C74.6343 33.9773 74.9746 34.4004 75.4536 34.5075C77.0477 34.8613 78.5672 35.4881 79.9466 36.3604C80.3602 36.6228 80.902 36.5628 81.2489 36.2167L82.9673 34.5022C84.1884 35.4372 85.2812 36.5275 86.217 37.7458L84.4999 39.4603C84.153 39.8064 84.0942 40.3457 84.3559 40.7583C85.2328 42.1333 85.8623 43.6493 86.2196 45.2398C86.3269 45.7164 86.751 46.0559 87.2418 46.0559H89.6709C89.8711 47.5785 89.8711 49.1206 89.6709 50.6432H87.2405C86.751 50.6432 86.3269 50.9827 86.2196 51.4593C85.8636 53.0511 85.2328 54.5697 84.3559 55.9473C84.0942 56.3599 84.153 56.8992 84.4999 57.2453L86.2183 58.9598C85.2812 60.1781 84.1884 61.2684 82.9673 62.2034L81.2489 60.4902C80.902 60.1455 80.3615 60.0854 79.9479 60.3478C78.5685 61.2227 77.0477 61.8521 75.4523 62.2073C74.9746 62.3144 74.6343 62.7375 74.6343 63.2258V65.6507C73.1083 65.8492 71.5626 65.8492 70.0366 65.6507V63.2258C70.0366 62.7361 69.6963 62.3131 69.2186 62.206C67.6232 61.8508 66.1024 61.2227 64.7242 60.3465C64.3107 60.0841 63.7688 60.1441 63.422 60.4902L61.7049 62.2047C60.4838 61.271 59.3897 60.1794 58.4539 58.9611L60.171 57.2531C60.5178 56.9071 60.5767 56.3678 60.315 55.9552C59.4381 54.5788 58.8072 53.0615 58.4513 51.4711C58.3439 50.9931 57.9199 50.6536 57.4291 50.6536H55C54.7998 49.1311 54.7998 47.5902 55 46.0677V46.0611ZM72.3361 58.8201C78.1261 58.8201 82.8207 54.1362 82.8207 48.3593C82.8207 42.5825 78.1261 37.8986 72.3361 37.8986C66.5461 37.8986 61.8515 42.5825 61.8515 48.3593C61.858 54.1336 66.5487 58.8135 72.3361 58.8201ZM72.3361 39.9879C76.9705 39.9879 80.7267 43.7355 80.7267 48.3593C80.7267 52.9832 76.9705 56.7308 72.3361 56.7308C67.7017 56.7308 63.9455 52.9832 63.9455 48.3593C63.9481 43.7355 67.7017 39.9879 72.3361 39.9827V39.9879ZM67.9818 49.3478C67.5734 48.9391 67.5734 48.2784 67.9818 47.8697C68.3901 47.461 69.0537 47.4623 69.4633 47.8697L71.1451 49.5476L75.163 44.9473C75.574 44.5425 76.2376 44.5464 76.6433 44.9564C77.0084 45.326 77.0464 45.9071 76.7336 46.321L71.9827 51.7583C71.7916 51.9764 71.5194 52.1057 71.2289 52.1161H71.1935C70.9161 52.1161 70.6491 52.0064 70.4528 51.8106L67.9818 49.3465V49.3478Z" fill="white"/>
</g>
<defs>
<clipPath id="clip0_579_3642">
<rect width="64.918" height="60" fill="white" transform="translate(27 28.8193)"/>
</clipPath>
</defs>
</svg>
