<svg width="82" height="82" viewBox="0 0 82 82" fill="none" xmlns="http://www.w3.org/2000/svg">
<path d="M40.9596 81C18.8755 81 0.984766 63.0914 0.999556 41C1.01435 18.9086 18.9291 1 41.0132 1C63.0973 1 80.988 18.9086 80.9732 41C80.9584 63.0914 63.0437 81 40.9596 81Z" fill="#F76897"/>
<path opacity="0.5" d="M8.73002 61.0796C-2.34989 43.2923 3.09832 19.8974 20.8989 8.82578C38.6996 -2.24586 62.1119 3.19829 73.1918 20.9856C84.2717 38.773 78.8235 62.1678 61.0229 73.2395C43.2222 84.3111 19.8099 78.867 8.73002 61.0796Z" stroke="white" stroke-width="5" stroke-miterlimit="22.93"/>
<path fill-rule="evenodd" clip-rule="evenodd" d="M66.6271 26.1583C58.481 12.064 40.4464 7.22996 26.3354 15.37C12.2306 23.5099 7.39294 41.5312 15.539 55.6316C23.6851 69.7259 41.7197 74.5599 55.8307 66.4199C69.9355 58.2799 74.7732 40.2587 66.6271 26.1583Z" fill="#E64077"/>
<path d="M44.7212 26.2975C44.6038 25.937 44.2978 25.6702 43.9246 25.6035L42.5636 25.3675L41.9247 24.0842C41.7483 23.7325 41.3993 23.5131 41.0129 23.5131C40.6265 23.5131 40.2775 23.7325 40.1011 24.0847L39.4622 25.3681L38.1017 25.604C37.728 25.6702 37.4215 25.937 37.3046 26.2981C37.1795 26.6685 37.2688 27.0781 37.5373 27.3625L38.5157 28.3984L38.3079 29.8405C38.2484 30.2319 38.4143 30.6233 38.7368 30.8526C39.0444 31.0715 39.4485 31.099 39.7831 30.9248L41.0124 30.2848L42.2417 30.9248C42.5763 31.1001 42.9809 31.0726 43.2885 30.8526C43.611 30.6233 43.7769 30.2319 43.7174 29.8405L43.5095 28.3984L44.488 27.3625C44.7565 27.0781 44.8458 26.6685 44.7207 26.2981L44.7212 26.2975ZM43.8056 26.7159L42.6711 27.9171C42.5724 28.0213 42.5267 28.1652 42.5476 28.3069L42.7885 29.9739C42.7979 30.0406 42.7615 30.0737 42.7461 30.0847C42.713 30.1067 42.6904 30.0957 42.6777 30.0897L41.2312 29.3355C41.0951 29.265 40.933 29.265 40.7968 29.3355L39.3503 30.0897C39.3377 30.0963 39.3145 30.1067 39.282 30.0847C39.2665 30.0737 39.2307 30.04 39.2395 29.9739L39.4804 28.3069C39.5008 28.1646 39.4556 28.0213 39.357 27.9171L38.2225 26.7159C38.1927 26.6828 38.1833 26.636 38.1988 26.5946C38.2109 26.5577 38.2324 26.5362 38.2638 26.5307L39.8597 26.254C40.0069 26.228 40.1337 26.1338 40.2009 25.9998L40.9462 24.5037C40.9523 24.4916 40.971 24.4541 41.0151 24.4541C41.0592 24.4541 41.078 24.491 41.084 24.5037L41.8293 25.9998C41.8966 26.1338 42.0228 26.228 42.1706 26.254L43.7664 26.5307C43.7968 26.5362 43.8182 26.5577 43.8309 26.5946C43.8464 26.6365 43.8375 26.6834 43.8072 26.7159H43.8056ZM36.2539 30.0604C36.1365 29.6999 35.8306 29.4331 35.4574 29.3664L34.0963 29.1304L33.4574 27.8471C33.2821 27.4954 32.9332 27.276 32.5462 27.276C32.1592 27.276 31.8108 27.4954 31.6344 27.8477L30.9955 29.131L29.635 29.3669C29.2613 29.4331 28.9548 29.6999 28.8379 30.061C28.7128 30.4314 28.8021 30.841 29.0706 31.1255L30.049 32.1613L29.8412 33.6034C29.7817 33.9948 29.9476 34.3862 30.2701 34.6155C30.5777 34.8344 30.9817 34.8619 31.3164 34.6877L32.5457 34.0477L33.775 34.6877C34.1096 34.8631 34.5142 34.8355 34.8218 34.6155C35.1443 34.3862 35.3102 33.9948 35.2507 33.6034L35.0428 32.1613L36.0213 31.1255C36.2898 30.841 36.3791 30.4314 36.2539 30.061V30.0604ZM35.3383 30.4788L34.2038 31.68C34.1052 31.7842 34.0594 31.9281 34.0803 32.0698L34.3212 33.7368C34.3306 33.8035 34.2942 33.8366 34.2788 33.8476C34.2457 33.8697 34.2231 33.8592 34.2104 33.8526L32.764 33.0985C32.6278 33.0279 32.4657 33.0279 32.3296 33.0985L30.8831 33.8526C30.8704 33.8598 30.8478 33.8697 30.8147 33.8476C30.7993 33.8366 30.7635 33.803 30.7723 33.7368L31.0132 32.0698C31.0336 31.9276 30.9884 31.7842 30.8897 31.68L29.7552 30.4788C29.7254 30.4458 29.7161 30.3989 29.7315 30.3576C29.7436 30.3206 29.7651 30.2991 29.7966 30.2936L31.3924 30.0169C31.5396 29.991 31.6664 29.8967 31.7337 29.7628L32.479 28.2666C32.485 28.2545 32.5038 28.217 32.5479 28.217C32.592 28.217 32.6107 28.2539 32.6168 28.2666L33.3621 29.7628C33.4293 29.8967 33.5556 29.991 33.7033 30.0169L35.2992 30.2936C35.3295 30.2991 35.351 30.3206 35.3637 30.3576C35.3791 30.3995 35.3703 30.4463 35.34 30.4788H35.3383ZM53.1885 30.0604C53.071 29.6999 52.7651 29.4331 52.3919 29.3664L51.0309 29.1304L50.392 27.8471C50.2167 27.4954 49.8677 27.276 49.4807 27.276C49.0938 27.276 48.7454 27.4954 48.569 27.8477L47.9301 29.131L46.5696 29.3669C46.1958 29.4331 45.8893 29.6999 45.7724 30.061C45.6473 30.4314 45.7366 30.841 46.0051 31.1255L46.9835 32.1613L46.7757 33.6034C46.7162 33.9948 46.8821 34.3862 47.2046 34.6155C47.5122 34.8344 47.9163 34.8619 48.2509 34.6877L49.4802 34.0477L50.7095 34.6877C51.0441 34.8631 51.4487 34.8355 51.7563 34.6155C52.0788 34.3862 52.2447 33.9948 52.1852 33.6034L51.9774 32.1613L52.9558 31.1255C53.2243 30.841 53.3136 30.4314 53.1885 30.061V30.0604ZM52.2728 30.4788L51.1384 31.68C51.0397 31.7842 50.9939 31.9281 51.0149 32.0698L51.2558 33.7368C51.2651 33.8035 51.2288 33.8366 51.2133 33.8476C51.1802 33.8697 51.1576 33.8592 51.145 33.8526L49.6985 33.0985C49.5623 33.0279 49.4002 33.0279 49.2641 33.0985L47.8176 33.8526C47.8055 33.8598 47.7818 33.8697 47.7492 33.8476C47.7338 33.8366 47.698 33.803 47.7068 33.7368L47.9477 32.0698C47.9681 31.9276 47.9229 31.7842 47.8242 31.68L46.6897 30.4788C46.66 30.4458 46.6506 30.3989 46.666 30.3576C46.6782 30.3206 46.6997 30.2991 46.7311 30.2936L48.327 30.0169C48.4741 29.991 48.6009 29.8967 48.6682 29.7628L49.4135 28.2666C49.4195 28.2545 49.4383 28.217 49.4824 28.217C49.5265 28.217 49.5452 28.2539 49.5513 28.2666L50.2966 29.7628C50.3638 29.8967 50.4901 29.991 50.6378 30.0169L52.2337 30.2936C52.264 30.2991 52.2855 30.3206 52.2982 30.3576C52.3136 30.3995 52.3048 30.4463 52.2745 30.4788H52.2728ZM41.0135 34.803C33.232 34.8035 26.9014 41.1342 26.9014 48.9159C26.9014 49.4346 27.3231 49.8569 27.8424 49.8569H33.4872C34.0059 49.8569 34.4282 49.4352 34.4282 48.9159C34.4282 45.2842 37.3824 42.3299 41.014 42.3299C43.2312 42.3316 45.2984 43.449 46.5133 45.3029C44.4153 46.0449 42.7885 46.6436 41.5912 47.1138C41.4027 47.0631 41.2092 47.0361 41.014 47.0339C39.7169 47.0339 38.6618 48.089 38.6618 49.3861C38.6618 50.6833 39.7169 51.7384 41.014 51.7384C41.9401 51.7384 42.7356 51.1954 43.1193 50.4153C44.3486 49.7461 45.9262 48.8371 47.5133 47.9054C47.5651 48.2384 47.5999 48.5752 47.5999 48.9159C47.5999 49.4346 48.0216 49.8569 48.5408 49.8569H54.1857C54.7044 49.8569 55.1267 49.4352 55.1267 48.9159C55.1267 41.1342 48.7961 34.8035 41.0146 34.8035L41.0135 34.803ZM45.9891 43.2748C44.7372 42.1679 43.1518 41.5097 41.4842 41.4049V35.7556C44.7609 35.8713 47.7366 37.1883 49.9824 39.2814L45.9891 43.2748ZM33.4872 48.9153H27.8424C27.8424 45.4529 29.1874 42.3002 31.3798 39.9463L35.3774 43.944C34.2049 45.2715 33.4872 47.0091 33.4872 48.9153ZM36.0423 43.2787L32.0446 39.2809C34.2909 37.1883 37.2655 35.8713 40.5427 35.755V41.4115C38.8763 41.5141 37.292 42.1712 36.0417 43.2781L36.0423 43.2787ZM51.0121 44.7334C48.7547 46.0846 45.6275 47.9435 43.348 49.213C43.3094 48.6441 43.0641 48.1094 42.659 47.7086C44.5525 46.9865 47.2994 46.0074 51.0121 44.7334ZM41.0135 50.7968C40.2356 50.7968 39.6023 50.1634 39.6023 49.3856C39.6023 48.6077 40.2356 47.9743 41.0135 47.9743C41.7913 47.9743 42.4247 48.6077 42.4247 49.3856C42.4247 50.1634 41.7913 50.7968 41.0135 50.7968ZM48.5397 48.9153C48.5397 48.4005 48.4852 47.8905 48.3821 47.3933C49.4879 46.7406 50.5661 46.0973 51.4972 45.5411C51.92 45.2847 52.076 44.7759 51.8682 44.3316C51.6692 43.8911 51.1648 43.6783 50.7106 43.8426C49.5155 44.2527 48.4229 44.632 47.4229 44.9826C47.1963 44.6144 46.9383 44.266 46.6522 43.9418L50.6466 39.9474C52.839 42.3007 54.184 45.4534 54.184 48.9164H48.5392V48.9153H48.5397Z" fill="white"/>
</svg>
