<svg width="82" height="82" viewBox="0 0 82 82" fill="none" xmlns="http://www.w3.org/2000/svg">
<path d="M41.0404 81C63.1245 81 81.0152 63.0914 81.0004 41C80.9857 18.9086 63.0709 1 40.9868 1C18.9027 1 1.01199 18.9086 1.02678 41C1.04157 63.0914 18.9563 81 41.0404 81Z" fill="#F76897"/>
<path opacity="0.5" d="M73.2796 61.0591C84.3803 43.2383 78.9219 19.7994 61.0877 8.70694C43.2536 -2.38555 19.7972 3.06885 8.69646 20.8897C-2.40431 38.7105 3.05416 62.1494 20.8883 73.2419C38.7224 84.3344 62.1788 78.88 73.2796 61.0591Z" stroke="white" stroke-width="5" stroke-miterlimit="22.93"/>
<path fill-rule="evenodd" clip-rule="evenodd" d="M14.9638 26.7696C23.1252 12.6488 41.1939 7.80558 55.3313 15.9609C69.4627 24.1162 74.3095 42.1713 66.1481 56.2983C57.9867 70.4191 39.9181 75.2623 25.7806 67.107C11.6492 58.9517 6.80245 40.8965 14.9638 26.7696Z" fill="#E64077"/>
<path d="M37.3106 54.9318H36.5823C36.2314 54.9318 35.9466 54.6452 35.9466 54.2919V50.0332C35.9466 49.6799 35.7921 49.3471 35.5284 49.1147C33.9829 47.7572 33 45.7154 33 43.4314C33 40.5631 34.5508 38.0759 36.8186 36.8474M46.4627 38.2081C47.3142 39.1082 47.8751 40.3133 48.0517 41.8469C48.1324 42.5486 47.9661 42.9068 47.7018 43.2677C47.5554 43.4677 47.4634 43.8757 47.6717 44.1797L48.6955 45.7024C48.9646 46.1023 48.7875 46.6491 48.337 46.8133L47.9263 46.9639C47.6937 47.0485 47.5392 47.2706 47.5392 47.5194V47.6857C47.5392 48.0255 47.5419 50.0814 47.4671 50.4011C47.1802 51.6171 46.0767 52.5107 44.7805 52.4722L43.9472 52.4478H43.9462L42.8292 52.4142C42.3975 52.4018 42.0395 52.7507 42.0395 53.1859V54.2919C42.0395 54.6452 41.7548 54.9318 41.4038 54.9318H39.2205M34.8792 34.0085L33.2229 33.4666M37.1831 30.8162L36.2254 29.4897M40.9107 29.5969V28M45.596 29.4891L44.6384 30.8162M48.5991 33.4666L46.9423 34.0085M37.2934 33.666C36.9188 34.2951 36.7008 35.0283 36.6964 35.8092C36.6905 36.9325 37.1185 37.9545 37.8209 38.7164C38.4297 39.3764 38.8259 40.2071 38.9939 41.092L39.0213 41.2367M39.0213 41.2367H42.7996M39.0213 41.2367V42.2945C39.0213 42.6863 39.3368 43.0038 39.726 43.0038H42.095C42.4842 43.0038 42.7996 42.6863 42.7996 42.2945V41.2367M42.7996 41.2367L42.8287 41.0844C43.0004 40.1806 43.4321 39.3526 44.0436 38.6687C44.7154 37.9171 45.1245 36.9233 45.1245 35.8325C45.1245 33.4969 43.2501 31.6025 40.9333 31.59C40.0839 31.5857 39.2889 31.8393 38.6219 32.2771M40.4004 41.2367L39.1694 36.2318H42.6526L41.4216 41.2367M35.5284 49.1141C35.5284 49.1141 36.2502 49.7617 37.2353 50.1529M40.9107 44.6295C40.3019 44.6295 39.8083 44.1326 39.8083 43.5197V43.0038H42.0137V43.5197C42.0137 44.1326 41.5201 44.6295 40.9113 44.6295H40.9107Z" stroke="white" stroke-linecap="round" stroke-linejoin="round"/>
</svg>
