<svg width="117" height="118" viewBox="0 0 117 118" fill="none" xmlns="http://www.w3.org/2000/svg">
<path d="M58.43 117.435C90.6999 117.435 116.865 91.2748 116.872 59.0049C116.878 26.7351 90.724 0.575195 58.4542 0.575195C26.1843 0.575195 0.0190137 26.7351 0.0123521 59.0049C0.00569047 91.2748 26.1602 117.435 58.43 117.435Z" fill="white"/>
<path d="M58.4402 111.343C87.3401 111.343 110.768 87.9103 110.768 59.0045C110.768 30.0986 87.3401 6.66577 58.4402 6.66577C29.5403 6.66577 6.1123 30.0986 6.1123 59.0045C6.1123 87.9103 29.5403 111.343 58.4402 111.343Z" fill="#4476BD"/>
<g clip-path="url(#clip0_579_3641)">
<path d="M33.8577 77.1416C34.3311 77.1416 34.7153 76.7479 34.7153 76.2627V31.592C34.7153 31.033 35.159 30.5771 35.7056 30.5771H74.52C75.0654 30.5771 75.5103 31.033 75.5103 31.592V40.9061C75.5103 41.3912 75.8945 41.785 76.3679 41.785C76.8414 41.785 77.2256 41.3912 77.2256 40.9061V31.592C77.2256 30.0627 76.0123 28.8193 74.52 28.8193H35.7056C34.2133 28.8193 33 30.0627 33 31.592V76.2627C33 76.7479 33.3842 77.1416 33.8577 77.1416Z" fill="white"/>
<path d="M50.7722 38.9654C50.7722 37.5486 49.6469 36.3955 48.2644 36.3955H40.0137C38.6311 36.3955 37.5059 37.5486 37.5059 38.9654V47.4205C37.5059 48.8373 38.6311 49.9904 40.0137 49.9904H48.2644C49.6469 49.9904 50.7722 48.8373 50.7722 47.4205V38.9654ZM49.0568 47.4205C49.0568 47.8682 48.7012 48.2326 48.2644 48.2326H40.0137C39.5757 48.2326 39.2212 47.8682 39.2212 47.4205V38.9654C39.2212 38.5166 39.5768 38.1533 40.0137 38.1533H48.2644C48.7023 38.1533 49.0568 38.5166 49.0568 38.9654V47.4205Z" fill="white"/>
<path d="M45.8435 41.0725L43.5232 43.4502L42.6667 42.5725C42.3362 42.2245 41.7942 42.2163 41.4534 42.5549C41.1138 42.8936 41.1057 43.4491 41.4362 43.7983C41.442 43.8042 41.4477 43.81 41.4534 43.8159L42.916 45.3159C43.251 45.6592 43.7931 45.6592 44.1281 45.3159L47.0545 42.317C47.3884 41.9725 47.3861 41.4159 47.0488 41.0737C46.7149 40.7338 46.1751 40.7338 45.8412 41.0737L45.8435 41.0725ZM55.2286 43.8358H68.7442C69.2176 43.8358 69.6018 43.442 69.6018 42.9569C69.6018 42.4717 69.2176 42.078 68.7442 42.078H55.2286C54.7551 42.078 54.3709 42.4717 54.3709 42.9569C54.3709 43.442 54.7551 43.8358 55.2286 43.8358ZM71.8626 38.2893H63.6611C63.1877 38.2893 62.8034 38.6831 62.8034 39.1682C62.8034 39.6534 63.1877 40.0471 63.6611 40.0471H71.8626C72.3361 40.0471 72.7203 39.6534 72.7203 39.1682C72.7203 38.6831 72.3361 38.2893 71.8626 38.2893ZM55.2286 40.0471H59.6187C60.0921 40.0471 60.4763 39.6534 60.4763 39.1682C60.4763 38.6831 60.0921 38.2893 59.6187 38.2893H55.2286C54.7551 38.2893 54.3709 38.6831 54.3709 39.1682C54.3709 39.6534 54.7551 40.0471 55.2286 40.0471ZM60.4271 45.8655C59.9537 45.8655 59.5695 46.2592 59.5695 46.7444C59.5695 47.2295 59.9537 47.6233 60.4271 47.6233H64.9327C65.4062 47.6233 65.7904 47.2295 65.7904 46.7444C65.7904 46.2592 65.4062 45.8655 64.9327 45.8655H60.4271ZM55.2286 47.6233H56.3836C56.857 47.6233 57.2412 47.2295 57.2412 46.7444C57.2412 46.2592 56.857 45.8655 56.3836 45.8655H55.2286C54.7551 45.8655 54.3709 46.2592 54.3709 46.7444C54.3709 47.2295 54.7551 47.6233 55.2286 47.6233ZM50.7722 54.5913C50.7722 53.1745 49.6469 52.0213 48.2644 52.0213H40.0137C38.6311 52.0213 37.5059 53.1745 37.5059 54.5913V63.0463C37.5059 64.4631 38.6311 65.6163 40.0137 65.6163H48.2644C49.6469 65.6163 50.7722 64.4631 50.7722 63.0463V54.5913ZM49.0568 63.0463C49.0568 63.4952 48.7012 63.8584 48.2644 63.8584H40.0137C39.5757 63.8584 39.2212 63.4952 39.2212 63.0463V54.5913C39.2212 54.1424 39.5768 53.7792 40.0137 53.7792H48.2644C48.7023 53.7792 49.0568 54.1424 49.0568 54.5913V63.0463Z" fill="white"/>
<path d="M45.8435 56.6983L43.5232 59.076L42.6667 58.1983C42.3316 57.8549 41.7884 57.8549 41.4534 58.1983C41.1183 58.5416 41.1183 59.0983 41.4534 59.4416L42.916 60.9416C43.0829 61.1127 43.3025 61.1995 43.5221 61.1995C43.7416 61.1995 43.9612 61.1139 44.1281 60.9416L47.0545 57.9428C47.3838 57.5936 47.3747 57.037 47.0339 56.6995C46.7011 56.3702 46.174 56.3702 45.8412 56.6995L45.8435 56.6983ZM69.6018 58.5827C69.6018 58.0975 69.2176 57.7038 68.7442 57.7038H55.2286C54.7551 57.7038 54.3709 58.0975 54.3709 58.5827C54.3709 59.0678 54.7551 59.4616 55.2286 59.4616H68.7442C69.2176 59.4616 69.6018 59.0678 69.6018 58.5827ZM72.7203 54.7952C72.7203 54.31 72.3361 53.9163 71.8626 53.9163H63.6611C63.1877 53.9163 62.8034 54.31 62.8034 54.7952C62.8034 55.2803 63.1877 55.6741 63.6611 55.6741H71.8626C72.3361 55.6741 72.7203 55.2803 72.7203 54.7952ZM55.2286 55.6741H59.6187C60.0921 55.6741 60.4763 55.2803 60.4763 54.7952C60.4763 54.31 60.0921 53.9163 59.6187 53.9163H55.2286C54.7551 53.9163 54.3709 54.31 54.3709 54.7952C54.3709 55.2803 54.7551 55.6741 55.2286 55.6741ZM65.7892 62.3713C65.7892 61.8862 65.405 61.4924 64.9316 61.4924H60.426C59.9526 61.4924 59.5683 61.8862 59.5683 62.3713C59.5683 62.8565 59.9526 63.2502 60.426 63.2502H64.9316C65.405 63.2502 65.7892 62.8565 65.7892 62.3713ZM55.2286 63.2502H56.3836C56.857 63.2502 57.2412 62.8565 57.2412 62.3713C57.2412 61.8862 56.857 61.4924 56.3836 61.4924H55.2286C54.7551 61.4924 54.3709 61.8862 54.3709 62.3713C54.3709 62.8565 54.7551 63.2502 55.2286 63.2502ZM48.2644 67.6483H40.0137C38.6311 67.6483 37.5059 68.8014 37.5059 70.2182V78.6733C37.5059 80.0901 38.6311 81.2432 40.0137 81.2432H48.2644C49.6469 81.2432 50.7722 80.0901 50.7722 78.6733V70.2182C50.7722 68.8014 49.6469 67.6483 48.2644 67.6483ZM49.0568 78.6745C49.0568 79.1233 48.7012 79.4866 48.2644 79.4866H40.0137C39.5757 79.4866 39.2212 79.1233 39.2212 78.6745V70.2194C39.2212 69.7717 39.5768 69.4073 40.0137 69.4073H48.2644C48.7023 69.4073 49.0568 69.7717 49.0568 70.2194V78.6745Z" fill="white"/>
<path d="M45.8435 72.324L43.5233 74.7017L42.6667 73.824C42.3317 73.4806 41.7885 73.4806 41.4534 73.824C41.1184 74.1673 41.1184 74.724 41.4534 75.0673L42.916 76.5673C43.083 76.7384 43.3026 76.8251 43.5221 76.8251C43.7417 76.8251 43.9612 76.7396 44.1282 76.5673L47.0545 73.5685C47.3885 73.224 47.3862 72.6673 47.0488 72.3251C46.7149 71.9853 46.1752 71.9853 45.8412 72.3251L45.8435 72.324ZM55.2286 71.2986H59.6187C60.0921 71.2986 60.4764 70.9048 60.4764 70.4197C60.4764 69.9345 60.0921 69.5408 59.6187 69.5408H55.2286C54.7552 69.5408 54.371 69.9345 54.371 70.4197C54.371 70.9048 54.7552 71.2986 55.2286 71.2986ZM56.3836 78.8748C56.857 78.8748 57.2413 78.481 57.2413 77.9959C57.2413 77.5107 56.857 77.1169 56.3836 77.1169H55.2286C54.7552 77.1169 54.371 77.5107 54.371 77.9959C54.371 78.481 54.7552 78.8748 55.2286 78.8748H56.3836Z" fill="white"/>
<path d="M82.6254 59.7814C82.5671 59.5564 82.423 59.3642 82.2263 59.2482L78.2251 56.881C77.9049 56.6912 77.5012 56.7345 77.2256 56.9865V45.0076C77.2256 44.5224 76.8414 44.1287 76.3679 44.1287C75.8945 44.1287 75.5103 44.5224 75.5103 45.0076V59.9408L70.1013 69.5419H63.6608C63.1874 69.5419 62.8032 69.9357 62.8032 70.4208C62.8032 70.906 63.1874 71.2998 63.6608 71.2998H69.111L67.9674 73.3294H55.2283C54.7549 73.3294 54.3706 73.7232 54.3706 74.2083C54.3706 74.6935 54.7549 75.0873 55.2283 75.0873H66.9771L65.8336 77.1181H60.4269C59.9534 77.1181 59.5692 77.5119 59.5692 77.997C59.5692 78.4822 59.9534 78.8759 60.4269 78.8759H64.8421L62.9713 82.1959C62.3789 83.2458 62.1376 84.4376 62.2726 85.6412L62.4315 87.0615H35.7056C35.159 87.0615 34.7153 86.6056 34.7153 86.0466V80.3642C34.7153 79.8791 34.3311 79.4853 33.8577 79.4853C33.3842 79.4853 33 79.8791 33 80.3642V86.0466C33 87.5759 34.2133 88.8193 35.7056 88.8193H74.52C76.0123 88.8193 77.2256 87.5759 77.2256 86.0466V69.8818L82.5408 60.4482C82.654 60.2466 82.6849 60.0064 82.6266 59.7814H82.6254ZM77.5561 65.7802L75.0403 64.2919L76.0306 62.5341L78.5464 64.0224L77.5561 65.7814V65.7802ZM75.5103 86.0466C75.5103 86.6056 75.0654 87.0615 74.52 87.0615H67.0789C67.6335 86.6173 68.1058 86.0677 68.458 85.4419L71.8132 79.4876C72.0499 79.0669 71.9092 78.5302 71.4999 78.2865C71.0905 78.0427 70.5656 78.188 70.3277 78.6076L66.9725 84.5619C66.5723 85.272 65.9468 85.8439 65.2126 86.1708L64.1137 86.6595L63.9776 85.4396C63.885 84.6134 64.0508 83.7943 64.4567 83.0736L74.1815 65.8119L76.6973 67.3001L72.3278 75.0544C72.0934 75.4763 72.2374 76.013 72.6491 76.2533C73.0574 76.4912 73.5754 76.3482 73.8133 75.9333L75.5091 72.924V86.0443L75.5103 86.0466ZM79.4041 62.499L76.8883 61.0107L78.1096 58.8427L80.6254 60.331L79.4041 62.499Z" fill="white"/>
</g>
<defs>
<clipPath id="clip0_579_3641">
<rect width="49.6552" height="60" fill="white" transform="translate(33 28.8193)"/>
</clipPath>
</defs>
</svg>
