<svg width="81" height="81" viewBox="0 0 81 81" fill="none" xmlns="http://www.w3.org/2000/svg">
<path d="M40.2237 80.4724C18.2852 80.4724 0.512506 62.6819 0.527199 40.7362C0.541891 18.7905 18.3384 1 40.2769 1C62.2154 1 79.9881 18.7905 79.9734 40.7362C79.9587 62.6819 62.1622 80.4724 40.2237 80.4724Z" fill="#0970B2"/>
<path opacity="0.5" d="M8.20671 60.6834C-2.80013 43.0133 2.61215 19.7728 20.2954 8.77417C37.9786 -2.22446 61.2365 3.18379 72.2433 20.8538C83.2501 38.5238 77.8379 61.7644 60.1546 72.763C42.4714 83.7616 19.2135 78.3534 8.20671 60.6834Z" stroke="white" stroke-width="5" stroke-miterlimit="22.93"/>
<path fill-rule="evenodd" clip-rule="evenodd" d="M65.6219 26.0845C57.5296 12.0832 39.6139 7.28101 25.596 15.3673C11.5842 23.4536 6.77847 41.356 14.8708 55.3634C22.9631 69.3647 40.8789 74.1669 54.8967 66.0806C68.9085 57.9943 73.7143 40.0919 65.6219 26.0845Z" fill="#052450"/>
<g clip-path="url(#clip0_514_221)">
<path d="M42.8682 27.3702H52.4535C53.1753 27.3702 53.713 28.0148 53.713 28.7184V34.756C53.713 35.4596 53.1753 36.1042 52.4535 36.1042H42.8682C42.1412 36.1042 41.6086 35.4596 41.6086 34.756V33.6623L39.5688 32.6213C38.9419 32.3021 38.9419 31.3617 39.5688 31.0425C40.2489 30.6936 40.9291 30.3509 41.6086 30.0015V28.7184C41.6086 28.0148 42.1406 27.3702 42.8682 27.3702ZM52.4535 28.2036H42.8682C42.6022 28.2036 42.4426 28.4759 42.4426 28.7179V30.2555C42.4426 30.4031 42.3602 30.5512 42.2121 30.6221C41.4548 31.0122 40.7043 31.4029 39.9475 31.7873C39.9063 31.8108 39.9177 31.864 39.9475 31.8759L42.1771 33.0234C42.3367 33.0839 42.4426 33.2367 42.4431 33.4078V34.756C42.4431 34.9985 42.6027 35.2703 42.8687 35.2703H52.454C52.72 35.2703 52.8796 34.998 52.8796 34.756V28.7184C52.8796 28.4759 52.7195 28.2042 52.4535 28.2042V28.2036Z" fill="white"/>
<path d="M44.6246 30.3087C44.0743 30.3087 44.0743 29.4752 44.6246 29.4752H50.8807C51.4247 29.4752 51.4247 30.3087 50.8807 30.3087H44.6246ZM44.6246 34.0044C44.0743 34.0044 44.0743 33.1705 44.6246 33.1705H48.3381C48.8878 33.1705 48.8878 34.0044 48.3381 34.0044H44.6246ZM44.6246 32.1539C44.0743 32.1539 44.0743 31.32 44.6246 31.32H50.8807C51.4247 31.32 51.4247 32.1539 50.8807 32.1539H44.6246ZM32.3783 35.264C32.2636 35.2202 32.153 35.167 32.0471 35.1044L31.9819 35.5832L33.3536 37.1265L34.7196 35.5832L34.6544 35.1044C34.5543 35.1634 34.4473 35.2171 34.3289 35.264C33.7792 35.4831 32.9218 35.4831 32.3778 35.264H32.3783ZM31.2903 34.4952L31.2491 34.4598C30.6102 33.8923 30.2973 33.1115 30.2973 32.2598V30.3436C30.2967 28.5348 31.5741 27.3702 33.3536 27.3702C35.1332 27.3702 36.4048 28.5348 36.4048 30.3441V32.2603C36.4048 33.112 36.0913 33.8923 35.4529 34.4603L35.4112 34.4958L35.5473 35.5008L36.2629 36.1277L38.2912 37.0092C38.7288 37.2042 39.0778 37.5057 39.3203 37.8843C39.5628 38.2687 39.6927 38.7178 39.6927 39.1971V40.3503C39.6927 40.5808 39.5091 40.7701 39.2786 40.7701C39.048 40.7701 38.8587 40.5808 38.8587 40.3503V39.1971C38.8587 38.8717 38.7763 38.5764 38.6162 38.3339C38.4576 38.0857 38.2292 37.8906 37.96 37.7722L36.2984 37.0509L35.6005 39.2331C35.5353 39.4522 35.299 39.57 35.08 39.5054C35.0388 39.4876 34.9971 39.4699 34.9616 39.4402L33.7672 38.5707V40.3503C33.7672 40.5808 33.5841 40.7701 33.3536 40.7701C33.1231 40.7701 32.9332 40.5808 32.9332 40.3503V38.5707L31.7446 39.4459L31.6205 39.5048C31.4019 39.5711 31.1704 39.4501 31.1 39.2326L30.4084 37.0504L28.7409 37.7717C28.4629 37.8958 28.2381 38.0909 28.0848 38.3334C27.9315 38.5759 27.8423 38.8717 27.8423 39.1966V44.4294C27.8423 44.6599 27.6587 44.8493 27.4282 44.8493C27.1976 44.8493 27.0083 44.6605 27.0083 44.4299V39.1966C27.0083 38.7178 27.1387 38.2682 27.387 37.8838C27.6237 37.5052 27.9721 37.2037 28.4097 37.0086L30.4381 36.1277L31.1537 35.5008L31.2898 34.4952H31.2903ZM31.9819 33.9987C32.0054 34.0164 32.0236 34.0342 32.0414 34.0576C32.2364 34.2292 32.4372 34.3946 32.6798 34.4895C33.0287 34.6256 33.6791 34.6256 34.0223 34.4895C34.2648 34.3946 34.4656 34.2292 34.6607 34.0576C34.6784 34.0342 34.7024 34.0164 34.7258 33.9987C34.7853 33.9455 34.8442 33.8923 34.8974 33.8391C35.3585 33.425 35.5713 32.8753 35.5713 32.2603V31.3737C34.04 31.6632 33.1705 30.9658 32.7267 30.3864C32.2302 30.9716 31.5975 31.0013 31.1359 30.9126V32.2609C31.1359 32.8758 31.343 33.4255 31.8041 33.8396L31.9814 33.9992L31.9819 33.9987ZM31.5089 36.2988L31.1422 36.618L31.7159 38.4273L32.7387 37.6825L31.5089 36.2988ZM35.1926 36.2988L33.9685 37.6825L34.9856 38.4273L35.5593 36.618L35.1926 36.2988ZM29.4565 41.6385C29.4565 41.408 29.6458 41.2187 29.8764 41.2187C30.1069 41.2187 30.2905 41.408 30.2905 41.6385V44.4294C30.2905 44.6599 30.1069 44.8493 29.8764 44.8493C29.6458 44.8493 29.4565 44.6605 29.4565 44.4294V41.6385ZM31.1479 30.0604C31.4734 30.1433 32.0408 30.1668 32.3486 29.41C32.4967 29.0553 32.987 29.0433 33.1288 29.4397C33.1288 29.4397 33.6551 30.9596 35.5708 30.522V30.3446C35.5708 28.9964 34.6721 28.2042 33.3531 28.2042C32.1645 28.2042 31.2721 28.8488 31.1474 30.0609L31.1479 30.0604ZM44.3523 45.5414C43.5893 44.867 43.2169 44.057 43.2169 43.0337V40.8698C43.2169 38.8649 44.6303 37.5704 46.6112 37.5704C48.5921 37.5704 49.9993 38.8654 49.9993 40.8698V43.0337C49.9993 44.0565 49.6326 44.8665 48.8701 45.5414L49.0359 47.262L52.1637 48.4387C53.1333 48.8643 53.7128 49.8046 53.7128 50.8571V53.6538C53.7128 53.8843 53.524 54.0736 53.2929 54.0736C53.0619 54.0736 52.8788 53.8843 52.8788 53.6538V50.8571C52.8788 50.1358 52.5064 49.5032 51.8378 49.2074L48.5029 47.9479C47.2553 47.552 45.9957 47.4691 44.7304 47.8415L41.3778 49.2074C40.7155 49.5032 40.3431 50.1358 40.3431 50.8571V53.6538C40.342 53.8853 40.1548 54.0726 39.9232 54.0736C39.6927 54.0736 39.5096 53.8843 39.5096 53.6538V50.8571C39.5096 49.8046 40.0891 48.8643 41.0586 48.4387L44.1984 47.1614L44.3518 45.5414H44.3523ZM47.8822 45.955H45.3339C45.2275 45.955 45.1388 46.0379 45.1268 46.1438L45.0559 46.9011C46.0964 46.694 47.1432 46.7415 48.1722 46.9898L48.0893 46.1438C48.083 46.0374 47.9944 45.955 47.8822 45.955ZM45.2984 45.133H47.9177C48.071 45.133 48.2609 44.9911 48.4262 44.8315C48.929 44.335 49.1653 43.7556 49.1653 43.0342V40.8698C49.1653 39.3202 48.1305 38.4038 46.6107 38.4038C45.0908 38.4038 44.0503 39.3207 44.0503 40.8698V43.0337C44.0503 43.7968 44.3283 44.4174 44.8963 44.9202C45.0319 45.0443 45.1738 45.133 45.2979 45.133H45.2984Z" fill="white"/>
<path d="M31.3018 45.4527L31.9934 41.491C32.0998 40.8818 32.6792 40.3853 33.2941 40.3853H40.3248C41.0106 40.3853 41.478 40.971 41.3596 41.6328L40.4724 46.6883C40.3597 47.3387 39.7453 47.8712 39.083 47.8712H30.0422C29.5806 47.8712 29.1196 47.611 29.0012 47.1379L28.7174 45.9727C28.6522 45.7067 28.8536 45.4522 29.1196 45.4522H31.3013L31.3018 45.4527ZM36.6118 43.6966C36.8423 43.6966 37.0259 43.8802 37.0259 44.1102C37.0259 44.3403 36.8423 44.5301 36.6118 44.5301C36.3813 44.5301 36.1919 44.3408 36.1919 44.1102C36.1919 43.8797 36.3813 43.6966 36.6118 43.6966ZM31.9287 46.6888C31.899 46.8902 31.9996 47.0378 32.2067 47.0378H39.084C39.35 47.0378 39.6045 46.8072 39.652 46.547L40.5386 41.4915C40.5684 41.3319 40.4854 41.2192 40.3258 41.2192H33.2947C33.0756 41.2192 32.8571 41.4143 32.8159 41.6334L31.9287 46.6894V46.6888ZM31.1542 46.2867H29.6521L29.8117 46.9371C29.8826 47.0612 29.9833 47.0372 30.0422 47.0372H31.1182C31.0827 46.8777 31.0827 46.7061 31.1062 46.5465L31.1537 46.2867H31.1542Z" fill="white"/>
</g>
<defs>
<clipPath id="clip0_514_221">
<rect width="26.7039" height="26.704" fill="white" transform="translate(27.0088 27.3702)"/>
</clipPath>
</defs>
</svg>
