<svg width="118" height="117" viewBox="0 0 118 117" fill="none" xmlns="http://www.w3.org/2000/svg">
<path d="M58.955 116.872C26.6877 116.872 0.53125 90.7097 0.53125 58.4358C0.53125 26.1619 26.6877 0 58.955 0C91.2222 0 117.379 26.1619 117.379 58.4358C117.379 90.7097 91.2222 116.872 58.955 116.872Z" fill="white"/>
<path d="M58.9464 110.77C87.8493 110.77 111.285 87.3399 111.291 58.437C111.296 29.5342 87.8709 6.10376 58.968 6.10376C30.0652 6.10376 6.62993 29.5342 6.62396 58.437C6.618 87.3399 30.0436 110.77 58.9464 110.77Z" fill="#F58634"/>
<g clip-path="url(#clip0_579_3640)">
<path d="M48.52 54.4697C48.8094 54.869 49.359 54.9759 49.7762 54.714C50.1805 54.4228 50.2871 53.8662 50.02 53.4458C48.4673 51.0667 45.2822 50.3997 42.908 51.9556C42.8916 51.9662 42.874 51.9779 42.8576 51.9897C42.5119 52.376 42.5435 52.9702 42.9291 53.3166C43.1845 53.5468 43.5466 53.6184 43.8701 53.5021C45.4122 52.4805 47.4888 52.9056 48.5071 54.451C48.5118 54.4568 48.5153 54.4639 48.52 54.4697ZM44.5919 67.7908C42.7814 67.4162 41.6166 65.6418 41.9904 63.8287C41.9916 63.8217 41.9928 63.8147 41.9951 63.8076C41.9283 63.2933 41.4572 62.9304 40.944 62.9974C40.6323 63.0385 40.3616 63.2334 40.2233 63.5164C39.642 66.2994 41.4221 69.0273 44.1994 69.6097C44.2205 69.6144 44.2416 69.6191 44.2638 69.6226H44.4419C44.9517 69.5322 45.2915 69.0449 45.2025 68.5341C45.1451 68.2076 44.9201 67.9364 44.6107 67.8189L44.5919 67.7908ZM49.5981 63.8922C49.6555 63.3766 49.2852 62.9116 48.7708 62.8541C48.2563 62.7966 47.7923 63.1676 47.7348 63.6831C47.7161 63.8475 47.7419 64.0131 47.8075 64.1634C48.1403 66.7151 50.3024 68.628 52.8699 68.6445C53.1207 68.648 53.3715 68.6315 53.6199 68.5975C54.1086 68.5118 54.446 68.0585 54.3886 67.5641C54.3031 67.0745 53.8507 66.7363 53.3574 66.7938C51.5199 67.0322 49.836 65.7323 49.5981 63.891V63.8922Z" fill="white"/>
<path d="M85.5501 65.3292C84.0138 65.3327 82.6673 66.3626 82.2595 67.8468H79.119L74.3566 62.37C74.1819 62.1751 73.9335 62.0635 73.6722 62.06H60.9881V55.6062H73.6722C73.9335 55.6026 74.1819 55.4911 74.3566 55.2962L79.119 49.8193H82.2595C82.7622 51.65 84.6501 52.7268 86.477 52.2231C88.3039 51.7193 89.3785 49.8275 88.8758 47.9968C88.3731 46.1661 86.4852 45.0893 84.6583 45.5931C83.4911 45.9148 82.5794 46.8284 82.2595 47.9968H78.7065C78.4451 48.0004 78.1967 48.1119 78.0221 48.3068L73.2597 53.7837H60.9881V50.3642H72.8753C73.1402 50.3665 73.3909 50.2491 73.5597 50.0448L76.8784 46.1368C77.0202 45.9724 77.0975 45.7622 77.094 45.5449V41.9094C78.9057 41.4056 79.9662 39.5268 79.4635 37.7125C78.9608 35.8971 77.0858 34.8343 75.2753 35.3381C73.4636 35.8419 72.4031 37.7207 72.9058 39.535C73.2245 40.6881 74.1245 41.59 75.2753 41.9094V45.2349L72.4628 48.5417H60.9881V44.1828H65.1411C65.4458 44.1839 65.7329 44.0372 65.9098 43.7882L67.0723 41.9094C67.377 42.0021 67.6922 42.0526 68.0098 42.0597C69.9047 42.0702 71.4492 40.539 71.4597 38.6402C71.4703 36.7414 69.9422 35.1937 68.0473 35.1831C66.1559 35.1725 64.6126 36.6979 64.5974 38.5932C64.6009 39.4586 64.9372 40.2889 65.5349 40.9136L64.5974 42.3603H60.9881V35.324C60.9974 35.2582 60.9974 35.1925 60.9881 35.1267C59.8771 31.9327 56.8631 29.799 53.4882 29.819C50.3769 29.8425 47.5622 31.6755 46.279 34.5161C42.1119 33.2138 37.6811 35.5424 36.3815 39.7182C36.1448 40.4791 36.0241 41.2717 36.0229 42.0691C36.0182 42.7971 36.119 43.5217 36.3229 44.2203C32.1464 45.5614 29.8473 50.0413 31.1855 54.2264C31.3402 54.7102 31.5418 55.1787 31.7855 55.6249C28.6414 58.0733 28.0743 62.6119 30.5176 65.7625C31.2922 66.7606 32.314 67.538 33.4824 68.0159C31.1457 71.722 32.2484 76.6246 35.9468 78.9673C36.9569 79.6073 38.0983 80.0089 39.2854 80.1439C39.44 84.1306 42.7915 87.2365 46.77 87.0815C47.8141 87.0404 48.836 86.7727 49.7664 86.2971C51.0332 87.2882 52.5941 87.8237 54.2007 87.819C57.1878 87.8049 59.8619 85.9601 60.9412 83.1688C60.9494 83.0972 60.9494 83.0244 60.9412 82.9528C60.9459 82.9152 60.9459 82.8776 60.9412 82.84V75.3247H64.5974L65.5349 76.7714C64.9372 77.3961 64.6009 78.2263 64.5974 79.0917C64.5927 80.9906 66.1243 82.5347 68.0192 82.5394C69.9141 82.5441 71.455 81.0093 71.4597 79.1105C71.4644 77.2117 69.9328 75.6675 68.0379 75.6628C68.0344 75.6628 68.0321 75.6628 68.0286 75.6628C67.711 75.6699 67.3958 75.7204 67.0911 75.8132L65.9098 73.8498C65.7411 73.5867 65.4528 73.4247 65.1411 73.4176H60.9881V69.1526H72.4535L75.2659 72.4594V75.7286C73.4284 76.2324 72.3457 78.1324 72.8472 79.9748C73.3488 81.8172 75.246 82.9011 77.0846 82.3985C78.9221 81.8947 80.0049 79.9948 79.5033 78.1523C79.1811 76.9722 78.2623 76.0515 77.0846 75.7286V72.0649C77.0881 71.8476 77.0108 71.6374 76.869 71.473L73.5503 67.5838C73.3816 67.3795 73.1308 67.2621 72.866 67.2644H60.9881V63.8825H73.2597L78.0221 69.3593C78.1967 69.5542 78.4451 69.6658 78.7065 69.6693H82.2595C82.7622 71.4953 84.6454 72.5674 86.4676 72.0637C88.2899 71.5599 89.3598 69.6729 88.8571 67.8468C88.4469 66.3567 87.0922 65.3257 85.5501 65.3292ZM85.5501 47.2641C86.4407 47.2641 87.1626 47.9874 87.1626 48.8799C87.1626 49.7723 86.4407 50.4957 85.5501 50.4957C84.6595 50.4957 83.9376 49.7723 83.9376 48.8799C83.9376 47.9874 84.6595 47.2641 85.5501 47.2641ZM74.5816 38.5932C74.5769 37.7007 75.294 36.9727 76.1846 36.968C77.0753 36.9633 77.8018 37.682 77.8065 38.5744C77.8112 39.4669 77.094 40.1949 76.2034 40.1996C76.1975 40.1996 76.1905 40.1996 76.1846 40.1996C75.3011 40.1949 74.5862 39.4786 74.5816 38.5932ZM68.0192 36.9774C68.9098 36.9774 69.6316 37.7007 69.6316 38.5932C69.6316 39.4857 68.9098 40.209 68.0192 40.209C67.1286 40.209 66.4067 39.4857 66.4067 38.5932C66.4067 37.7007 67.1286 36.9774 68.0192 36.9774C68.0227 36.9774 68.025 36.9774 68.0286 36.9774H68.0192ZM59.16 43.2715V47.5459C57.5264 46.7345 55.5847 46.8601 54.0695 47.8747C53.6652 48.1659 53.5585 48.7225 53.8257 49.1429C54.1152 49.5422 54.6648 49.649 55.0819 49.3872C56.3546 48.5229 58.0561 48.672 59.16 49.7442V58.4056C57.5276 57.5825 55.5788 57.7116 54.0695 58.7438C53.7202 59.1278 53.7484 59.722 54.1304 60.0708C54.3905 60.308 54.7608 60.3796 55.0913 60.2563C56.3557 59.385 58.0561 59.5259 59.16 60.5945V82.624C58.0455 85.3847 54.9085 86.7175 52.1535 85.6008C51.8711 85.4869 51.5992 85.3483 51.3414 85.1886C53.0546 83.6585 53.5304 81.1667 52.5039 79.1105C52.4007 78.6021 51.9062 78.2733 51.3988 78.3766C50.8914 78.4799 50.5633 78.9755 50.6664 79.484C50.6992 79.646 50.773 79.7951 50.882 79.9196C51.6836 81.5824 50.9887 83.5822 49.3293 84.3854C49.3188 84.3901 49.3082 84.3948 49.2977 84.4007C49.2262 84.4465 49.1606 84.4993 49.1008 84.5604C46.5216 86.0294 43.2427 85.1252 41.7767 82.5406C41.3373 81.7668 41.097 80.8943 41.076 80.0042C42.6697 79.5438 45.679 78.3884 46.1196 76.1149C46.2016 75.6229 45.8841 75.152 45.3977 75.044C44.9243 74.97 44.472 75.2659 44.3478 75.7298C44.0759 77.0826 41.2447 78.0877 40.1197 78.332C36.7542 78.2862 34.0636 75.5149 34.1105 72.1424C34.1304 70.6616 34.687 69.2395 35.6761 68.1392C35.9081 67.8856 35.9843 67.5251 35.8729 67.1998C35.7616 66.8922 35.4991 66.6643 35.1792 66.5986C32.2578 66.0244 30.3535 63.1861 30.9265 60.2587C31.2207 58.7544 32.1394 57.4463 33.4542 56.6595C34.98 55.632 37.0471 56.0371 38.0725 57.566C38.0795 57.5766 38.0866 57.5883 38.0948 57.5989C38.2682 57.842 38.5459 57.9888 38.8447 57.9935C39.0287 57.9923 39.208 57.9359 39.3604 57.8338C39.7611 57.5402 39.8643 56.9836 39.5947 56.5655C38.2166 54.4882 35.5518 53.6968 33.2667 54.6867C31.6836 51.7287 32.7933 48.0438 35.7452 46.4573C36.1483 46.2401 36.5749 46.0698 37.0167 45.9501C37.7432 47.1502 39.0381 47.8864 40.4385 47.8947C40.9084 47.897 41.3759 47.8136 41.8166 47.6504C42.3322 47.6011 42.7107 47.1431 42.6615 46.6264C42.6123 46.1098 42.1552 45.7305 41.6396 45.7798C41.4814 45.7951 41.3291 45.8502 41.1967 45.9407C40.0482 46.3364 38.7955 45.734 38.3842 44.5879C38.3877 44.5597 38.3877 44.5315 38.3842 44.5033C37.0542 41.4115 38.4768 37.824 41.5623 36.4912C43.1361 35.8113 44.9231 35.8278 46.4841 36.537H46.6716C49.2684 37.0443 50.0371 39.4305 49.634 41.563C49.5578 42.0526 49.8742 42.5165 50.3559 42.6245H50.5246C50.9746 42.6351 51.3672 42.3227 51.4621 41.8824C52.0527 38.7071 50.6933 36.0391 48.1059 35.034C49.1301 32.9426 51.2465 31.6109 53.5714 31.5957C56.1096 31.591 58.3819 33.1739 59.2619 35.56L59.1588 43.2727L59.16 43.2715ZM68.0192 77.4384C68.9098 77.4384 69.6316 78.1617 69.6316 79.0542C69.6316 79.9466 68.9098 80.67 68.0192 80.67C67.1286 80.67 66.4067 79.9466 66.4067 79.0542C66.4067 79.0506 66.4067 79.0483 66.4067 79.0448C66.4114 78.1523 67.1379 77.4337 68.0286 77.4384H68.0192ZM77.7877 79.0448C77.7924 79.9372 77.0753 80.6653 76.1846 80.67C75.294 80.6747 74.5675 79.956 74.5628 79.0636C74.5581 78.1711 75.2753 77.4431 76.1659 77.4384C76.1694 77.4384 76.1718 77.4384 76.1753 77.4384C77.0659 77.4337 77.7924 78.1523 77.7971 79.0448H77.7877ZM85.5407 70.3739C84.6501 70.3786 83.9236 69.6599 83.9189 68.7675C83.9142 67.875 84.6314 67.147 85.522 67.1423C86.4126 67.1376 87.1391 67.8562 87.1438 68.7487C87.1438 68.7522 87.1438 68.7546 87.1438 68.7581C87.1438 69.6435 86.4337 70.3633 85.5501 70.3739H85.5407Z" fill="white"/>
</g>
<defs>
<clipPath id="clip0_579_3640">
<rect width="60" height="58" fill="white" transform="translate(29 29.8193)"/>
</clipPath>
</defs>
</svg>
