<svg width="26" height="26" viewBox="0 0 26 26" fill="none" xmlns="http://www.w3.org/2000/svg">
<mask id="mask0_449_747" style="mask-type:luminance" maskUnits="userSpaceOnUse" x="0" y="0" width="26" height="26">
<path d="M25.8 0H0V25.8H25.8V0Z" fill="white"/>
</mask>
<g mask="url(#mask0_449_747)">
<path d="M5.48446 9.77628C4.91505 9.77628 4.35622 9.54095 3.95158 9.13128C3.54845 8.72311 3.33077 8.18746 3.33833 7.62359V5.82616C3.33833 5.61754 3.50764 5.44823 3.71625 5.44823C3.92487 5.44823 4.09418 5.61754 4.09418 5.82616V7.62863C4.08965 7.99396 4.22974 8.33712 4.48975 8.60066C4.75329 8.86773 5.11611 9.02092 5.48497 9.02092C5.69358 9.02092 5.8629 9.19024 5.8629 9.39885C5.8629 9.60747 5.69358 9.77678 5.48497 9.77678L5.48446 9.77628ZM18.3557 4.90804C18.1471 4.90804 17.9778 4.73873 17.9778 4.53011V2.31192C17.9778 2.21315 17.8942 2.1295 17.7959 2.1295H4.27609C4.17733 2.1295 4.09418 2.21315 4.09418 2.31192V4.11439C4.09418 4.323 3.92487 4.49232 3.71625 4.49232C3.50764 4.49232 3.33833 4.323 3.33833 4.11439V2.31192C3.33833 1.79491 3.75909 1.37415 4.27609 1.37415H17.7959C18.3129 1.37415 18.7337 1.79491 18.7337 2.31192V4.53011C18.7337 4.73873 18.5644 4.90804 18.3557 4.90804Z" fill="#F48632"/>
<path d="M10.7811 9.77631H5.4845C5.27638 9.77631 5.10707 9.6075 5.10657 9.39939C5.10606 9.19128 5.27437 9.02146 5.48248 9.02096C6.2454 9.01743 6.86621 8.39359 6.86621 7.63018V6.30188C6.85865 5.73146 7.0844 5.18875 7.50113 4.77807C7.91937 4.36587 8.49231 4.13861 9.07281 4.15473C9.28143 4.16028 9.4457 4.33412 9.44016 4.54274C9.43462 4.75136 9.26128 4.91513 9.05215 4.91009C8.67624 4.89951 8.30385 5.04766 8.03124 5.31624C7.76266 5.58129 7.61703 5.92949 7.62156 6.29734V7.63068C7.62156 8.16028 7.42806 8.64605 7.10808 9.02146H10.7806C10.9892 9.02146 11.1585 9.19077 11.1585 9.39939C11.1585 9.60801 10.9892 9.77732 10.7806 9.77732L10.7811 9.77631Z" fill="#F48632"/>
<path d="M25.4221 24.4259H10.7811C10.5725 24.4259 10.4032 24.2566 10.4032 24.048V17.2775C10.4032 17.0689 10.5725 16.8995 10.7811 16.8995C10.9897 16.8995 11.1591 17.0689 11.1591 17.2775V23.6705H25.0447V6.29987C25.0447 5.5561 24.4259 4.91917 23.6927 4.90808H10.6441C10.9651 5.28349 11.1591 5.77026 11.1591 6.29987V15.5647C11.1591 15.7733 10.9897 15.9426 10.7811 15.9426C10.5725 15.9426 10.4032 15.7733 10.4032 15.5647V6.29987C10.4032 5.53696 9.78239 4.91262 9.01897 4.90808C8.81086 4.90707 8.64255 4.73726 8.64356 4.52914C8.64457 4.32103 8.81338 4.15222 9.02149 4.15222H23.6952C23.6952 4.15222 23.6988 4.15222 23.7003 4.15222C24.8583 4.16784 25.8001 5.13131 25.8001 6.29987V24.048C25.8001 24.2566 25.6307 24.4259 25.4221 24.4259Z" fill="#F48632"/>
<path d="M7.4427 24.4258H1.71227C1.50366 24.4258 1.33434 24.2565 1.33434 24.0479V22.5447H0.37793C0.169313 22.5447 0 22.3754 0 22.1668V20.2867C0 20.0781 0.169313 19.9088 0.37793 19.9088H6.10886C6.31747 19.9088 6.48679 20.0781 6.48679 20.2867V21.7889H7.4432C7.65182 21.7889 7.82113 21.9582 7.82113 22.1668V24.0479C7.82113 24.2565 7.65182 24.4258 7.4432 24.4258H7.4427ZM2.0897 23.6705H7.06477V22.5447H2.0897V23.6705ZM0.755355 21.7894H5.73042V20.6652H0.755859V21.7894H0.755355Z" fill="#F48632"/>
<path d="M6.10886 16.9035H0.37793C0.169313 16.9035 0 16.7347 0 16.5261V14.645C0 14.4364 0.169313 14.2671 0.37793 14.2671H2.38751C2.59613 14.2671 2.76544 14.4364 2.76544 14.645C2.76544 14.8536 2.59613 15.0229 2.38751 15.0229H0.755859V16.1487H5.73093V15.0229H4.09877C3.89016 15.0229 3.72084 14.8536 3.72084 14.645C3.72084 14.4364 3.89016 14.2671 4.09877 14.2671H6.10835C6.31697 14.2671 6.48628 14.4364 6.48628 14.645V16.5261C6.48628 16.7347 6.31697 16.904 6.10835 16.904L6.10886 16.9035Z" fill="#F48632"/>
<path d="M8.45554 20.6647H2.72461C2.51599 20.6647 2.34668 20.4954 2.34668 20.2868V16.5256C2.34668 16.317 2.51599 16.1477 2.72461 16.1477H8.45554C8.66415 16.1477 8.83347 16.317 8.83347 16.5256V20.2868C8.83347 20.4954 8.66415 20.6647 8.45554 20.6647ZM3.10254 19.9094H8.07761V18.7836H3.10254V19.9094ZM3.10254 18.0283H8.07761V16.9041H3.10254V18.0283Z" fill="#F48632"/>
<path d="M19.8382 14.377C19.1469 14.377 18.585 13.7511 18.585 12.9822C18.585 12.2132 19.1474 11.5859 19.8382 11.5859C20.5291 11.5859 21.0914 12.2122 21.0914 12.9822C21.0914 13.7522 20.5291 14.377 19.8382 14.377ZM19.8382 12.3417C19.5636 12.3417 19.3404 12.6289 19.3404 12.9822C19.3404 13.3354 19.5636 13.6211 19.8382 13.6211C20.1129 13.6211 20.3361 13.3344 20.3361 12.9822C20.3361 12.63 20.1129 12.3417 19.8382 12.3417ZM17.1428 14.056C17.094 14.056 17.0446 14.0464 16.9967 14.0268C16.8042 13.9462 16.7135 13.7244 16.7946 13.5324L18.776 8.80883C18.8566 8.61634 19.0783 8.52564 19.2703 8.60676C19.4628 8.68739 19.5535 8.90911 19.4724 9.1011L17.491 13.8247C17.4306 13.9693 17.29 14.0565 17.1423 14.0565L17.1428 14.056ZM16.3643 11.1475C15.6729 11.1475 15.1111 10.5216 15.1111 9.75265C15.1111 8.98369 15.6734 8.35632 16.3643 8.35632C17.0552 8.35632 17.6175 8.98268 17.6175 9.75265C17.6175 10.5226 17.0552 11.1475 16.3643 11.1475ZM16.3643 9.11218C16.0897 9.11218 15.8664 9.39941 15.8664 9.75265C15.8664 10.1059 16.0897 10.3916 16.3643 10.3916C16.6389 10.3916 16.8622 10.1049 16.8622 9.75265C16.8622 9.40042 16.6389 9.11218 16.3643 9.11218Z" fill="#F48632"/>
<path d="M18.1013 16.6067C15.2119 16.6067 12.8612 14.256 12.8612 11.3666C12.8612 8.47719 15.2119 6.12646 18.1013 6.12646C20.9907 6.12646 23.3414 8.47719 23.3414 11.3666C23.3414 14.256 20.9907 16.6067 18.1013 16.6067ZM18.1013 6.88232C15.6287 6.88232 13.6171 8.89392 13.6171 11.3666C13.6171 13.8393 15.6287 15.8508 18.1013 15.8508C20.574 15.8508 22.5861 13.8393 22.5861 11.3666C22.5861 8.89392 20.5745 6.88232 18.1013 6.88232Z" fill="#F48632"/>
<path d="M20.387 21.9673H13.2391C13.0305 21.9673 12.8612 21.798 12.8612 21.5894C12.8612 21.3807 13.0305 21.2114 13.2391 21.2114H20.387C20.5957 21.2114 20.765 21.3807 20.765 21.5894C20.765 21.798 20.5957 21.9673 20.387 21.9673ZM22.964 20.2575H13.2396C13.031 20.2575 12.8617 20.0882 12.8617 19.8796C12.8617 19.671 13.031 19.5017 13.2396 19.5017H22.964C23.1726 19.5017 23.342 19.671 23.342 19.8796C23.342 20.0882 23.1726 20.2575 22.964 20.2575ZM22.964 18.5463H13.2396C13.031 18.5463 12.8617 18.377 12.8617 18.1683C12.8617 17.9597 13.031 17.7904 13.2396 17.7904H22.964C23.1726 17.7904 23.342 17.9597 23.342 18.1683C23.342 18.377 23.1726 18.5463 22.964 18.5463Z" fill="#F48632"/>
</g>
</svg>
