<svg width="30" height="26" viewBox="0 0 30 26" fill="none" xmlns="http://www.w3.org/2000/svg">
<g clip-path="url(#clip0_201_935)">
<path d="M28.8521 23.3816H22.8716C22.6301 23.3816 22.434 23.1855 22.434 22.944C22.434 22.7024 22.6301 22.5064 22.8716 22.5064H28.8521C28.9326 22.5064 28.9979 22.441 28.9979 22.3605V1.02105C28.9979 0.940537 28.9326 0.875189 28.8521 0.875189H1.02105C0.940537 0.875189 0.875189 0.940537 0.875189 1.02105V4.61517C0.875189 4.85672 0.679147 5.05276 0.437595 5.05276C0.196042 5.05276 0 4.85672 0 4.61517V1.02105C0 0.458016 0.458016 0 1.02105 0H28.8521C29.4151 0 29.8731 0.458016 29.8731 1.02105V22.3605C29.8731 22.9235 29.4151 23.3816 28.8521 23.3816Z" fill="#F48632"/>
<path d="M20.2752 23.3816H1.02105C0.458016 23.3816 0 22.9236 0 22.3605V6.83176C0 6.59021 0.196042 6.39417 0.437595 6.39417C0.679147 6.39417 0.875189 6.59021 0.875189 6.83176V22.36C0.875189 22.4405 0.940537 22.5058 1.02105 22.5058H20.2752C20.5168 22.5058 20.7128 22.7019 20.7128 22.9434C20.7128 23.185 20.5168 23.381 20.2752 23.381V23.3816Z" fill="#F48632"/>
<path d="M20.1877 21.5956H2.22763C1.98608 21.5956 1.79004 21.3996 1.79004 21.158V2.22361C1.79004 1.98205 1.98608 1.78601 2.22763 1.78601H27.6455C27.887 1.78601 28.0831 1.98205 28.0831 2.22361V14.2423C28.0831 14.4838 27.887 14.6799 27.6455 14.6799C27.4039 14.6799 27.2079 14.4838 27.2079 14.2423V2.6612H2.66523V20.721H20.1877C20.4292 20.721 20.6253 20.9171 20.6253 21.1586C20.6253 21.4002 20.4292 21.5962 20.1877 21.5962V21.5956Z" fill="#F48632"/>
<path d="M27.6454 21.5956H22.9007C22.6592 21.5956 22.4631 21.3996 22.4631 21.158C22.4631 20.9165 22.6592 20.7204 22.9007 20.7204H27.2078V16.5755C27.2078 16.334 27.4039 16.1379 27.6454 16.1379C27.887 16.1379 28.083 16.334 28.083 16.5755V21.158C28.083 21.3996 27.887 21.5956 27.6454 21.5956Z" fill="#F48632"/>
<path d="M20.76 6.32416H5.67466C5.4331 6.32416 5.23706 6.12812 5.23706 5.88657C5.23706 5.64502 5.4331 5.44897 5.67466 5.44897H20.76C21.0016 5.44897 21.1976 5.64502 21.1976 5.88657C21.1976 6.12812 21.0016 6.32416 20.76 6.32416Z" fill="#F48632"/>
<path d="M24.1983 8.9853H5.67466C5.4331 8.9853 5.23706 8.78925 5.23706 8.5477C5.23706 8.30615 5.4331 8.11011 5.67466 8.11011H24.1983C24.4399 8.11011 24.6359 8.30615 24.6359 8.5477C24.6359 8.78925 24.4399 8.9853 24.1983 8.9853Z" fill="#F48632"/>
<path d="M16.1991 11.647H5.67466C5.4331 11.647 5.23706 11.451 5.23706 11.2094C5.23706 10.9679 5.4331 10.7719 5.67466 10.7719H16.1985C16.4401 10.7719 16.6361 10.9679 16.6361 11.2094C16.6361 11.451 16.4401 11.647 16.1985 11.647H16.1991Z" fill="#F48632"/>
<path d="M6.2931 18.6107C6.85847 17.1217 7.10994 15.5358 7.15079 13.9477L6.29135 14.0638C6.48564 15.2295 6.50081 16.4659 7.04518 17.5412C7.30073 18.0465 7.82176 18.3452 8.37955 18.1206C8.84982 17.9309 9.22498 17.4082 9.36852 16.9338H8.52483C8.58551 17.2495 8.75588 17.575 8.98168 17.8026C9.40644 18.2308 9.96423 18.1853 10.5197 18.1847C11.3861 18.1836 12.252 18.1818 13.1184 18.1789C13.6814 18.1772 13.6826 17.302 13.1184 17.3037C12.137 17.3066 11.1557 17.3084 10.1743 17.3095C9.99165 17.3095 9.79444 17.3422 9.64041 17.2238C9.4677 17.0919 9.40819 16.9058 9.3691 16.7004C9.28333 16.2564 8.64269 16.3124 8.52542 16.7004C8.47349 16.872 8.21093 17.3638 7.98163 17.3236C7.86027 17.3025 7.80718 17.1147 7.76225 17.0178C7.67473 16.8288 7.61114 16.6287 7.55687 16.4279C7.32641 15.5802 7.28031 14.6945 7.1362 13.8304C7.05276 13.3292 6.28902 13.471 6.27676 13.9465C6.23767 15.4617 5.9897 16.9566 5.45058 18.3767C5.25046 18.9036 6.09589 19.1317 6.29427 18.6095" fill="#F48632"/>
<path d="M22.8069 25.8C22.7439 25.8 22.6809 25.7866 22.6225 25.7592L21.5525 25.2615L20.4824 25.7592C20.3471 25.8222 20.1889 25.8117 20.0623 25.7312C19.9363 25.6507 19.8599 25.5118 19.8599 25.3625V18.4193C19.8599 18.1777 20.0559 17.9817 20.2975 17.9817C20.539 17.9817 20.7351 18.1777 20.7351 18.4193V24.6763L21.3675 24.3822C21.4848 24.328 21.6196 24.328 21.7369 24.3822L22.3693 24.6763V18.4193C22.3693 18.1777 22.5654 17.9817 22.8069 17.9817C23.0485 17.9817 23.2445 18.1777 23.2445 18.4193V25.3625C23.2445 25.5118 23.1681 25.6513 23.0421 25.7312C22.9709 25.7767 22.8886 25.8 22.8069 25.8Z" fill="#F48632"/>
<path d="M21.5523 19.7286C21.0943 19.7286 20.7991 19.3721 20.5616 19.0856C20.4706 18.9753 20.3323 18.809 20.267 18.7816C20.1911 18.7501 19.9753 18.7688 19.8183 18.7828C19.4554 18.8149 19.0032 18.8545 18.6899 18.5406C18.3772 18.2273 18.4168 17.7751 18.4489 17.4116C18.4629 17.2535 18.4816 17.0376 18.4501 16.9612C18.4227 16.8953 18.2564 16.757 18.1467 16.6654C17.8608 16.4279 17.5049 16.1321 17.5049 15.6741C17.5049 15.2161 17.8608 14.9203 18.1467 14.6828C18.2564 14.5912 18.4227 14.4535 18.4501 14.3876C18.4816 14.3111 18.4629 14.0947 18.4489 13.9365C18.4168 13.5731 18.3777 13.1209 18.6899 12.8076C19.0032 12.4937 19.4548 12.5333 19.8183 12.5654C19.9758 12.5794 20.1911 12.5981 20.267 12.5666C20.3323 12.5392 20.4706 12.3729 20.5616 12.2626C20.7991 11.9761 21.0943 11.6196 21.5523 11.6196C22.0104 11.6196 22.3056 11.9761 22.5431 12.2626C22.6341 12.3729 22.7724 12.5392 22.8377 12.5666C22.9136 12.5981 23.1294 12.5794 23.2864 12.5654C23.6499 12.5333 24.1015 12.4937 24.4142 12.8076C24.7269 13.1209 24.6873 13.5731 24.6552 13.9365C24.6412 14.0947 24.6225 14.3105 24.654 14.387C24.6814 14.4529 24.8477 14.5912 24.9574 14.6822C25.2433 14.9197 25.5992 15.2155 25.5992 15.6735C25.5992 16.1315 25.2433 16.4273 24.9574 16.6648C24.8477 16.7564 24.6814 16.8941 24.654 16.9606C24.6225 17.0371 24.6412 17.2535 24.6552 17.411C24.6867 17.7745 24.7264 18.2267 24.4136 18.54C24.1009 18.8539 23.6487 18.8137 23.2858 18.7822C23.1283 18.7682 22.913 18.7495 22.8371 18.781C22.7718 18.8084 22.6335 18.9747 22.5425 19.085C22.305 19.3715 22.0098 19.728 21.5518 19.728L21.5523 19.7286ZM20.1124 17.8895C20.2786 17.8895 20.4467 17.9087 20.6025 17.9735C20.8679 18.0838 21.0547 18.309 21.2355 18.5272C21.3207 18.6299 21.4759 18.8172 21.5523 18.851C21.6288 18.8178 21.784 18.6299 21.8692 18.5272C22.0495 18.309 22.2362 18.0838 22.5022 17.9735C22.7764 17.8591 23.0886 17.8866 23.3634 17.9111C23.4953 17.9227 23.7088 17.9414 23.7917 17.9187C23.815 17.8358 23.7957 17.6205 23.7841 17.4881C23.7602 17.2127 23.7327 16.9011 23.8465 16.6263C23.9568 16.3602 24.1814 16.1735 24.399 15.9927C24.5017 15.9069 24.6902 15.7505 24.7229 15.6741C24.6902 15.5977 24.5023 15.4413 24.399 15.3555C24.1814 15.1746 23.9568 14.9874 23.8465 14.7219C23.7327 14.4477 23.7602 14.1355 23.7841 13.8601C23.7957 13.7277 23.8144 13.513 23.7911 13.4301C23.7088 13.4073 23.4947 13.426 23.3628 13.4377C23.088 13.4616 22.7759 13.489 22.5016 13.3753C22.2362 13.265 22.0494 13.0398 21.8686 12.8216C21.7834 12.7189 21.6282 12.5316 21.5518 12.4977C21.4753 12.5316 21.3201 12.7189 21.2349 12.8216C21.0547 13.0398 20.8679 13.265 20.6019 13.3753C20.3277 13.489 20.0161 13.4616 19.7407 13.4377C19.6088 13.426 19.3953 13.4073 19.3124 13.4301C19.2897 13.513 19.3084 13.7283 19.32 13.8601C19.3439 14.1355 19.3714 14.4477 19.2576 14.7219C19.1473 14.9879 18.9227 15.1746 18.7051 15.3555C18.6018 15.4413 18.4139 15.5977 18.3812 15.6741C18.4139 15.7505 18.6018 15.9069 18.7051 15.9927C18.9227 16.1735 19.1473 16.3608 19.2576 16.6269C19.3714 16.9011 19.3439 17.2133 19.32 17.4886C19.3084 17.6211 19.2897 17.8358 19.3124 17.9187C19.3953 17.9414 19.6088 17.9227 19.7407 17.9111C19.8597 17.9006 19.9852 17.8895 20.1118 17.8895H20.1124Z" fill="#F48632"/>
<path d="M21.5525 17.3836C20.6102 17.3836 19.8435 16.6169 19.8435 15.6747C19.8435 14.7324 20.6102 13.9657 21.5525 13.9657C22.4947 13.9657 23.2614 14.7324 23.2614 15.6747C23.2614 16.6169 22.4947 17.3836 21.5525 17.3836ZM21.5525 14.8403C21.0927 14.8403 20.7187 15.2143 20.7187 15.6741C20.7187 16.1338 21.0927 16.5078 21.5525 16.5078C22.0122 16.5078 22.3862 16.1338 22.3862 15.6741C22.3862 15.2143 22.0122 14.8403 21.5525 14.8403Z" fill="#F48632"/>
</g>
<defs>
<clipPath id="clip0_201_935">
<rect width="29.8731" height="25.8" fill="white"/>
</clipPath>
</defs>
</svg>
