<svg width="26" height="26" viewBox="0 0 26 26" fill="none" xmlns="http://www.w3.org/2000/svg">
<g clip-path="url(#clip0_449_621)">
<path d="M22.5155 16.0127C22.8406 15.0089 23.0058 13.9623 23.0058 12.8955C23.0058 11.8287 22.8421 10.7897 22.5186 9.78944C23.2296 9.52237 23.8756 9.09506 24.4122 8.52715C25.3394 7.54554 25.8287 6.26159 25.7904 4.91163C25.7108 2.12452 23.3787 -0.0770461 20.5921 0.00206717C19.2422 0.040868 17.9884 0.602723 17.0613 1.58433C16.5931 2.08018 16.2369 2.65312 16.0036 3.27292C15.0028 2.94992 13.9597 2.78615 12.8965 2.78615C11.8332 2.78615 10.7891 2.95042 9.78737 3.27393C9.06527 1.36261 7.21644 5.15451e-05 5.05569 5.15451e-05C2.26808 5.15451e-05 0 2.26813 0 5.05574C0 7.21649 1.36307 9.06432 3.27388 9.78642C2.95037 10.7882 2.7861 11.8318 2.7861 12.8955C2.7861 13.9593 2.95138 15.0089 3.2764 16.0127C1.36407 16.7338 0 18.5826 0 20.7444C0 21.5053 0.164777 22.2369 0.490301 22.9187C0.579996 23.1072 0.805746 23.1868 0.994207 23.0971C1.18267 23.0069 1.26229 22.7817 1.17259 22.5932C0.895945 22.0137 0.755859 21.3919 0.755859 20.7444C0.755859 18.3735 2.68481 16.445 5.05569 16.445C7.42657 16.445 9.35603 18.374 9.35603 20.7444C9.35603 23.1147 7.42707 25.0442 5.05569 25.0442C3.97431 25.0442 2.9408 24.6411 2.14563 23.9094C1.99194 23.7683 1.75259 23.7779 1.61149 23.9316C1.4704 24.0853 1.47997 24.3241 1.63366 24.4652C2.56891 25.3254 3.78434 25.7995 5.05569 25.7995C7.21997 25.7995 9.07031 24.433 9.79039 22.5171C10.7906 22.8401 11.8332 23.0039 12.896 23.0039C13.9587 23.0039 15.0018 22.8401 16.002 22.5171C16.7221 24.4324 18.5725 25.799 20.7367 25.799C23.5244 25.799 25.7924 23.531 25.7924 20.7434C25.7924 18.5816 24.4284 16.7328 22.5155 16.0112V16.0127ZM17.6105 2.10336C18.3991 1.26838 19.4659 0.79068 20.6138 0.757423C20.6556 0.756415 20.6969 0.755407 20.7388 0.755911C23.0532 0.755911 24.9686 2.60424 25.0351 4.93229C25.0678 6.08018 24.6516 7.17215 23.8635 8.00763C23.0749 8.8426 22.0081 9.3203 20.8602 9.35356C20.8184 9.35457 20.7771 9.35557 20.7352 9.35557C18.4208 9.35557 16.5054 7.50725 16.4389 5.1792C16.4057 4.0313 16.8224 2.93883 17.6105 2.10386V2.10336ZM15.7904 21.792C14.8592 22.0948 13.8872 22.2485 12.8965 22.2485C11.9058 22.2485 10.9338 22.0948 10.0025 21.792C10.0751 21.4473 10.1119 21.0966 10.1119 20.7444C10.1119 17.9568 7.8438 15.6892 5.05569 15.6892C4.69439 15.6892 4.34216 15.7275 4.00202 15.8C3.69666 14.8653 3.54196 13.8902 3.54196 12.8955C3.54196 11.9008 3.69615 10.9323 3.9995 10.0001C4.3467 10.0741 4.70094 10.1114 5.05569 10.1114C5.92191 10.1114 6.77653 9.88871 7.52735 9.46694C7.70926 9.36465 7.77376 9.13436 7.67197 8.95245C7.57018 8.77054 7.33939 8.70553 7.15748 8.80783C6.51954 9.16611 5.7924 9.35507 5.05619 9.35507C2.68481 9.35507 0.756363 7.42612 0.756363 5.05524C0.756363 2.68436 2.68481 0.755911 5.05569 0.755911C7.42657 0.755911 9.35603 2.68486 9.35603 5.05574C9.35603 6.04743 9.01035 7.01543 8.38248 7.78087C8.24995 7.94212 8.27364 8.18047 8.43489 8.31249C8.59614 8.44502 8.83448 8.42133 8.96651 8.26008C9.70473 7.36011 10.1119 6.22178 10.1119 5.05574C10.1119 4.69394 10.0731 4.3407 10.0005 3.99956C10.9327 3.6962 11.9048 3.54201 12.896 3.54201C13.8872 3.54201 14.8592 3.6962 15.7909 3.99905C15.7078 4.39411 15.6715 4.79724 15.6831 5.20036C15.7617 7.93758 18.0136 10.1114 20.7347 10.1109C21.0905 10.1109 21.4452 10.0741 21.7929 10.0001C22.0963 10.9318 22.2505 11.9043 22.2505 12.895C22.2505 13.8857 22.0953 14.8648 21.7904 15.7995C21.4442 15.726 21.091 15.6887 20.7373 15.6887C17.9491 15.6887 15.6816 17.9562 15.6816 20.7439C15.6816 21.1031 15.7194 21.4534 15.7909 21.7915L15.7904 21.792ZM20.7373 25.0442C18.3664 25.0442 16.4374 23.1152 16.4374 20.7449C16.4374 18.3745 18.3664 16.445 20.7373 16.445C23.1081 16.445 25.0371 18.374 25.0371 20.7449C25.0371 23.1157 23.1081 25.0442 20.7373 25.0442Z" fill="#F48632"/>
<path d="M7.62904 2.82489C7.49904 2.73621 7.3272 2.73772 7.19871 2.82842C7.07021 2.91913 6.93214 2.99471 6.78752 3.05518C6.2685 2.64903 5.51566 2.65357 5.00017 3.10204C4.7341 3.33283 4.56479 3.65533 4.52549 4.00555C3.96615 3.9224 3.46577 3.613 3.14126 3.14991C3.06315 3.03855 2.93062 2.97808 2.79558 2.99118C2.66003 3.00429 2.54211 3.08945 2.48668 3.21391C2.4761 3.2381 2.22163 3.81961 2.25388 4.53062C2.27857 5.07484 2.47358 5.77627 3.18358 6.31797C2.9271 6.40112 2.65801 6.43841 2.38892 6.42782C2.18031 6.41976 2.00444 6.58252 1.99638 6.79114C1.99084 6.93324 2.06592 7.06678 2.19038 7.13581C2.78348 7.46537 3.4184 7.63014 4.03922 7.63014C4.66003 7.63014 5.21836 7.47796 5.73637 7.1731C6.38641 6.79064 6.85908 6.2051 7.11556 5.49005C7.12363 5.47191 7.13018 5.45327 7.13572 5.43362C7.26774 5.04511 7.33678 4.61981 7.33678 4.16881C7.33678 4.14916 7.33628 4.129 7.33527 4.10935C7.55144 3.85438 7.70513 3.55254 7.78425 3.22802C7.82154 3.07483 7.75956 2.91459 7.62955 2.8259L7.62904 2.82489ZM6.56832 4.04939C6.57588 4.08869 6.57991 4.12951 6.57991 4.16831C6.57991 4.53868 6.52499 4.88184 6.41967 5.19174C6.41413 5.20636 6.40909 5.22097 6.40506 5.23609C6.20904 5.78534 5.85177 6.22626 5.3524 6.52054C4.89535 6.78963 4.37079 6.90402 3.83614 6.86521C3.95859 6.80475 4.07701 6.73571 4.18988 6.65912C4.30326 6.58202 4.36625 6.44949 4.35416 6.31243C4.34206 6.17587 4.2564 6.05645 4.13093 6.00051C3.42546 5.68708 3.04803 5.18821 3.00974 4.51852C3.00268 4.38852 3.00722 4.258 3.02334 4.129C3.54337 4.56337 4.20903 4.80021 4.90392 4.78257C5.10901 4.77753 5.27228 4.60973 5.27228 4.40464V4.17032C5.26925 3.97934 5.35088 3.79693 5.49551 3.67196C5.7656 3.43714 6.17628 3.46586 6.4111 3.73596C6.45746 3.78887 6.51743 3.82817 6.58445 3.84883C6.56127 3.91283 6.55572 3.98237 6.56832 4.04939ZM19.493 5.3535H20.0287V7.60697C20.0287 7.81558 20.198 7.98489 20.4066 7.98489C20.6152 7.98489 20.7845 7.81558 20.7845 7.60697V5.3535H21.368C21.5767 5.3535 21.746 5.18418 21.746 4.97557C21.746 4.76695 21.5767 4.59764 21.368 4.59764H20.7845V3.54044C20.7845 3.17763 21.0798 2.88184 21.4431 2.88184H21.9324C22.141 2.88184 22.3104 2.71252 22.3104 2.50391C22.3104 2.29529 22.141 2.12598 21.9324 2.12598H21.4431C20.6631 2.12598 20.0287 2.76039 20.0287 3.54044V4.59764H19.493C19.2844 4.59764 19.1151 4.76695 19.1151 4.97557C19.1151 5.18418 19.2844 5.3535 19.493 5.3535ZM4.19845 22.699C4.28865 22.699 4.37835 22.6758 4.45847 22.6294L7.03091 21.1434C7.19165 21.0502 7.29092 20.8788 7.29092 20.6929C7.29092 20.508 7.19115 20.3351 7.03091 20.2429L4.45847 18.7569C4.29772 18.6642 4.09969 18.6642 3.93844 18.7569C3.77769 18.8501 3.67842 19.0215 3.67842 19.2074V22.1789C3.67842 22.3639 3.77819 22.5367 3.93844 22.6294C4.01755 22.6753 4.10724 22.699 4.19845 22.699ZM4.43428 19.6161L6.29974 20.6934L4.43428 21.7708V19.6161ZM22.3789 18.0676H19.0944C18.524 18.0676 18.0599 18.5317 18.0599 19.1026V22.3865C18.0599 22.957 18.524 23.4216 19.0944 23.4216H22.3789C22.9493 23.4216 23.4134 22.9575 23.4134 22.3865V19.1026C23.4134 18.5322 22.9493 18.0676 22.3789 18.0676ZM22.6575 22.386C22.6575 22.5397 22.5326 22.6647 22.3789 22.6652H19.0944C18.9402 22.6652 18.8158 22.5402 18.8158 22.386V19.1021C18.8158 18.9484 18.9407 18.8234 19.0944 18.8229H22.3789C22.5326 18.8229 22.6575 18.9479 22.6575 19.1021V22.386Z" fill="#F48632"/>
<path d="M20.7367 19.602C20.1068 19.602 19.5943 20.1145 19.5943 20.7444C19.5943 21.3742 20.1068 21.8867 20.7367 21.8867C21.3666 21.8867 21.879 21.3742 21.879 20.7444C21.879 20.1145 21.3666 19.602 20.7367 19.602ZM20.7367 21.1309C20.5235 21.1309 20.3502 20.9575 20.3502 20.7444C20.3502 20.5312 20.5235 20.3579 20.7367 20.3579C20.9498 20.3579 21.1232 20.5312 21.1232 20.7444C21.1232 20.9575 20.9498 21.1309 20.7367 21.1309ZM15.6311 8.97412C15.4225 8.97412 15.2532 9.14343 15.2532 9.35205V9.52136C14.72 9.8358 14.1622 10.1054 13.5847 10.3281C13.1222 10.506 12.648 10.6531 12.1657 10.769C12.0897 10.7101 11.9959 10.6778 11.8992 10.6778H10.1688C9.75052 10.6778 9.41089 11.018 9.41089 11.4357V13.4206C9.41089 13.8388 9.75103 14.1785 10.1688 14.1785H10.5144L10.6455 16.6985C10.6565 16.9071 10.8339 17.0669 11.0425 17.0563C11.2512 17.0452 11.4109 16.8678 11.4003 16.6592L11.2713 14.1785H11.8992C11.9995 14.1785 12.0917 14.1442 12.1657 14.0873C12.4726 14.1613 12.776 14.248 13.0758 14.3473C13.2738 14.4128 13.488 14.3054 13.5535 14.1074C13.619 13.9094 13.5117 13.6952 13.3136 13.6297C12.9922 13.5229 12.6656 13.4297 12.3361 13.3505V11.5057C12.8526 11.3818 13.3605 11.2241 13.8558 11.0336C14.3346 10.8492 14.8012 10.634 15.2527 10.3901V14.4672C15.0869 14.3775 14.9191 14.2923 14.7498 14.2107C14.5618 14.12 14.3361 14.1991 14.2459 14.3871C14.1552 14.5755 14.2343 14.8013 14.4227 14.892C14.7054 15.0286 14.9826 15.1767 15.2532 15.3354V15.5042C15.2532 15.7129 15.4225 15.8822 15.6311 15.8822C15.8397 15.8822 16.009 15.7129 16.009 15.5042V9.35205C16.009 9.14343 15.8402 8.97412 15.6316 8.97412H15.6311ZM11.5807 13.4226L10.1667 13.4206L10.1688 11.4337H11.5802V13.4226H11.5807Z" fill="#F48632"/>
</g>
<defs>
<clipPath id="clip0_449_621">
<rect width="25.7929" height="25.8" fill="white"/>
</clipPath>
</defs>
</svg>
