<svg width="57" height="57" viewBox="0 0 57 57" fill="none" xmlns="http://www.w3.org/2000/svg">
<g filter="url(#filter0_d_1440_1018)">
<circle cx="28.5" cy="28.5" r="24.5" fill="white"/>
</g>
<path d="M42.5312 37.3996H41.5938V34.1184C41.5938 33.9941 41.5444 33.8748 41.4565 33.7869C41.3685 33.699 41.2493 33.6496 41.125 33.6496H40.2812C39.3248 33.6495 38.3722 33.5273 37.4467 33.2859L31.6408 31.7713C30.9547 31.5918 30.2288 31.6398 29.5723 31.9081C28.9158 32.1764 28.364 32.6505 28 33.2592C27.636 32.6505 27.0842 32.1764 26.4277 31.9081C25.7712 31.6398 25.0453 31.5918 24.3592 31.7713L18.5523 33.2859C17.6272 33.5273 16.6749 33.6495 15.7188 33.6496H14.875C14.7507 33.6496 14.6315 33.699 14.5435 33.7869C14.4556 33.8748 14.4062 33.9941 14.4062 34.1184V35.9934C14.4062 36.1177 14.4556 36.2369 14.5435 36.3248C14.6315 36.4127 14.7507 36.4621 14.875 36.4621C14.9993 36.4621 15.1185 36.4127 15.2065 36.3248C15.2944 36.2369 15.3438 36.1177 15.3438 35.9934V34.5871H15.7188C16.7549 34.587 17.7868 34.4547 18.7895 34.1934L24.5959 32.6784C24.9425 32.588 25.3052 32.5782 25.6562 32.6498C26.0071 32.7215 26.337 32.8726 26.6204 33.0916C26.9039 33.3105 27.1334 33.5916 27.2912 33.9131C27.4491 34.2346 27.5312 34.588 27.5312 34.9462V35.9934C27.5312 36.1177 27.5806 36.2369 27.6685 36.3248C27.7565 36.4127 27.8757 36.4621 28 36.4621C28.1243 36.4621 28.2435 36.4127 28.3315 36.3248C28.4194 36.2369 28.4688 36.1177 28.4688 35.9934V34.9462C28.4687 34.588 28.5508 34.2345 28.7088 33.9129C28.8667 33.5914 29.0962 33.3103 29.3797 33.0913C29.6632 32.8723 29.9931 32.7212 30.3442 32.6496C30.6952 32.5781 31.0579 32.5879 31.4045 32.6784L37.2105 34.1934C38.2132 34.4546 39.2451 34.5869 40.2812 34.5871H40.6562V37.3996H13.4688C13.3444 37.3996 13.2252 37.449 13.1373 37.5369C13.0494 37.6248 13 37.7441 13 37.8684V39.7434C13 39.8677 13.0494 39.9869 13.1373 40.0748C13.2252 40.1627 13.3444 40.2121 13.4688 40.2121H26.3125C26.4908 40.4991 26.7393 40.7359 27.0346 40.9001C27.3299 41.0643 27.6621 41.1505 28 41.1505C28.3379 41.1505 28.6701 41.0643 28.9654 40.9001C29.2607 40.7359 29.5092 40.4991 29.6875 40.2121H42.5312C42.6556 40.2121 42.7748 40.1627 42.8627 40.0748C42.9506 39.9869 43 39.8677 43 39.7434V37.8684C43 37.7441 42.9506 37.6248 42.8627 37.5369C42.7748 37.449 42.6556 37.3996 42.5312 37.3996ZM42.0625 39.2746H29.4062C29.3187 39.2741 29.2329 39.2982 29.1583 39.344C29.0837 39.3898 29.0235 39.4556 28.9844 39.5338L28.9375 39.6327C28.8505 39.8069 28.7166 39.9533 28.5511 40.0556C28.3855 40.158 28.1947 40.2122 28 40.2122C27.8053 40.2122 27.6145 40.158 27.4489 40.0556C27.2834 39.9533 27.1495 39.8069 27.0625 39.6327L27.0133 39.5338C26.9743 39.4559 26.9145 39.3904 26.8404 39.3446C26.7663 39.2988 26.6809 39.2746 26.5938 39.2746H13.9375V38.3371H42.0625V39.2746ZM18.8931 20.009L21.9062 21.4382V28.0748C21.9063 28.1618 21.9306 28.2471 21.9764 28.3211C22.0221 28.3951 22.0876 28.4549 22.1655 28.4938L22.2723 28.5477C24.0521 29.4323 26.0126 29.8926 28 29.8926C29.9874 29.8926 31.9479 29.4323 33.7277 28.5477L33.8345 28.4934C33.9123 28.4545 33.9777 28.3948 34.0235 28.3209C34.0693 28.2469 34.0936 28.1617 34.0938 28.0748V22.8684C34.0938 22.7441 34.0444 22.6248 33.9565 22.5369C33.8685 22.449 33.7493 22.3996 33.625 22.3996C33.5007 22.3996 33.3815 22.449 33.2935 22.5369C33.2056 22.6248 33.1562 22.7441 33.1562 22.8684V27.7837C31.5468 28.555 29.7848 28.9555 28 28.9555C26.2152 28.9555 24.4532 28.555 22.8438 27.7837V21.884L27.7994 24.2277C27.8621 24.2574 27.9306 24.2729 28 24.2729C28.0694 24.2729 28.1379 24.2574 28.2006 24.2277L37.1069 20.009C37.1871 19.971 37.255 19.9111 37.3025 19.836C37.35 19.761 37.3752 19.674 37.3752 19.5852C37.3752 19.4965 37.35 19.4095 37.3025 19.3345C37.255 19.2594 37.1871 19.1995 37.1069 19.1615L28.2006 14.9427C28.1379 14.913 28.0694 14.8976 28 14.8976C27.9306 14.8976 27.8621 14.913 27.7994 14.9427L18.8931 19.1615C18.8129 19.1995 18.745 19.2594 18.6975 19.3345C18.65 19.4095 18.6248 19.4965 18.6248 19.5852C18.6248 19.674 18.65 19.761 18.6975 19.836C18.745 19.9111 18.8129 19.971 18.8931 20.009ZM28 15.8868L35.8113 19.5871L28 23.2874L20.1888 19.5871L28 15.8868Z" fill="#F48632"/>
<path d="M19.0938 21.9309V27.5559C19.0938 27.6802 19.1431 27.7995 19.231 27.8874C19.319 27.9753 19.4382 28.0247 19.5625 28.0247C19.6868 28.0247 19.806 27.9753 19.894 27.8874C19.9819 27.7995 20.0312 27.6802 20.0312 27.5559V21.9309C20.0312 21.8066 19.9819 21.6874 19.894 21.5995C19.806 21.5115 19.6868 21.4622 19.5625 21.4622C19.4382 21.4622 19.319 21.5115 19.231 21.5995C19.1431 21.6874 19.0938 21.8066 19.0938 21.9309ZM19.5625 31.7747C19.8406 31.7747 20.1125 31.6922 20.3438 31.5377C20.575 31.3831 20.7553 31.1635 20.8617 30.9066C20.9681 30.6496 20.996 30.3668 20.9417 30.0941C20.8875 29.8213 20.7535 29.5707 20.5569 29.374C20.3602 29.1774 20.1096 29.0434 19.8368 28.9892C19.5641 28.9349 19.2813 28.9628 19.0244 29.0692C18.7674 29.1756 18.5478 29.3559 18.3932 29.5871C18.2387 29.8184 18.1562 30.0903 18.1562 30.3684C18.1562 30.7414 18.3044 31.0991 18.5681 31.3628C18.8319 31.6265 19.1895 31.7747 19.5625 31.7747ZM19.5625 29.8997C19.6552 29.8997 19.7458 29.9271 19.8229 29.9787C19.9 30.0302 19.9601 30.1034 19.9956 30.189C20.031 30.2747 20.0403 30.3689 20.0222 30.4599C20.0042 30.5508 19.9595 30.6343 19.894 30.6999C19.8284 30.7654 19.7449 30.8101 19.6539 30.8282C19.563 30.8462 19.4688 30.837 19.3831 30.8015C19.2975 30.766 19.2243 30.7059 19.1727 30.6288C19.1212 30.5517 19.0938 30.4611 19.0938 30.3684C19.0938 30.2441 19.1431 30.1249 19.231 30.037C19.319 29.949 19.4382 29.8997 19.5625 29.8997Z" fill="#F48632"/>
<defs>
<filter id="filter0_d_1440_1018" x="0" y="0" width="57" height="57" filterUnits="userSpaceOnUse" color-interpolation-filters="sRGB">
<feFlood flood-opacity="0" result="BackgroundImageFix"/>
<feColorMatrix in="SourceAlpha" type="matrix" values="0 0 0 0 0 0 0 0 0 0 0 0 0 0 0 0 0 0 127 0" result="hardAlpha"/>
<feOffset/>
<feGaussianBlur stdDeviation="2"/>
<feComposite in2="hardAlpha" operator="out"/>
<feColorMatrix type="matrix" values="0 0 0 0 0 0 0 0 0 0 0 0 0 0 0 0 0 0 0.15 0"/>
<feBlend mode="normal" in2="BackgroundImageFix" result="effect1_dropShadow_1440_1018"/>
<feBlend mode="normal" in="SourceGraphic" in2="effect1_dropShadow_1440_1018" result="shape"/>
</filter>
</defs>
</svg>
