<svg width="26" height="27" viewBox="0 0 26 27" fill="none" xmlns="http://www.w3.org/2000/svg">
<path d="M25.3936 16.5678L24.3304 16.3169C24.274 16.0418 24.2023 15.7705 24.1152 15.504L24.9069 14.7529C25.0397 14.6272 25.0785 14.43 25.0036 14.2618C24.7703 13.7417 24.4866 13.2464 24.1566 12.7827C24.0503 12.6333 23.8617 12.5689 23.6879 12.6226L22.6576 12.939C22.4717 12.7284 22.274 12.528 22.0652 12.3405L22.3787 11.2993C22.4313 11.1236 22.368 10.9328 22.2203 10.8254C21.9918 10.6588 21.7549 10.5035 21.5115 10.3606V2.75435C21.5115 1.56911 20.5582 0.605225 19.3861 0.605225H2.38252C1.21034 0.605225 0.25708 1.56911 0.25708 2.75435V13.9298C0.25708 15.115 1.21034 16.0789 2.38252 16.0789H6.87677L5.48567 19.9473H3.2327C2.99784 19.9473 2.80761 20.1397 2.80761 20.3772C2.80761 21.5624 3.76087 22.5263 4.93305 22.5263H10.1808C10.2429 22.6214 10.2987 22.7208 10.3646 22.8132C10.4709 22.9626 10.6595 23.027 10.8333 22.9733L11.8636 22.6568C12.0496 22.8675 12.2472 23.0679 12.4561 23.2554L12.1425 24.2966C12.0899 24.4723 12.1532 24.663 12.3009 24.7705C12.76 25.1052 13.252 25.3937 13.7643 25.6275C13.93 25.7038 14.1256 25.664 14.2499 25.5297L14.9922 24.7286C15.2547 24.8167 15.5241 24.8892 15.7967 24.9462L16.0449 26.0218C16.0863 26.2013 16.2361 26.334 16.4173 26.3517C16.7037 26.3807 16.988 26.3952 17.2617 26.3952C17.5353 26.3952 17.8196 26.3807 18.1065 26.3523C18.2877 26.334 18.4376 26.2013 18.479 26.0224L18.7272 24.9467C18.9992 24.8903 19.2676 24.8172 19.5316 24.7291L20.274 25.5302C20.3983 25.6645 20.5933 25.7038 20.7596 25.628C21.274 25.3921 21.7639 25.1052 22.2219 24.771C22.3696 24.6636 22.4334 24.4728 22.3803 24.2972L22.0668 23.2554C22.2756 23.0673 22.4738 22.8675 22.6592 22.6568L23.6895 22.9738C23.8628 23.0276 24.0519 22.9631 24.1582 22.8137C24.4882 22.3506 24.7725 21.8547 25.0052 21.3346C25.0801 21.167 25.0413 20.9692 24.9085 20.8435L24.1168 20.0924C24.2039 19.8259 24.2756 19.554 24.332 19.279L25.3952 19.028C25.5727 18.9861 25.7039 18.8352 25.7215 18.6519C25.7491 18.3629 25.7634 18.0754 25.7634 17.7982C25.7634 17.521 25.7491 17.2335 25.7204 16.9439C25.7029 16.7607 25.5716 16.6097 25.3941 16.5678H25.3936ZM2.38252 1.46487H19.3861C20.089 1.46487 20.6613 2.04353 20.6613 2.75435V9.94155C20.5189 9.91254 20.3723 9.95982 20.2724 10.0662L19.5301 10.8673C19.2665 10.7792 18.9976 10.7061 18.7256 10.6497L18.4774 9.57405C18.436 9.3946 18.2861 9.26189 18.1049 9.24416C17.5433 9.18721 16.9769 9.18721 16.4152 9.24416C16.234 9.26243 16.0842 9.39514 16.0427 9.57405L15.7946 10.6497C15.522 10.7066 15.2537 10.7792 14.9901 10.8673L14.2478 10.0662C14.1235 9.93188 13.9284 9.89266 13.7621 9.96842C13.2478 10.2043 12.7579 10.4912 12.2998 10.8254C12.1521 10.9328 12.0883 11.1236 12.1415 11.2993L12.2871 11.7807H3.65779V6.62277H7.90867V5.76312H3.65779V3.18417H18.1108V8.34207H18.961V2.75435C18.961 2.51687 18.7707 2.32452 18.5359 2.32452H3.2327C2.99784 2.32452 2.80761 2.51687 2.80761 2.75435V11.7807H1.10726V2.75435C1.10726 2.04353 1.67953 1.46487 2.38252 1.46487ZM12.1596 12.6403C12.0607 12.7402 11.956 12.8343 11.8631 12.9396L10.8891 12.6403H12.159H12.1596ZM1.10726 13.9298V12.6403H10.5479C10.4746 12.6693 10.4108 12.7188 10.3641 12.7832C10.0341 13.2464 9.74983 13.7423 9.5171 14.2624C9.44217 14.43 9.48096 14.6277 9.6138 14.7534L10.1058 15.2198H2.38252C1.67953 15.2198 1.10726 14.6411 1.10726 13.9303V13.9298ZM7.78114 16.0789H10.2467C10.2275 16.1579 10.2073 16.2369 10.1909 16.3164L9.12761 16.5673C8.95014 16.6092 8.81889 16.7602 8.80135 16.9434C8.77319 17.233 8.75885 17.5204 8.75885 17.7977C8.75885 18.0749 8.77319 18.3618 8.80189 18.6519C8.81995 18.8352 8.9512 18.9861 9.12814 19.028L10.1914 19.279C10.2371 19.5046 10.3009 19.726 10.3678 19.9463H6.39004L7.78114 16.0778V16.0789ZM4.93305 21.6666C4.39266 21.6661 3.91125 21.3217 3.73058 20.807H9.65259L9.6138 20.8435C9.48096 20.9692 9.44217 21.1664 9.5171 21.3346C9.56758 21.4474 9.63081 21.556 9.68607 21.6666H4.93305ZM24.8979 18.2635L23.8659 18.5074C23.6986 18.5472 23.571 18.6847 23.5434 18.8561C23.4759 19.2682 23.3691 19.6733 23.2235 20.0645C23.1635 20.2273 23.2055 20.4105 23.3309 20.5292L24.0987 21.2567C23.9611 21.5339 23.8075 21.802 23.6385 22.0605L22.639 21.7531C22.4748 21.7021 22.2963 21.7564 22.1874 21.8912C21.9233 22.2157 21.6289 22.5134 21.308 22.7804C21.1751 22.8911 21.1215 23.0711 21.1714 23.2371L21.4754 24.2477C21.2198 24.4186 20.9541 24.5744 20.6804 24.7135L19.961 23.9366C19.8436 23.8098 19.6624 23.7674 19.5014 23.8281C19.1167 23.9743 18.7144 24.0828 18.3058 24.1516C18.1363 24.18 18.0003 24.3084 17.9609 24.4777L17.7202 25.5211C17.4136 25.5404 17.1065 25.5404 16.8005 25.5211L16.5597 24.4777C16.521 24.3084 16.3849 24.1795 16.2149 24.1516C15.8068 24.0833 15.4067 23.9748 15.0193 23.8281C14.8583 23.7669 14.6771 23.8098 14.5597 23.9366L13.8402 24.7135C13.5661 24.5744 13.3004 24.4191 13.0448 24.2477L13.3493 23.2376C13.3987 23.0716 13.345 22.8916 13.2127 22.7809C12.8918 22.5139 12.5974 22.2163 12.3333 21.8918C12.2238 21.7574 12.0458 21.7032 11.8816 21.7537L10.8822 22.0605C10.7127 21.802 10.5591 21.5339 10.4215 21.2567L11.1898 20.5292C11.3152 20.4105 11.3577 20.2273 11.2972 20.0645C11.1521 19.6728 11.0448 19.2682 10.9773 18.8556C10.9496 18.6842 10.8221 18.5461 10.6547 18.5069L9.62284 18.263C9.60264 17.9535 9.60211 17.6429 9.62177 17.3335L10.6537 17.0895C10.8211 17.0498 10.9486 16.9122 10.9762 16.7408C11.0432 16.3293 11.151 15.9226 11.2961 15.5325C11.3567 15.3697 11.3142 15.1865 11.1888 15.0672L10.4204 14.3397C10.557 14.0636 10.7116 13.7949 10.8806 13.536L11.8801 13.8427C12.0448 13.8933 12.2233 13.8384 12.3317 13.7047C12.5958 13.3801 12.8902 13.0825 13.2111 12.8155C13.344 12.7048 13.3976 12.5248 13.3477 12.3588L13.0437 11.3482C13.2993 11.1773 13.565 11.0215 13.8386 10.8823L14.5581 11.6592C14.6755 11.786 14.8567 11.8285 15.0177 11.7678C15.4024 11.6216 15.8047 11.5131 16.2133 11.4443C16.3828 11.4159 16.5188 11.2874 16.5582 11.1182L16.7989 10.0748C17.1055 10.0555 17.4126 10.0555 17.7186 10.0748L17.9593 11.1182C17.9981 11.2874 18.1342 11.4164 18.3042 11.4443C18.7123 11.5126 19.1124 11.6211 19.4998 11.7678C19.6592 11.829 19.842 11.786 19.9594 11.6592L20.6789 10.8823C20.952 11.0209 21.2182 11.1768 21.4743 11.3482L21.1698 12.3582C21.1199 12.5248 21.1741 12.7048 21.3064 12.8149C21.6268 13.0814 21.9228 13.3807 22.1858 13.7041C22.2947 13.8384 22.4733 13.8933 22.6374 13.8422L23.6369 13.5354C23.8064 13.7944 23.9611 14.063 24.0976 14.3392L23.3293 15.0667C23.2039 15.1854 23.1614 15.3686 23.2219 15.5314C23.367 15.922 23.4743 16.3287 23.5418 16.7403C23.5695 16.9117 23.697 17.0498 23.8644 17.089L24.8963 17.3329C24.9165 17.6429 24.917 17.9535 24.8973 18.2635H24.8979Z" fill="#F48632"/>
</svg>
