<svg width="136" height="54" viewBox="0 0 136 54" fill="none" xmlns="http://www.w3.org/2000/svg">
<rect width="135.415" height="54" fill="white"/>
<path fill-rule="evenodd" clip-rule="evenodd" d="M25.4322 35.1662C25.4318 34.1589 25.8315 33.1927 26.5434 32.4801C27.2552 31.7674 28.221 31.3667 29.2283 31.3661H29.2344V27.568H14.04V31.3661C14.5388 31.3661 15.0327 31.4643 15.4935 31.6552C15.9543 31.846 16.373 32.1258 16.7257 32.4785C17.0784 32.8312 17.3581 33.2499 17.549 33.7107C17.7399 34.1715 17.8381 34.6654 17.8381 35.1641V35.1662C17.8382 35.665 17.74 36.1589 17.5491 36.6197C17.3583 37.0805 17.0785 37.4993 16.7258 37.852C16.3731 38.2046 15.9544 38.4844 15.4936 38.6753C15.0327 38.8661 14.5388 38.9643 14.04 38.9642V42.7623H29.2344V38.9637C28.7356 38.9643 28.2416 38.8667 27.7806 38.6764C27.3196 38.486 26.9006 38.2068 26.5476 37.8545C26.1945 37.5022 25.9143 37.0839 25.7229 36.6233C25.5315 36.1627 25.4328 35.669 25.4322 35.1702V35.1662Z" fill="#05BFE0"/>
<path fill-rule="evenodd" clip-rule="evenodd" d="M38.3513 18.9557C38.3503 14.7606 34.9493 11.3606 30.7542 11.3606V26.5549C34.9493 26.5549 38.3503 23.1549 38.3513 18.9598C38.3523 23.1549 41.7533 26.5549 45.9485 26.5549V11.3606C41.7533 11.3606 38.3523 14.7606 38.3513 18.9557Z" fill="#FF610F"/>
<path fill-rule="evenodd" clip-rule="evenodd" d="M24.0045 18.9578H16.8966V14.2161H24.005C24.3162 14.2162 24.6245 14.2776 24.912 14.3967C25.1996 14.5159 25.4608 14.6906 25.6809 14.9107C25.9009 15.1309 26.0755 15.3922 26.1945 15.6798C26.3136 15.9674 26.3748 16.2757 26.3748 16.5869C26.3748 16.8982 26.3136 17.2065 26.1945 17.4942C26.0754 17.7818 25.9008 18.0432 25.6807 18.2633C25.4606 18.4835 25.1993 18.6581 24.9117 18.7773C24.6241 18.8964 24.3158 18.9578 24.0045 18.9578ZM24.4785 11.3844C24.321 11.369 24.1628 11.3611 24.0045 11.3606H14.04V26.5549H16.8854V21.8133H24.0045C24.164 21.8133 24.321 21.8133 24.4785 21.7895C27.3487 21.5347 29.4683 18.9998 29.2136 16.1286C29.1055 14.9089 28.572 13.766 27.7064 12.8999C26.8408 12.0338 25.6982 11.4997 24.4785 11.391V11.3844Z" fill="#231F20"/>
<path fill-rule="evenodd" clip-rule="evenodd" d="M30.2471 42.7623V38.204L34.8054 42.7623H30.2471ZM39.1717 42.7623L30.7535 34.3426V30.1004L43.4155 42.7623H39.1717ZM45.9479 27.568V32.1263L41.3896 27.568H45.9479ZM45.4414 40.2299L32.7795 27.568H37.0364L45.4414 35.972V40.2299Z" fill="#4F17A8"/>
<path fill-rule="evenodd" clip-rule="evenodd" d="M47.324 41.7496H47.5417L47.9054 42.5676L48.263 41.7496H48.4807V42.7626H48.3217V41.9704L47.9733 42.7626H47.8223L47.4759 41.9704V42.7626H47.3158L47.324 41.7496ZM46.7577 41.8924H46.4548V41.7496H47.2196V41.8924H46.9188V42.758H46.7577V41.8924ZM56.8361 14.7716C57.0964 14.7756 57.3552 14.7209 57.5943 14.612C57.807 14.5131 57.9889 14.3586 58.121 14.1648C58.2466 13.9805 58.3125 13.7596 58.3099 13.5332C58.314 13.3033 58.2497 13.0774 58.1256 12.888C57.9955 12.6971 57.8153 12.5457 57.6049 12.4504C57.3637 12.3406 57.1011 12.2859 56.8361 12.2904H55.3486V14.7625L56.8361 14.7716ZM53.5475 10.8545H57.1385C57.6328 10.8545 58.122 10.9609 58.5753 11.167C59.0252 11.3671 59.4135 11.6835 59.7002 12.0837C59.994 12.5066 60.1444 13.0197 60.1287 13.5424C60.1352 14.0268 60.0013 14.5028 59.7433 14.9129C59.4815 15.3243 59.1107 15.655 58.6721 15.8681C58.1878 16.1058 57.654 16.2252 57.1147 16.2166H55.3471V18.9581H53.5455L53.5475 10.8545ZM61.1427 13.0496H62.4686L62.7239 13.9156C62.8556 13.6016 63.0835 13.3332 63.3783 13.1458C63.6746 12.9665 64.0155 12.8745 64.3618 12.8804C64.678 12.8741 64.9899 12.9546 65.2634 13.1134C65.5308 13.2765 65.7506 13.5013 65.902 13.7677C66.0742 14.0676 66.1781 14.3983 66.2074 14.7387L64.8025 15.1074C64.7968 14.838 64.6912 14.5804 64.5062 14.3846C64.357 14.2214 64.1524 14.1197 63.9323 14.0992C63.7121 14.0787 63.4922 14.1409 63.3155 14.2737C63.1468 14.4059 63.0187 14.5786 62.9442 14.7741C62.8543 15.0043 62.8099 15.2498 62.8135 15.4969V18.4516H61.1447L61.1427 13.0496ZM70.5084 16.951C70.7246 16.8285 70.9021 16.6477 71.0205 16.4293C71.1446 16.1928 71.2069 15.9314 71.2018 15.667C71.2066 15.4009 71.1443 15.1379 71.0205 14.9023C70.9011 14.6841 70.724 14.5031 70.5084 14.3791C70.2834 14.2522 70.0289 14.1867 69.7705 14.1891C69.5122 14.1858 69.2577 14.2514 69.0331 14.3791C68.8194 14.5027 68.6442 14.6833 68.5271 14.9007C68.402 15.1358 68.3389 15.3988 68.3438 15.665C68.3387 15.9299 68.4015 16.1917 68.5271 16.4273C68.6411 16.6435 68.8168 16.8243 69.0336 16.9489C69.2564 17.0776 69.5142 17.1434 69.7751 17.1389C70.0329 17.1419 70.2866 17.0771 70.5084 16.951ZM68.1903 18.1032C67.7472 17.8861 67.3749 17.5474 67.1171 17.1267C66.8486 16.6875 66.7091 16.1817 66.7144 15.667C66.7034 15.1542 66.8364 14.6485 67.0983 14.2074C67.3613 13.7835 67.7402 13.4439 68.1903 13.2289C68.6856 12.9995 69.2249 12.8807 69.7708 12.8807C70.3166 12.8807 70.8559 12.9995 71.3512 13.2289C71.7879 13.4489 72.1534 13.7882 72.4052 14.2074C72.668 14.6482 72.8017 15.1539 72.7911 15.667C72.8017 16.1801 72.668 16.6859 72.4052 17.1267C72.1481 17.5478 71.7759 17.8866 71.3325 18.1032C70.8371 18.3327 70.2977 18.4516 69.7518 18.4516C69.2058 18.4516 68.6664 18.3327 68.1711 18.1032H68.1903Z" fill="black"/>
<path fill-rule="evenodd" clip-rule="evenodd" d="M73.5231 12.1714C73.4305 12.0827 73.3577 11.9755 73.3095 11.8567C73.2613 11.7378 73.2389 11.6102 73.2436 11.4821C73.2376 11.3546 73.2589 11.2272 73.3061 11.1086C73.3532 10.99 73.4252 10.8828 73.5171 10.7943C73.7153 10.6248 73.9676 10.5317 74.2284 10.5317C74.4892 10.5317 74.7415 10.6248 74.9398 10.7943C75.1241 10.9725 75.2239 11.2187 75.2153 11.4729C75.2203 11.6008 75.1984 11.7283 75.151 11.8472C75.1035 11.966 75.0315 12.0736 74.9398 12.1628C74.7414 12.3323 74.4891 12.4255 74.2282 12.4255C73.9672 12.4255 73.7149 12.3323 73.5166 12.1628L73.5231 12.1714ZM71.7054 21.1654C71.3944 21.0304 71.1254 20.8143 70.9264 20.5399L71.6623 19.5872C71.7515 19.763 71.8882 19.9114 72.0569 20.0152C72.2149 20.1134 72.3972 20.1661 72.5841 20.1671C72.7352 20.171 72.884 20.1296 73.0115 20.0484C73.139 19.9672 73.2394 19.8499 73.2998 19.7113C73.3671 19.5573 73.4006 19.3907 73.3975 19.2231V13.1757H75.0461V19.4672C75.0523 19.8208 74.9553 20.1685 74.767 20.4678C74.5786 20.7671 74.307 21.0049 73.9855 21.1522C73.6268 21.3207 73.2341 21.4044 72.8379 21.3969C72.4481 21.4025 72.0617 21.3235 71.7054 21.1654ZM78.242 14.1775C78.0546 14.2712 77.8976 14.411 77.7897 14.5817C77.6681 14.7676 77.5866 14.9732 77.5481 15.1874H80.1048C80.0802 14.9733 80.0103 14.7668 79.8997 14.5817C79.689 14.2322 79.2894 14.018 78.8579 14.0246C78.6433 14.0254 78.432 14.0779 78.242 14.1775ZM80.4178 13.2466C80.8439 13.4638 81.1965 13.8017 81.4318 14.2181C81.6784 14.6658 81.8015 15.1631 81.7909 15.6661V15.9066C81.7887 15.9741 81.783 16.0414 81.7736 16.1082H77.5481C77.58 16.3447 77.6823 16.5681 77.8439 16.753C78.011 16.9399 78.2258 17.0857 78.4684 17.1769C78.7317 17.2777 79.0149 17.3278 79.299 17.3243C79.6333 17.3243 79.9625 17.2554 80.2633 17.1222C80.5267 17.0189 80.7521 16.8487 80.9162 16.6314L81.9084 17.2858C81.6524 17.675 81.2776 17.9711 80.8397 18.1301C80.3015 18.3502 79.7244 18.4594 79.143 18.4512C78.5572 18.4606 77.9769 18.337 77.4458 18.0896C76.969 17.8655 76.5616 17.5168 76.2667 17.0802C75.9762 16.6505 75.8242 16.1421 75.8312 15.6235C75.8206 15.1199 75.956 14.624 76.2211 14.1958C76.4878 13.7795 76.864 13.4447 77.3085 13.2284C77.7969 12.9906 78.3345 12.8714 78.8776 12.8804C79.4132 12.8745 79.9421 13.0005 80.4178 13.2466ZM83.9241 18.1022C83.4689 17.8808 83.0849 17.536 82.816 17.107C82.548 16.6755 82.409 16.1765 82.4154 15.6686C82.4074 15.1616 82.5384 14.662 82.7942 14.2241C83.0417 13.8035 83.4023 13.4608 83.835 13.235C84.3024 12.992 84.8232 12.8702 85.3499 12.881C85.7753 12.8784 86.1957 12.9569 86.5877 13.1114C86.9555 13.2528 87.2885 13.4716 87.5642 13.7531C87.8225 14.0185 88.0008 14.3442 88.0788 14.6957L86.5644 15.0537C86.5014 14.7923 86.348 14.5616 86.1314 14.4024C85.9155 14.2383 85.6514 14.1502 85.3803 14.1517C85.1436 14.1479 84.911 14.2139 84.7117 14.3416C84.5089 14.4736 84.3475 14.6602 84.2463 14.88C84.129 15.1261 84.0704 15.396 84.0751 15.6686C84.071 15.9421 84.1369 16.2131 84.2675 16.4577C84.3845 16.6785 84.5643 16.8649 84.7872 16.9961C85.2177 17.2321 85.747 17.2473 86.1922 17.0366C86.3922 16.9399 86.5669 16.8016 86.7007 16.6314C86.8369 16.4597 86.925 16.2592 86.9579 16.0474L88.4926 16.2495C88.4356 16.6695 88.2591 17.0642 87.9841 17.3866C87.6935 17.727 87.3276 17.9951 86.9154 18.1696C86.4402 18.3673 85.9288 18.4632 85.4143 18.451C84.8997 18.4387 84.3935 18.3187 83.9282 18.0987L83.9241 18.1022ZM90.6578 18.713C90.335 18.562 90.0654 18.317 89.8844 18.01C89.7019 17.6788 89.6115 17.3047 89.6225 16.9267V14.4784H88.4926V13.2436H89.622V11.7181L91.3491 11.361L91.3354 13.2436H93.7179V14.4784H91.3354L91.3471 16.6745C91.3339 16.9328 91.4246 17.186 91.6003 17.3835C91.6849 17.4708 91.787 17.5391 91.8998 17.584C92.0127 17.629 92.1338 17.6496 92.2552 17.6444C92.5069 17.6479 92.7526 17.5724 92.9541 17.4311C93.1669 17.2762 93.339 17.0766 93.4555 16.8477L94.0638 17.8115C93.8512 18.168 93.5489 18.4626 93.1871 18.6659C92.7931 18.8685 92.3489 18.9698 91.9007 18.9566C91.4732 18.9715 91.048 18.8881 90.6578 18.713ZM53.5457 23.01H54.9126L57.8507 29.6266L60.7888 23.01H62.1558V30.6071H61.2117V24.3035L58.3501 30.6071H57.3493L54.4897 24.3142V30.6071H53.5457V23.01ZM66.3707 29.6712C66.6466 29.5347 66.8803 29.3259 67.0468 29.0669C67.2139 28.8036 67.3011 28.5007 67.298 28.1923V27.8215L65.6586 28.0226C65.0548 28.0975 64.6213 28.2242 64.366 28.3999C64.2536 28.464 64.1591 28.5553 64.0913 28.6655C64.0235 28.7757 63.9846 28.9013 63.9781 29.0305C63.9803 29.1605 64.0183 29.2873 64.0878 29.3972C64.1573 29.5071 64.2556 29.5957 64.3721 29.6534C64.6863 29.823 65.0405 29.9043 65.3972 29.889C65.7344 29.8945 66.068 29.8198 66.3707 29.6712ZM64.1731 30.4066C63.8819 30.293 63.6273 30.1021 63.4366 29.8545C63.2601 29.6232 63.1659 29.3396 63.1687 29.0487C63.166 28.7722 63.2527 28.5021 63.4159 28.2789C63.619 28.0216 63.8838 27.8199 64.1857 27.6924C64.6222 27.508 65.0851 27.3936 65.5573 27.3535L66.8599 27.2006C66.9789 27.1945 67.0924 27.1499 67.1815 27.074C67.2203 27.0405 67.2511 26.9989 67.272 26.9522C67.2928 26.9054 67.3031 26.8547 67.3021 26.8035C67.3061 26.5985 67.2318 26.3996 67.0944 26.2474C66.9385 26.0793 66.7442 25.9514 66.5282 25.8746C66.2804 25.7839 66.0182 25.7388 65.7543 25.7414C65.4554 25.7371 65.1592 25.7985 64.8867 25.9212C64.6511 26.025 64.443 26.1823 64.2789 26.3806C64.1371 26.5427 64.051 26.7447 64.0318 26.9565L63.3055 26.6607C63.35 26.3644 63.4832 26.0873 63.6894 25.8645C63.9313 25.5959 64.2335 25.3886 64.5712 25.2598C64.9566 25.1078 65.3694 25.0318 65.7852 25.0364C66.1969 25.0291 66.6056 25.1087 66.9845 25.2699C67.314 25.4107 67.5977 25.6404 67.804 25.9334C68.0025 26.2271 68.1054 26.5725 68.0993 26.9245V29.544C68.0928 29.6362 68.1208 29.7276 68.1778 29.8003C68.2284 29.8611 68.3044 29.8955 68.3854 29.893C68.4661 29.8891 68.5437 29.8603 68.6073 29.8105C68.6903 29.7492 68.7607 29.6732 68.8149 29.5866L69.2464 30.0764C69.1278 30.2452 68.9658 30.3789 68.7774 30.4633C68.59 30.5555 68.3834 30.6046 68.1737 30.6061C67.7068 30.6264 67.3117 30.2739 67.2914 29.8201C67.2901 29.7934 67.2901 29.7667 67.2914 29.7401V29.538C67.1649 29.7554 66.999 29.9474 66.8022 30.1042C66.5944 30.2705 66.3571 30.3959 66.1027 30.4739C65.824 30.5604 65.5336 30.6032 65.2417 30.6006C64.8762 30.6073 64.5129 30.5413 64.1731 30.4066ZM69.7529 25.2481H70.5172L70.5932 26.0331C70.7888 25.7183 71.0686 25.4644 71.401 25.3003C71.7428 25.1253 72.1216 25.0348 72.5056 25.0364C72.9311 25.0278 73.3514 25.1347 73.7171 25.3443C74.0635 25.5459 74.3446 25.8361 74.529 26.1826C74.726 26.5594 74.8248 26.9762 74.8177 27.3971V30.6031H73.9658V27.4022C73.9704 27.1117 73.9061 26.8243 73.7784 26.5634C73.6578 26.3222 73.4695 26.1213 73.2365 25.9855C72.9839 25.8425 72.6975 25.7701 72.4074 25.7759C71.4101 25.7708 70.5982 26.5432 70.5932 27.4999V30.6071H69.7529V25.2481ZM79.029 29.6702C79.3055 29.5332 79.5399 29.3243 79.7077 29.0654C79.8708 28.8021 79.9539 28.5002 79.9483 28.1933V27.8205L78.3093 28.0216C77.7082 28.0955 77.2771 28.2211 77.0173 28.3984C76.7864 28.5316 76.6405 28.7686 76.6289 29.029C76.6314 29.2918 76.7833 29.5314 77.0239 29.6519C77.3378 29.8213 77.6916 29.9027 78.048 29.8874C78.3877 29.8943 78.7242 29.8197 79.029 29.6697M76.8345 30.4051C76.5428 30.2925 76.2879 30.1014 76.0981 29.853C75.9218 29.6218 75.8276 29.3384 75.8306 29.0477C75.8278 28.7712 75.9143 28.5012 76.0773 28.2779C76.2799 28.0196 76.5483 27.818 76.8552 27.6914C77.2916 27.507 77.7543 27.3928 78.2263 27.353L79.5294 27.2001C79.6475 27.194 79.7599 27.1494 79.8485 27.0729C79.8865 27.041 79.917 27.0013 79.9382 26.9564C79.9594 26.9116 79.9706 26.8627 79.9711 26.8131C79.9754 26.608 79.9011 26.4091 79.7634 26.257C79.6068 26.0888 79.4118 25.9609 79.1952 25.8842C78.9481 25.7934 78.6865 25.7484 78.4233 25.7515C78.1248 25.7469 77.8289 25.8081 77.5567 25.9308C77.3203 26.0315 77.1102 26.185 76.9424 26.3796C76.8026 26.5437 76.7165 26.7442 76.6957 26.9559L75.9714 26.6597C76.015 26.3634 76.1487 26.0863 76.3554 25.8645C76.597 25.5959 76.8991 25.3886 77.2366 25.2598C77.6229 25.1068 78.0353 25.0307 78.4506 25.0359C78.8594 25.0308 79.2646 25.1119 79.6388 25.2719C79.9741 25.4132 80.2618 25.6427 80.469 25.9349C80.6666 26.2272 80.7693 26.5733 80.7632 26.9261V29.5446C80.7571 29.6362 80.7845 29.7269 80.8402 29.8008C80.8909 29.8611 80.9673 29.895 81.0479 29.8935C81.1285 29.8893 81.2059 29.8605 81.2697 29.811C81.3523 29.7497 81.4227 29.6737 81.4774 29.5871L81.9084 30.0769C81.7904 30.244 81.6283 30.3772 81.4399 30.4638C81.2525 30.556 81.0458 30.6046 80.8362 30.6066C80.3667 30.6249 79.9711 30.2703 79.9518 29.8145C79.9507 29.7899 79.9507 29.7652 79.9518 29.7406V29.539C79.8268 29.7568 79.6614 29.9488 79.4646 30.1047C79.2568 30.2703 79.0197 30.3954 78.7657 30.4734C78.4876 30.56 78.1969 30.6026 77.9047 30.6006C77.5385 30.6068 77.1748 30.5404 76.8345 30.4051ZM86.2124 29.9619C86.5203 29.7716 86.7693 29.4994 86.9316 29.1758C87.1064 28.8258 87.1935 28.4386 87.1854 28.0474C87.191 27.6442 87.1018 27.2454 86.925 26.883C86.7652 26.552 86.5161 26.2722 86.2058 26.0752C85.9007 25.8825 85.5466 25.7818 85.1858 25.785C84.4453 25.7723 83.7631 26.2003 83.4339 26.885C83.2579 27.2469 83.1694 27.6451 83.1756 28.0474C83.1695 28.4399 83.2607 28.8274 83.4405 29.1738C83.6066 29.498 83.8558 29.7699 84.1597 29.9589C84.4686 30.1446 84.8223 30.2427 85.1827 30.2427C85.5432 30.2427 85.8969 30.1446 86.2058 29.9589L86.2124 29.9619ZM83.6517 33.4232C83.2589 33.286 82.8966 33.0737 82.585 32.7982C82.2954 32.5427 82.0645 32.2276 81.9084 31.8743L82.5997 31.3831C82.688 31.6759 82.8478 31.9422 83.0647 32.158C83.2976 32.391 83.5752 32.5708 83.8801 32.6862C84.2126 32.8157 84.5667 32.8805 84.9234 32.8772C85.3314 32.8852 85.7342 32.7851 86.0909 32.587C86.4231 32.4007 86.6954 32.1236 86.8759 31.7882C87.0652 31.4331 87.1608 31.0354 87.1534 30.633V29.8783C86.9315 30.2276 86.6264 30.5164 86.2656 30.7191C85.9004 30.9201 85.4912 31.0225 85.0769 31.0154C84.5833 31.0217 84.0979 30.8883 83.677 30.6304C83.2626 30.3726 82.9264 30.0066 82.7046 29.5719C82.4662 29.0996 82.3461 28.5764 82.3546 28.0474C82.3478 27.5135 82.4676 26.9855 82.704 26.5067C83.1573 25.589 84.0786 25.0177 85.0774 25.0369C85.9151 25.0151 86.7047 25.4421 87.1641 26.1658L87.2492 25.2304H87.9861V30.635C87.9939 31.1794 87.8576 31.7162 87.591 32.1909C87.3393 32.6422 86.9649 33.0131 86.5112 33.2606C86.0307 33.5226 85.4904 33.6552 84.9432 33.6455C84.5032 33.6466 84.0659 33.5714 83.6517 33.4232ZM90.836 25.9572C90.5693 26.0906 90.3417 26.2909 90.1756 26.5386C90.0021 26.7969 89.8886 27.0908 89.8433 27.3986H93.533C93.4964 27.0923 93.3939 26.7976 93.2327 26.5346C93.081 26.2893 92.8657 26.0898 92.6097 25.9572C92.3419 25.8185 92.0437 25.7491 91.7421 25.7551C91.4282 25.7487 91.1174 25.818 90.836 25.9572ZM93.1395 25.3838C93.5347 25.6154 93.8561 25.9544 94.0664 26.3613C94.2943 26.8005 94.4108 27.2841 94.4097 27.7744V27.9238C94.4091 27.9763 94.4056 28.0287 94.3991 28.0808H89.8408C89.8697 28.4222 89.9877 28.7504 90.1842 29.0366C90.3757 29.3101 90.6385 29.5319 90.9465 29.6803C91.2897 29.8395 91.6647 29.9181 92.043 29.9101C92.4212 29.9021 92.7927 29.8077 93.1289 29.6342C93.4392 29.4778 93.6952 29.2314 93.8633 28.9272L94.5703 29.2037C94.3626 29.6383 94.0184 29.9929 93.5903 30.2136C93.106 30.467 92.5686 30.6019 92.0221 30.6072C91.4756 30.6125 90.9356 30.488 90.4466 30.244C90.0066 30.0125 89.64 29.6627 89.388 29.2341C89.139 28.7981 89.0052 28.3059 88.9992 27.8039C88.9933 27.3019 89.1154 26.8066 89.3541 26.3649C89.586 25.9539 89.9276 25.6155 90.3407 25.3874C90.7781 25.1493 91.2696 25.0284 91.7675 25.0364C92.2476 25.0274 92.7215 25.1474 93.1395 25.3838ZM95.0768 25.2552H95.8046L95.8942 25.9222C96.0604 25.6487 96.3004 25.4244 96.5891 25.2719C96.8857 25.1179 97.2157 25.0396 97.5499 25.044C97.972 25.0353 98.3887 25.1391 98.7573 25.3448C99.0967 25.5343 99.3656 25.8219 99.5242 26.1674C99.7019 25.8279 99.9715 25.5452 100.302 25.3514C101.325 24.7416 102.668 25.0425 103.303 26.0245C103.338 26.0777 103.369 26.1324 103.399 26.1881C103.595 26.5644 103.694 26.9808 103.686 27.4016V30.6026H102.837V27.3961C102.841 27.1061 102.777 26.8191 102.649 26.5589C102.531 26.3212 102.349 26.1212 102.124 25.9815C101.893 25.8407 101.627 25.7682 101.357 25.7723C101.073 25.7701 100.794 25.8422 100.547 25.9815C100.306 26.1182 100.112 26.3198 99.9886 26.5609C99.8534 26.819 99.7851 27.1068 99.79 27.3981V30.6071H98.9513V27.3956C98.9561 27.1061 98.8935 26.8195 98.7685 26.5584C98.6543 26.323 98.4741 26.1259 98.2499 25.9911C98.0145 25.8512 97.7451 25.779 97.4714 25.7824C97.1854 25.7789 96.9035 25.851 96.6545 25.9916C96.4222 26.1245 96.233 26.3214 96.1095 26.5589C95.9778 26.8179 95.9114 27.1051 95.916 27.3956V30.6071H95.0768V25.2552ZM106.552 25.9526C106.281 26.085 106.051 26.2856 105.882 26.5346C105.708 26.7932 105.595 27.0874 105.549 27.3956H109.241C109.205 27.0889 109.102 26.7938 108.941 26.5305C108.789 26.285 108.574 26.0851 108.318 25.9521C108.05 25.8133 107.751 25.7439 107.45 25.75C107.137 25.7444 106.827 25.8139 106.547 25.9526H106.552ZM108.847 25.3783C109.243 25.61 109.565 25.9493 109.775 26.3568C110.001 26.7974 110.118 27.2811 110.119 27.7714V27.9208C110.118 27.974 110.115 28.0261 110.108 28.0783H105.543C105.57 28.4192 105.687 28.7484 105.882 29.035C106.073 29.309 106.336 29.5314 106.645 29.6793C106.988 29.8386 107.363 29.9173 107.742 29.9093C108.121 29.9013 108.492 29.8069 108.829 29.6332C109.139 29.4767 109.395 29.2301 109.564 28.9256L110.271 29.2027C110.063 29.6379 109.718 29.9928 109.289 30.2131C108.804 30.4668 108.267 30.6018 107.72 30.6071C107.174 30.6124 106.634 30.4878 106.145 30.2435C105.705 30.0108 105.338 29.6609 105.085 29.2326C104.827 28.7886 104.694 28.2826 104.7 27.7688C104.693 27.2786 104.815 26.7952 105.054 26.3669C105.286 25.9555 105.628 25.6167 106.041 25.3884C106.479 25.1499 106.971 25.0287 107.469 25.0364C107.952 25.0253 108.431 25.1433 108.847 25.3783ZM111.791 25.2481H112.551L112.63 26.0337C112.825 25.7187 113.104 25.4647 113.437 25.3003C113.778 25.1253 114.156 25.035 114.54 25.0369C114.966 25.0271 115.386 25.1333 115.756 25.3443C116.099 25.5429 116.38 25.8332 116.567 26.1826C116.764 26.5594 116.862 26.9762 116.855 27.3976V30.6026H116.004V27.4016C116.009 27.1114 115.945 26.8242 115.817 26.5634C115.696 26.3222 115.507 26.1214 115.274 25.9855C115.023 25.8421 114.738 25.7697 114.449 25.7759C114.134 25.7739 113.824 25.8525 113.548 26.0043C113.277 26.1562 113.052 26.3725 112.894 26.6328C112.726 26.9043 112.64 27.2143 112.645 27.5293V30.6071H111.806L111.791 25.2481ZM118.721 30.7814C118.445 30.6392 118.215 30.4224 118.057 30.1559C117.899 29.8765 117.819 29.5593 117.826 29.2381V25.745H116.522V25.0273H117.826V23.3179L118.719 23.1133V25.0278H121.37V25.745H118.716V29.1394C118.703 29.4331 118.806 29.7203 119.004 29.9426C119.198 30.1544 119.48 30.2698 119.772 30.2577C120.077 30.2577 120.372 30.1452 120.595 29.9426C120.846 29.7223 121.005 29.421 121.043 29.0948L121.772 29.3916C121.737 29.6249 121.656 29.849 121.534 30.0507C121.412 30.2524 121.25 30.4276 121.06 30.5661C120.666 30.8635 120.184 31.0217 119.691 31.0159C119.353 31.0189 119.02 30.938 118.721 30.7814ZM53.5457 42.7626H54.5586V35.1654H53.5457V42.7626ZM55.5716 37.4041H56.3338L56.4123 38.1901C56.6072 37.8756 56.8864 37.6221 57.2181 37.4583C57.5603 37.2815 57.9401 37.1901 58.3253 37.1919C58.7512 37.1837 59.1711 37.2906 59.5373 37.5003C59.8837 37.7019 60.1653 37.9926 60.3497 38.339C60.5462 38.7158 60.6439 39.1327 60.6358 39.5536V42.7626H59.7865V39.5536C59.791 39.2638 59.7257 38.9762 59.5965 38.7148C59.4767 38.4726 59.2882 38.2711 59.0546 38.1354C58.802 37.9921 58.5154 37.9196 58.225 37.9257C57.9106 37.9234 57.6009 38.0014 57.325 38.1521C57.054 38.3046 56.8286 38.5219 56.6701 38.7817C56.5033 39.0512 56.4169 39.3627 56.4209 39.6797V42.7606H55.5716V37.4041ZM63.038 42.5205C62.6788 42.3861 62.3548 42.1719 62.0904 41.894C61.8541 41.643 61.7001 41.3258 61.6493 40.9849L62.487 40.8314C62.5083 41.0623 62.606 41.2817 62.7671 41.4599C62.9428 41.6544 63.1707 41.8038 63.4285 41.8935C63.7142 41.9983 64.0201 42.0505 64.328 42.0464C64.5984 42.0498 64.8676 42.0105 65.1257 41.9299C65.3346 41.8658 65.5257 41.754 65.6839 41.6033C65.8146 41.4777 65.8885 41.3115 65.891 41.1378C65.8925 41.0531 65.8732 40.9692 65.8347 40.8937C65.7962 40.8182 65.7397 40.7533 65.6702 40.7048C65.503 40.5836 65.3135 40.4967 65.1126 40.449C64.8285 40.3788 64.5418 40.3196 64.2531 40.2717C63.8503 40.2085 63.4512 40.1231 63.0578 40.016C62.7683 39.9355 62.5023 39.787 62.2819 39.5829C62.1734 39.4743 62.0891 39.3439 62.0343 39.2005C61.9796 39.057 61.9558 38.9036 61.9643 38.7503C61.9628 38.4617 62.0592 38.1812 62.2378 37.9546C62.4348 37.7063 62.6922 37.5128 62.9854 37.3924C63.3237 37.254 63.6865 37.1856 64.052 37.1913C64.4157 37.1863 64.7763 37.2491 65.1126 37.3747C65.4165 37.4871 65.6889 37.6598 65.9108 37.8802C66.1184 38.0848 66.2633 38.3365 66.3296 38.6095L65.5162 38.8111C65.4762 38.535 65.3061 38.2894 65.0508 38.138C64.7477 37.9522 64.3966 37.8597 64.0414 37.8721C63.8254 37.8697 63.6111 37.9102 63.4108 37.9911C63.2362 38.0572 63.0809 38.1661 62.959 38.3076C62.8506 38.4295 62.7909 38.5871 62.7914 38.7503C62.7883 38.8333 62.807 38.9157 62.8457 38.9893C62.8843 39.0629 62.9416 39.1251 63.0117 39.1696C63.1297 39.2568 63.2629 39.3251 63.4068 39.3712C63.5187 39.3971 63.8692 39.4594 64.4552 39.5541C64.8487 39.6214 65.2351 39.7151 65.613 39.8347C65.9103 39.9309 66.1797 40.0879 66.4 40.2935C66.6128 40.5062 66.7252 40.7873 66.713 41.0755C66.7139 41.3908 66.603 41.6963 66.4 41.9375C66.1709 42.2085 65.8765 42.4166 65.5446 42.5423C65.1557 42.694 64.7409 42.7685 64.3235 42.7616C63.8835 42.7642 63.4471 42.6827 63.038 42.5205ZM68.8377 43.0442C68.5698 42.9073 68.3469 42.6964 68.1955 42.4364C68.0436 42.1675 67.9663 41.8629 67.9716 41.5541V38.2018H66.7141V37.5125H67.9716V35.8715L68.8337 35.6719V37.5125H71.3848V38.2018H68.8311V41.4675C68.8198 41.7511 68.9193 42.028 69.1087 42.2394C69.2976 42.442 69.5701 42.5524 69.8517 42.5402C70.1454 42.5413 70.4291 42.4339 70.6438 42.2394C70.8854 42.0267 71.0389 41.736 71.0758 41.4219L71.7788 41.7076C71.7453 41.9321 71.6673 42.1476 71.5493 42.3415C71.4312 42.5354 71.2756 42.7037 71.0915 42.8365C70.7118 43.1235 70.2471 43.2757 69.7712 43.2691C69.4461 43.2732 69.1252 43.1959 68.8377 43.0442ZM72.5147 37.0065H73.5378V42.7626H72.5249L72.5147 37.0065ZM72.496 35.7489C72.3532 35.6253 72.2772 35.4577 72.2858 35.285C72.2792 35.1168 72.3557 34.9542 72.496 34.8352C72.6505 34.7128 72.8441 34.6503 73.041 34.6595C73.2441 34.6554 73.4411 34.7192 73.5885 34.8372C73.7318 34.9552 73.8098 35.1183 73.8042 35.2875C73.8123 35.4607 73.7338 35.6289 73.5885 35.7509C73.4304 35.8722 73.235 35.9344 73.0359 35.9267C72.8404 35.9343 72.6487 35.8712 72.496 35.7489ZM75.9284 43.0523C75.6605 42.9153 75.4376 42.7041 75.2862 42.444C75.1342 42.1748 75.0571 41.8698 75.0628 41.5607V38.2043H73.8047V37.514H75.0628V35.871L75.9238 35.6714V37.514H78.4891V38.2043H75.9218V41.4736C75.9104 41.7575 76.0099 42.0347 76.1994 42.2465C76.3883 42.4491 76.6608 42.5595 76.9424 42.5473C77.2361 42.5484 77.5197 42.441 77.7345 42.2465C77.9743 42.0361 78.1281 41.7447 78.1665 41.428L78.8695 41.7051C78.836 41.9295 78.7582 42.1451 78.6405 42.3392C78.5229 42.5333 78.3678 42.702 78.1842 42.8355C77.8036 43.1224 77.3384 43.2745 76.8618 43.2681C76.5375 43.2749 76.2166 43.2011 75.9284 43.0523ZM80.4791 42.9667C80.1328 42.7709 79.8495 42.4802 79.6626 42.129C79.4662 41.7508 79.3678 41.3294 79.3765 40.9033V37.6978H80.2188V40.9033C80.2132 41.193 80.2795 41.4807 80.4112 41.7415C80.5353 41.9786 80.7252 42.1786 80.9602 42.3194C81.2127 42.4644 81.5003 42.5369 81.7914 42.5291C82.1029 42.5309 82.4096 42.4523 82.6818 42.3007C82.9513 42.1517 83.1774 41.9353 83.3382 41.6727C83.5057 41.4038 83.5922 41.0924 83.5873 40.7757V37.6978H84.4408V43.0569H83.677L83.5873 42.2718C83.3966 42.5889 83.1176 42.8435 82.7846 43.0047C82.4457 43.1773 82.0709 43.2677 81.6906 43.2686C81.2672 43.277 80.8491 43.1728 80.4791 42.9667ZM87.0694 43.0523C86.8025 42.9146 86.5804 42.7035 86.4292 42.444C86.2771 42.1748 86.1998 41.8699 86.2053 41.5607V38.2043H84.9472V37.514H86.2053V35.871L87.0663 35.6714V37.514H89.6271V38.2043H87.0643V41.4736C87.053 41.7575 87.1525 42.0347 87.3419 42.2465C87.5308 42.4491 87.8033 42.5595 88.0849 42.5473C88.3786 42.5473 88.6622 42.44 88.877 42.2465C89.1181 42.0328 89.272 41.742 89.309 41.428L90.012 41.7051C89.9786 41.9298 89.9006 42.1456 89.7825 42.3397C89.6645 42.5338 89.5088 42.7024 89.3247 42.8355C88.945 43.1226 88.4803 43.2748 88.0043 43.2681C87.6794 43.2747 87.3579 43.2004 87.0689 43.0518M92.3529 38.1157C92.0845 38.2524 91.8576 38.454 91.6945 38.6996C91.5205 38.9574 91.4068 39.2509 91.3618 39.5586H95.0514C95.0168 39.2515 94.9142 38.956 94.7511 38.6936C94.5991 38.4492 94.3848 38.2497 94.1302 38.1157C93.8613 37.9769 93.5621 37.9073 93.2595 37.9131C92.9477 37.9081 92.6392 37.9776 92.3595 38.1157H92.3529ZM94.6493 37.5413C95.0461 37.7716 95.3683 38.1113 95.5772 38.5198C95.8041 38.96 95.9221 39.4442 95.9221 39.9344V40.0838C95.9221 40.137 95.918 40.1897 95.9094 40.2419H91.3577C91.3881 40.5822 91.5062 40.9089 91.7006 41.19C91.8946 41.4675 92.1574 41.6897 92.4633 41.8347C92.8065 41.994 93.1815 42.0726 93.5597 42.0645C93.9379 42.0565 94.3092 41.9619 94.6453 41.7881C94.9593 41.6291 95.215 41.3829 95.3797 41.0826L96.0897 41.3576C95.8809 41.7926 95.5357 42.1474 95.1067 42.368C94.6226 42.6215 94.0854 42.7567 93.539 42.7624C92.9927 42.7681 92.4527 42.6443 91.9635 42.401C91.5239 42.1683 91.1573 41.8184 90.9044 41.39C90.6455 40.9454 90.5123 40.4388 90.519 39.9243C90.5111 39.4337 90.633 38.9497 90.8725 38.5214C91.104 38.1102 91.4459 37.7721 91.8596 37.5454C92.2967 37.3054 92.7888 37.1835 93.2874 37.1919C93.7644 37.1846 94.2347 37.3053 94.6493 37.5413ZM98.0782 43.0533C98.2139 42.9763 98.3263 42.8634 98.4038 42.7282C98.4816 42.5845 98.5223 42.4238 98.5223 42.2604C98.5223 42.0971 98.4816 41.9363 98.4038 41.7927C98.3271 41.6549 98.2146 41.5405 98.0782 41.4615C97.9364 41.3824 97.7765 41.3416 97.6142 41.3429C97.4494 41.3395 97.2867 41.3804 97.1432 41.4615C97.0044 41.5374 96.89 41.6514 96.8145 41.7902C96.734 41.934 96.6929 42.0966 96.696 42.2617C96.6935 42.4253 96.7345 42.5858 96.8145 42.7276C96.8915 42.8649 97.0054 42.9778 97.1427 43.0538C97.2875 43.1323 97.4501 43.1723 97.6142 43.1693C97.7763 43.1718 97.9363 43.1318 98.0782 43.0533ZM97.0875 43.1394C96.9363 43.0542 96.8113 42.9291 96.7264 42.7778C96.6373 42.6195 96.5925 42.4402 96.5967 42.2586C96.5939 42.0761 96.6395 41.8961 96.7289 41.737C96.8155 41.5871 96.9401 41.4625 97.0905 41.3764C97.2496 41.2867 97.4296 41.2408 97.6122 41.2432C97.7935 41.2401 97.9723 41.2847 98.1303 41.3733C98.2818 41.4599 98.4064 41.586 98.4925 41.7375C98.5796 41.897 98.6241 42.0768 98.6221 42.2592C98.6246 42.4405 98.5796 42.6188 98.4925 42.7778C98.4069 42.9292 98.2823 43.0538 98.1303 43.1394C97.9722 43.2278 97.7933 43.2725 97.6122 43.2691C97.4289 43.2726 97.2475 43.228 97.0875 43.1394Z" fill="black"/>
<path fill-rule="evenodd" clip-rule="evenodd" d="M97.3044 42.2005V41.8678H97.5997C97.6756 41.8652 97.7516 41.8809 97.8144 41.9134C97.8681 41.9412 97.8995 41.9873 97.897 42.0349C97.9 42.0825 97.8701 42.1281 97.817 42.1554C97.7524 42.1882 97.6806 42.2039 97.6083 42.201L97.3044 42.2005ZM98.1148 42.7455L97.779 42.3165C97.817 42.3109 97.8534 42.3013 97.8879 42.2887C98.0246 42.2421 98.1107 42.1413 98.1056 42.0314C98.1059 41.9786 98.0872 41.9276 98.053 41.8875C98.0118 41.8409 97.959 41.8059 97.9 41.7862C97.8282 41.7606 97.7524 41.7482 97.6762 41.7498H97.1018V42.7521H97.3044V42.3337H97.5612L97.8879 42.7627L98.1148 42.7455Z" fill="black"/>
</svg>
