<svg width="26" height="26" viewBox="0 0 26 26" fill="none" xmlns="http://www.w3.org/2000/svg">
<g clip-path="url(#clip0_449_719)">
<path d="M25.3465 11.9592C25.3364 11.7607 25.1671 11.5974 24.9671 11.5974H20.5846L21.2956 9.97585C21.3354 9.88313 21.3379 9.77882 21.3017 9.68459L20.9378 8.74984C21.1409 8.67526 21.3369 8.58456 21.5249 8.47773L22.4375 9.04211C22.6063 9.13634 22.767 9.11366 22.9192 8.97458L23.8015 8.00507C23.9265 7.86801 23.9346 7.6609 23.8202 7.51477L23.1646 6.67324C23.2447 6.49436 23.3112 6.30942 23.3636 6.12046L24.4102 5.87858C24.5901 5.83726 24.7141 5.67249 24.705 5.48806L24.639 4.18344C24.63 3.99901 24.4894 3.84784 24.3064 3.82466L23.2407 3.68962C23.1696 3.5067 23.085 3.32932 22.9872 3.15951L23.5546 2.256C23.6534 2.09878 23.6247 1.89369 23.4866 1.77024L22.511 0.894448C22.3745 0.771999 22.1699 0.763936 22.0248 0.875803L21.1737 1.52937C20.9923 1.44925 20.8048 1.38273 20.6128 1.33083L20.3704 0.293791C20.3286 0.114401 20.1638 -0.0105679 19.9804 1.41397e-05L18.6662 0.0665298C18.4823 0.0756001 18.3311 0.215686 18.3074 0.3981L18.1709 1.45429C17.9854 1.52534 17.8055 1.60999 17.6332 1.70826L16.7206 1.14388C16.5644 1.04764 16.3624 1.07585 16.2389 1.2114L15.3566 2.18092C15.2316 2.31798 15.2235 2.52509 15.3379 2.67122L15.9935 3.51274C15.9315 3.65182 15.8776 3.79493 15.8323 3.94056L14.0484 3.1585C13.8272 3.08543 13.6599 3.15044 13.5465 3.35452L12.0323 6.80829V0.891928C12.0323 0.399612 11.2704 0.399612 11.2704 0.891928V2.56036C8.66016 2.67072 6.25249 4.04991 4.80679 6.27314C4.54727 6.67224 5.16355 7.12172 5.44523 6.68836C6.74985 4.6813 8.91816 3.43262 11.2699 3.32277V19.4483H8.92118C8.6007 19.4483 8.34018 19.1862 8.34018 18.8637V17.5576C8.34018 17.4175 8.26308 17.2885 8.14012 17.222C5.71634 15.9169 4.22679 13.3923 4.25249 10.6334C4.25904 9.91437 4.37091 9.20033 4.58557 8.51401C4.73221 8.04387 4.00507 7.81661 3.85843 8.28675C3.6221 9.04412 3.49814 9.83274 3.49109 10.6264C3.46337 13.5919 5.02346 16.3125 7.57877 17.7814V18.8632C7.57877 19.473 7.98543 19.989 8.54073 20.1542V21.9587C8.54073 23.1238 9.48858 24.0716 10.6536 24.0716H11.2699V25.4191C11.2699 25.9114 12.0318 25.9114 12.0318 25.4191V16.3029L15.9129 18.0046L15.8257 18.5019C15.6977 18.5453 15.5727 18.5967 15.4513 18.6561L14.7675 18.1794C14.6163 18.0741 14.4107 18.0923 14.2802 18.2228L13.5279 18.9756C13.3974 19.1061 13.3792 19.3117 13.4851 19.4629L13.9623 20.1462C13.9033 20.2676 13.8519 20.3931 13.8086 20.5211L12.9943 20.6647C12.8118 20.697 12.6788 20.8557 12.6793 21.0411L12.6838 22.1094C12.6849 22.2928 12.8159 22.4495 12.9963 22.4828L13.8156 22.6325C13.8605 22.7625 13.9134 22.8889 13.9738 23.0124L13.5032 23.6912C13.3984 23.8423 13.4165 24.0474 13.547 24.1774L14.3054 24.9353C14.4359 25.0653 14.6405 25.084 14.7917 24.9786L15.4699 24.5075C15.5929 24.568 15.7199 24.6209 15.8499 24.6652L16.0001 25.4846C16.0333 25.665 16.19 25.796 16.3734 25.7965L17.4417 25.8H17.4427C17.6277 25.8 17.7859 25.667 17.8176 25.4851L17.9608 24.6703C18.0887 24.6269 18.2137 24.5755 18.3352 24.5161L19.019 24.9928C19.1701 25.0986 19.3757 25.0799 19.5062 24.9494L20.2586 24.1966C20.3891 24.0661 20.4072 23.8605 20.3014 23.7093L19.8242 23.026C19.8832 22.9046 19.9346 22.7791 19.9779 22.6511L20.7922 22.5075C20.9746 22.4752 21.1076 22.3165 21.1071 22.1311L21.1026 21.0628C21.1016 20.8794 20.9706 20.7227 20.7902 20.6894L20.0202 20.5488C21.1102 20.5438 22.2172 20.5438 23.2936 20.5438C23.4196 20.5675 23.536 20.5297 23.6428 20.4309L25.2437 18.7287C25.3102 18.6582 25.347 18.5649 25.347 18.4677V11.9784C25.347 11.9718 25.346 11.9658 25.3455 11.9592H25.3465ZM24.0857 12.3593L23.218 13.282H17.7536L18.6214 12.3593H24.0857ZM19.7874 5.79796C19.7501 5.70423 19.6776 5.62865 19.5853 5.58733L18.1396 4.95341C18.2087 4.25903 18.7826 3.69869 19.5067 3.6619C20.3044 3.6231 20.9837 4.23131 21.0235 5.02043C21.0562 5.66745 20.6451 6.24896 20.0419 6.45102L19.7874 5.79746V5.79796ZM19.4105 6.92872L19.8217 7.98491L20.2571 9.10207L18.7453 8.4344L19.4105 6.92872ZM16.7398 3.23257L16.1356 2.45706L16.5891 1.9587L17.4317 2.47974C17.5576 2.55734 17.7169 2.55532 17.8408 2.47419C18.0857 2.31345 18.3523 2.18797 18.632 2.1008C18.7741 2.05646 18.8774 1.9335 18.8965 1.78586L19.0225 0.811807L19.7012 0.777541L19.9245 1.73396C19.9582 1.87908 20.0736 1.99095 20.2193 2.02068C20.5065 2.07913 20.7841 2.17739 21.0442 2.31244C21.1757 2.38047 21.3344 2.36636 21.4518 2.27666L22.2379 1.67298L22.7393 2.12297L22.2167 2.95542C22.1371 3.08241 22.1391 3.24416 22.2218 3.36863C22.383 3.61101 22.509 3.87505 22.5967 4.15271C22.6415 4.29481 22.7645 4.3976 22.9121 4.41625L23.8948 4.54071L23.9285 5.20839L22.9635 5.43112C22.8184 5.46437 22.7065 5.57926 22.6763 5.72489C22.6174 6.0101 22.5181 6.28524 22.382 6.54273C22.312 6.67526 22.3266 6.83651 22.4183 6.95442L23.0225 7.72994L22.569 8.2283L21.7264 7.70726C21.6005 7.62966 21.4412 7.63167 21.3173 7.7123C21.1122 7.84684 20.8915 7.95669 20.6607 8.04034L20.3185 7.16153C21.2215 6.84205 21.8338 5.96123 21.7844 4.98214C21.7234 3.77326 20.6844 2.84003 19.4684 2.90151C18.4485 2.9529 17.6231 3.68861 17.4196 4.63797L16.5342 4.24946C16.5937 4.03983 16.6748 3.83726 16.7761 3.64477C16.8461 3.51224 16.832 3.35099 16.7398 3.23308V3.23257ZM10.6536 23.3102C9.90833 23.3102 9.30213 22.704 9.30213 21.9587V20.2097H11.2699V23.3097H10.6536V23.3102ZM12.0318 8.706L14.0908 4.0101L18.9298 6.13155L17.8947 8.47471C17.8207 8.69592 17.8857 8.86322 18.0892 8.9771L20.445 10.0177L19.7521 11.5974H18.4561C18.3513 11.5974 18.2505 11.6408 18.1784 11.7173L16.5775 13.4195C16.4989 13.5032 16.4576 13.7254 16.4677 13.8453V17.3727H16.3679L12.0313 15.4709V8.7055L12.0318 8.706ZM20.3442 21.8136L19.6141 21.9426C19.4664 21.9688 19.348 22.0787 19.3112 22.2238C19.2543 22.4475 19.1666 22.6617 19.0502 22.8607C18.9751 22.9892 18.9812 23.1495 19.0663 23.2714L19.4946 23.8847L19.1933 24.1865L18.5795 23.7587C18.4576 23.6735 18.2974 23.6675 18.1689 23.7426C17.9698 23.8595 17.7557 23.9471 17.5324 24.0041C17.3873 24.0409 17.2775 24.1598 17.2518 24.3074L17.1238 25.0381L16.6929 25.0366L16.5579 24.2999C16.5312 24.1543 16.4228 24.0373 16.2797 24.0001C16.055 23.9416 15.8393 23.8519 15.6393 23.7335C15.5113 23.6579 15.3505 23.6635 15.2281 23.7486L14.6188 24.1714L14.3105 23.8635L14.7327 23.2543C14.8174 23.1318 14.8234 22.9716 14.7473 22.8431C14.6289 22.643 14.5392 22.4279 14.4803 22.2031C14.443 22.06 14.3256 21.9517 14.1804 21.925L13.4437 21.7904L13.4417 21.3596L14.1719 21.2306C14.3195 21.2044 14.4379 21.0945 14.4747 20.9494C14.5317 20.7257 14.6194 20.5115 14.7358 20.3125C14.8108 20.184 14.8048 20.0237 14.7196 19.9018L14.2913 19.2885L14.5926 18.9867L15.2064 19.4145C15.3283 19.4997 15.4886 19.5057 15.6171 19.4306C15.8161 19.3137 16.0303 19.2261 16.2535 19.1691C16.3986 19.1323 16.5085 19.0134 16.5342 18.8658L16.6622 18.1351L17.093 18.1366L17.2281 18.8733C17.2548 19.0189 17.3631 19.1359 17.5062 19.1731C17.731 19.2316 17.9466 19.3213 18.1467 19.4397C18.2747 19.5153 18.4354 19.5098 18.5579 19.4246L19.1671 19.0018L19.4755 19.3097L19.0532 19.9189C18.9686 20.0414 18.9625 20.2016 19.0386 20.3301C19.157 20.5302 19.2467 20.7453 19.3057 20.9701C19.343 21.1132 19.4604 21.2215 19.6055 21.2482L20.3422 21.3828L20.3442 21.8136ZM23.7476 19.2084C23.7476 18.8335 23.7466 17.9068 23.7466 17.9068C23.7466 17.4145 22.9847 17.4145 22.9847 17.9068V19.7829C22.0232 19.7829 21.0411 19.7839 20.0716 19.7879L20.2833 19.482C20.3881 19.3309 20.3699 19.1258 20.2394 18.9958L19.481 18.2379C19.3505 18.1079 19.1459 18.0892 18.9948 18.1946L18.3165 18.6657C18.1936 18.6052 18.0666 18.5523 17.9366 18.508L17.7864 17.6886C17.7385 17.4271 17.4624 17.3425 17.2351 17.3757C17.2291 16.9529 17.2749 14.7408 17.2351 14.062H22.9847V15.9184C22.9847 16.4107 23.7466 16.4107 23.7466 15.9184C23.7466 15.9184 23.7476 14.4863 23.7476 13.8307L24.5856 12.9398V18.3175L23.7476 19.2084Z" fill="#F48632"/>
<path d="M16.8924 19.8559H16.8869C16.4273 19.8559 15.9955 20.0343 15.6715 20.3588C15.346 20.6849 15.1676 21.1182 15.1696 21.5803C15.1716 22.0414 15.3525 22.4747 15.6795 22.8013C16.0066 23.1278 16.4404 23.3087 16.901 23.3102H16.9066C17.3661 23.3102 17.798 23.1318 18.122 22.8073C18.4475 22.4813 18.6259 22.0479 18.6239 21.5858C18.6219 21.1253 18.441 20.6914 18.1139 20.3649C17.7869 20.0384 17.353 19.8575 16.8924 19.8559ZM17.5833 22.2691C17.4024 22.45 17.1605 22.5518 16.9035 22.5488C16.645 22.5478 16.4016 22.4465 16.2177 22.2631C16.0338 22.0797 15.932 21.8363 15.931 21.5778C15.93 21.3203 16.0293 21.0789 16.2102 20.8975C16.3901 20.7166 16.6349 20.6158 16.8899 20.6178C17.1484 20.6189 17.3918 20.7201 17.5757 20.9036C17.7597 21.087 17.8615 21.3304 17.8625 21.5889C17.8635 21.8464 17.7642 22.0877 17.5833 22.2691ZM4.93828 4.384C5.25826 4.384 5.43362 3.95971 5.20787 3.73396L3.9093 2.43489C3.5611 2.08669 3.02243 2.62537 3.37063 2.97357L4.66919 4.27264C4.74075 4.34419 4.8375 4.38451 4.93878 4.384H4.93828ZM2.20559 10.3845H0.369359C-0.122957 10.3845 -0.122957 11.1464 0.369359 11.1464H2.2061C2.69841 11.1464 2.69841 10.3845 2.2061 10.3845H2.20559ZM4.78509 17.2104L3.48652 18.5095C3.13832 18.8577 3.677 19.3964 4.0252 19.0482L5.32377 17.7491C5.67197 17.4009 5.13329 16.8622 4.78509 17.2104Z" fill="#F48632"/>
</g>
<defs>
<clipPath id="clip0_449_719">
<rect width="25.348" height="25.8" fill="white"/>
</clipPath>
</defs>
</svg>
