<svg width="136" height="54" viewBox="0 0 136 54" fill="none" xmlns="http://www.w3.org/2000/svg">
<rect width="135.415" height="54" fill="white"/>
<path fill-rule="evenodd" clip-rule="evenodd" d="M64.3375 11.9338C63.5172 12.3841 62.8022 13.0038 62.2397 13.7516C61.6772 14.4994 61.2802 15.3582 61.075 16.2712L64.0266 23.2057C65.0554 23.8413 66.2409 24.1781 67.4502 24.1782C67.5071 24.1782 67.5678 24.1763 67.6227 24.1763C68.1403 24.1687 68.6559 24.0948 69.1564 23.9583L64.3394 11.9357L64.3375 11.9338ZM89.0272 5.62488H88.3485C79.9923 6.25236 72.2881 10.4324 67.2019 17.092C67.7858 18.3432 69.7668 23.3479 69.9128 23.6929C74.4378 13.8826 81.1638 7.93006 89.0253 5.62488H89.0272Z" fill="#50B748"/>
<path fill-rule="evenodd" clip-rule="evenodd" d="M67.4661 6.21662C70.2737 6.21662 72.8462 7.22324 74.8442 8.89526C74.431 9.14549 74.0215 9.4052 73.6196 9.67439C71.9173 8.35308 69.7827 7.56447 67.4661 7.56447C61.8984 7.56447 57.3828 12.1085 57.3828 17.7141C57.3828 23.3197 61.8965 27.8656 67.4661 27.8656C73.0338 27.8656 77.5494 23.3216 77.5494 17.7141C77.5494 16.5937 77.3693 15.517 77.0357 14.5104C77.3864 14.1198 77.7466 13.7388 78.1143 13.3691C78.6622 14.7094 78.9636 16.1767 78.9636 17.7141C78.9636 24.0647 73.8149 29.2135 67.4642 29.2135C61.1136 29.2135 55.9648 24.0647 55.9648 17.7141C55.9648 11.3635 61.1136 6.21472 67.4642 6.21472L67.4661 6.21662Z" fill="#006EB7"/>
<path fill-rule="evenodd" clip-rule="evenodd" d="M67.4654 8.62226C69.4199 8.62226 71.2284 9.24784 72.7071 10.3094C72.3526 10.5673 72.0019 10.8308 71.6588 11.1037C70.4087 10.298 68.9527 9.87013 67.4654 9.87153C63.1622 9.87153 59.676 13.3824 59.676 17.7141C59.676 22.0458 63.1641 25.5566 67.4654 25.5566C71.7687 25.5566 75.2549 22.0458 75.2549 17.7141C75.2549 17.3861 75.2341 17.0639 75.1961 16.7473C75.526 16.3075 75.8672 15.8771 76.216 15.4563C76.3999 16.1786 76.4966 16.935 76.4966 17.7122C76.4966 22.7339 72.453 26.804 67.4654 26.804C62.4778 26.804 58.4343 22.7339 58.4343 17.7122C58.4343 12.6905 62.4778 8.62036 67.4654 8.62036V8.62226ZM23.7996 42.9858C23.7996 43.1318 23.8281 43.3005 23.883 43.4958C23.938 43.6891 24.0461 43.8749 24.2091 44.0493C24.3702 44.2237 24.6015 44.3716 24.9048 44.4929C25.2081 44.6142 25.6062 44.6749 26.0991 44.6749C26.3721 44.6749 26.6413 44.6559 26.9086 44.6161C27.1759 44.5763 27.4166 44.51 27.6346 44.4114C27.8508 44.3147 28.0271 44.1782 28.1636 44.0038C28.3 43.8294 28.3683 43.6019 28.3683 43.3195C28.3683 43.1147 28.3209 42.946 28.2242 42.8095C28.1275 42.673 27.9929 42.5593 27.8166 42.4664C27.6403 42.3735 27.4318 42.2939 27.1892 42.2256C26.9465 42.1574 26.6849 42.0891 26.4024 42.0228L25.2385 41.7612C24.7949 41.6645 24.3664 41.5583 23.9532 41.4408C23.5399 41.3252 23.174 41.1565 22.8575 40.9384C22.5409 40.7204 22.2831 40.4342 22.0859 40.0797C21.8887 39.7252 21.7902 39.2626 21.7902 38.6901C21.7902 38.4968 21.8129 38.2826 21.8584 38.0494C21.9039 37.8162 21.9816 37.5811 22.0935 37.3442C22.2053 37.1053 22.3589 36.874 22.5541 36.6447C22.7513 36.4172 23.0053 36.2181 23.3181 36.0475C23.6309 35.8769 24.0044 35.7385 24.4366 35.6323C24.8707 35.5262 25.3788 35.4712 25.9645 35.4712C26.7911 35.4712 27.4773 35.5887 28.0214 35.82C28.5654 36.0532 28.9996 36.3395 29.3218 36.6788C29.6441 37.0181 29.8716 37.3859 30.0024 37.7783C30.1332 38.1707 30.1995 38.529 30.1995 38.8494H28.0233C28.0024 38.7318 27.9702 38.584 27.9247 38.4058C27.8792 38.2257 27.7806 38.0532 27.629 37.8882C27.4773 37.7233 27.2593 37.5792 26.9711 37.4579C26.683 37.3366 26.2925 37.2759 25.7996 37.2759C25.5873 37.2759 25.3693 37.2987 25.1418 37.3423C24.9143 37.3859 24.7115 37.456 24.5295 37.5527C24.3475 37.6494 24.1996 37.7783 24.084 37.9394C23.9683 38.0987 23.9096 38.2958 23.9096 38.529C23.9096 38.7337 23.9475 38.9006 24.0233 39.0314C24.0991 39.1622 24.1939 39.2664 24.3115 39.3442C24.4271 39.4219 24.5541 39.4806 24.6887 39.5186C24.8252 39.5584 24.9484 39.5906 25.0584 39.6209L27.7048 40.2465C28.0782 40.3337 28.4346 40.4399 28.7778 40.5669C29.1209 40.692 29.4223 40.8626 29.6858 41.0768C29.9474 41.291 30.1559 41.5564 30.3133 41.8768C30.4687 42.1972 30.5484 42.5896 30.5484 43.056C30.5484 43.5811 30.4649 44.0285 30.2981 44.4019C30.1313 44.7754 29.9152 45.0882 29.6479 45.3403C29.3806 45.5924 29.0868 45.7934 28.7626 45.945C28.4403 46.0948 28.12 46.2104 27.8034 46.2881C27.4868 46.3659 27.1911 46.4171 26.9181 46.4417C26.6451 46.4663 26.429 46.4777 26.2678 46.4777C25.2802 46.4777 24.4821 46.3564 23.8717 46.1137C23.2612 45.8711 22.7911 45.5735 22.4575 45.219C22.1238 44.8645 21.9039 44.4834 21.7921 44.0758C21.6802 43.6683 21.6252 43.3043 21.6252 42.9839H23.8034L23.7996 42.9858ZM73.5279 46.2028H71.4104V37.4655H71.3801L69.3536 46.2028H67.1299L65.1489 37.4655H65.1185V46.2028H63.001V35.748H66.3128L68.2787 43.9886H68.309L70.2445 35.748H73.526V46.2028H73.5279ZM61.2077 42.5479C61.2077 43.2342 61.1034 43.8294 60.8968 44.3242C60.6902 44.819 60.3925 45.2284 60.0058 45.5469C59.6191 45.8673 59.1489 46.1043 58.5992 46.254C58.0494 46.4038 57.4333 46.4796 56.7471 46.4796C56.495 46.4796 56.2201 46.4626 55.9225 46.4284C55.6248 46.3943 55.3215 46.328 55.0144 46.2313C54.7073 46.1346 54.404 46.0057 54.1083 45.8445C53.8106 45.6853 53.5395 45.473 53.2988 45.2114C53.0068 44.893 52.7921 44.5115 52.6713 44.0967C52.5462 43.6759 52.4514 43.2019 52.4514 42.6768V35.7461H54.7642V42.5308C54.7642 42.8986 54.8154 43.2152 54.9158 43.4768C55.0163 43.7384 55.1566 43.9564 55.331 44.1251C55.5073 44.2939 55.7139 44.4228 55.9509 44.5043C56.1878 44.5858 56.4381 44.6275 56.6997 44.6275C57.4864 44.6275 58.0475 44.455 58.385 44.11C58.7224 43.7649 58.8911 43.2721 58.8911 42.6313V35.7442H61.2039V42.5441L61.2077 42.5479ZM47.1036 40.3489C47.6989 40.3489 48.1387 40.2427 48.4268 40.0285C48.715 39.8143 48.8571 39.4465 48.8571 38.9214C48.8571 38.7849 48.8363 38.6371 48.7965 38.4778C48.7567 38.3186 48.677 38.1688 48.5614 38.0342C48.4458 37.8996 48.2846 37.784 48.078 37.6911C47.8714 37.5982 47.6003 37.5527 47.2685 37.5527H44.442V40.3489H47.1036ZM42.2203 35.748H47.7083C48.4344 35.748 49.0183 35.8598 49.4619 36.0835C49.9055 36.3072 50.2505 36.5764 50.4969 36.8911C50.7434 37.2058 50.9102 37.5319 50.9955 37.8674C51.0808 38.201 51.1244 38.4816 51.1244 38.7053C51.1244 39.2873 50.9803 39.8048 50.6941 40.256C50.4078 40.7072 49.9908 41.02 49.4467 41.1944C49.6685 41.291 49.8657 41.3915 50.0363 41.4939C50.2069 41.5963 50.351 41.7422 50.4666 41.9299C50.5822 42.1176 50.6713 42.364 50.732 42.6654C50.7927 42.9669 50.823 43.3593 50.823 43.8446C50.823 44.2237 50.8268 44.5384 50.8306 44.7905C50.8344 45.0427 50.8533 45.2455 50.8836 45.3953C50.914 45.545 50.9614 45.6626 51.0277 45.7441C51.0922 45.8256 51.187 45.8863 51.3083 45.9261V46.2028H48.7984C48.7169 45.9507 48.6562 45.6701 48.6164 45.3649C48.5766 45.0597 48.5557 44.6351 48.5557 44.091C48.5557 43.7327 48.5424 43.4275 48.5178 43.1811C48.4932 42.9346 48.4211 42.7299 48.3055 42.5688C48.1898 42.4095 48.0135 42.292 47.7766 42.2199C47.5396 42.1479 47.2079 42.11 46.787 42.11H44.4439V46.2009H42.2203V35.7461V35.748ZM38.789 39.1697C38.7378 39.0143 38.6753 38.8323 38.5994 38.6238C38.5236 38.4153 38.3985 38.2181 38.2222 38.0342C38.0459 37.8503 37.8108 37.6911 37.5189 37.5603C37.2269 37.4295 36.8478 37.3631 36.3853 37.3631C36.1123 37.3631 35.8203 37.4143 35.5075 37.5167C35.1947 37.6191 34.9028 37.8048 34.6317 38.0778C34.3587 38.3489 34.135 38.7243 33.9587 39.1982C33.7824 39.674 33.6933 40.2806 33.6933 41.0181C33.6933 41.4844 33.7445 41.9337 33.845 42.3659C33.9455 42.7981 34.1047 43.1792 34.3208 43.509C34.5369 43.8389 34.8156 44.1005 35.153 44.2958C35.4905 44.4891 35.9018 44.5877 36.3853 44.5877C37.0203 44.5877 37.5454 44.4209 37.9568 44.0853C38.3701 43.7498 38.6468 43.2626 38.789 42.6218H41.0563C40.9444 43.1943 40.7643 43.7157 40.5122 44.1877C40.2601 44.6578 39.9378 45.0635 39.5454 45.4028C39.153 45.7422 38.6885 46.0076 38.1539 46.1972C37.6194 46.3867 37.0146 46.4815 36.3398 46.4815C35.6137 46.4815 34.9483 46.364 34.3436 46.1327C33.7388 45.8995 33.2175 45.5526 32.7796 45.0919C32.3417 44.6313 31.9986 44.0569 31.7521 43.3744C31.5057 42.6901 31.3825 41.8958 31.3825 40.9934C31.3825 40.0816 31.5114 39.2797 31.7673 38.5916C32.0251 37.9015 32.3777 37.3271 32.8251 36.8665C33.2725 36.4058 33.8033 36.0589 34.4118 35.8257C35.0222 35.5925 35.6744 35.4769 36.3701 35.4769C37.1871 35.4769 37.8829 35.5982 38.4573 35.8409C39.0317 36.0835 39.5075 36.3868 39.8866 36.7508C40.2639 37.1148 40.5463 37.5129 40.734 37.9451C40.9198 38.3773 41.0297 38.7868 41.0601 39.1754H38.7928L38.789 39.1697Z" fill="#006EB7"/>
<path fill-rule="evenodd" clip-rule="evenodd" d="M84.3468 35.7231H86.3809V37.7572H84.3468V35.7231ZM80.3943 40.779C80.3753 40.6558 80.3431 40.5345 80.2995 40.4169C80.2559 40.2994 80.1858 40.1913 80.0891 40.0965C79.9924 40.0018 79.8597 39.9259 79.6891 39.8691C79.5204 39.8122 79.2986 39.7838 79.0275 39.7838C78.7469 39.7838 78.5232 39.8065 78.3583 39.8539C78.1934 39.9013 78.0682 39.9601 77.981 40.0321C77.8938 40.1041 77.8389 40.1819 77.8142 40.2672C77.7896 40.3525 77.7782 40.4378 77.7782 40.5231C77.7782 40.7221 77.8976 40.8738 78.1346 40.9781C78.3716 41.0823 78.6692 41.1714 79.0275 41.2472C79.3858 41.3231 79.7763 41.4008 80.1971 41.4823C80.618 41.5619 81.0085 41.6852 81.3668 41.852C81.7251 42.0169 82.0227 42.2406 82.2597 42.5193C82.4966 42.7979 82.6161 43.1695 82.6161 43.6339C82.6161 44.1837 82.4985 44.6273 82.2597 44.9685C82.0227 45.3098 81.7289 45.5714 81.3801 45.7571C81.0312 45.941 80.6616 46.068 80.2692 46.1325C79.8767 46.1988 79.5298 46.2311 79.2303 46.2311C78.7943 46.2311 78.3564 46.1894 77.9147 46.1041C77.4749 46.0187 77.0787 45.8766 76.7299 45.6775C76.3811 45.4785 76.0929 45.2112 75.8654 44.8756C75.6379 44.5401 75.5185 44.1211 75.509 43.6188H77.6019C77.6019 43.941 77.7232 44.2064 77.9659 44.415C78.2085 44.6235 78.6483 44.7278 79.2872 44.7278C79.5488 44.7278 79.7649 44.6993 79.9336 44.6425C80.1023 44.5856 80.2331 44.5192 80.326 44.4434C80.4189 44.3676 80.4834 44.2842 80.5213 44.1951C80.5592 44.1041 80.5801 44.0226 80.5801 43.9467C80.5801 43.7382 80.4606 43.579 80.2237 43.4709C79.9867 43.361 79.691 43.27 79.3365 43.1941C78.982 43.1183 78.5971 43.0406 78.182 42.9591C77.7649 42.8776 77.3801 42.7581 77.0275 42.597C76.673 42.4359 76.3792 42.216 76.1422 41.9373C75.9052 41.6586 75.7858 41.2814 75.7858 40.8074C75.7858 40.5326 75.8351 40.2463 75.9318 39.9487C76.0285 39.6511 76.1991 39.3781 76.4398 39.1316C76.6825 38.8852 77.0047 38.6823 77.4066 38.5212C77.8085 38.3601 78.309 38.2805 78.9099 38.2805C79.2872 38.2805 79.672 38.3108 80.0644 38.3733C80.4568 38.434 80.817 38.5553 81.1469 38.7354C81.4767 38.9155 81.7554 39.1676 81.9829 39.4956C82.2104 39.8217 82.3431 40.2501 82.3829 40.7809H80.3924L80.3943 40.779ZM110.705 45.905C110.462 46.6064 110.254 47.1638 110.079 47.5808C109.905 47.9979 109.717 48.3163 109.512 48.54C109.31 48.7618 109.069 48.9059 108.794 48.9723C108.517 49.0386 108.157 49.0727 107.711 49.0727C107.577 49.0727 107.425 49.0708 107.26 49.0652C107.095 49.0595 106.94 49.0538 106.796 49.0443V47.4538C106.845 47.4633 106.9 47.4709 106.963 47.4747C107.025 47.4803 107.101 47.4822 107.188 47.4822C107.372 47.4822 107.537 47.4728 107.683 47.4538C107.829 47.4348 107.954 47.3856 108.06 47.304C108.166 47.2244 108.259 47.1069 108.337 46.9552C108.415 46.8036 108.477 46.6007 108.527 46.3448L105.679 38.4776H107.947L109.603 44.0453H109.632L111.215 38.4776H113.364L110.705 45.905ZM99.4594 42.3126C99.4594 42.5401 99.486 42.7866 99.5391 43.052C99.5921 43.3174 99.6812 43.5638 99.8083 43.7913C99.9334 44.0188 100.104 44.2102 100.316 44.3657C100.529 44.5211 100.8 44.6008 101.13 44.6008C101.45 44.6008 101.723 44.5382 101.95 44.4169C102.178 44.2937 102.364 44.1325 102.51 43.9335C102.656 43.7344 102.762 43.505 102.83 43.2453C102.898 42.9856 102.932 42.7126 102.932 42.4283C102.932 42.125 102.906 41.8292 102.853 41.5411C102.8 41.2529 102.707 40.9932 102.576 40.7676C102.445 40.5401 102.269 40.3563 102.045 40.2141C101.821 40.0719 101.537 40.0018 101.188 40.0018C100.868 40.0018 100.597 40.0662 100.375 40.1932C100.155 40.3181 99.9701 40.496 99.8367 40.7108C99.7021 40.9288 99.6035 41.1771 99.5466 41.4558C99.4879 41.7344 99.4594 42.0207 99.4594 42.3145V42.3126ZM104.879 46.0339H102.889V45.0823H102.86C102.608 45.5088 102.278 45.8064 101.873 45.977C101.465 46.1477 101.05 46.233 100.623 46.233C100.051 46.233 99.5599 46.1192 99.1485 45.8917C98.7372 45.6643 98.3997 45.3609 98.1381 44.9837C97.8765 44.6045 97.6832 44.1723 97.5562 43.6851C97.431 43.1979 97.3666 42.6937 97.3666 42.1723C97.3666 41.5183 97.4538 40.9477 97.6282 40.4605C97.8026 39.9733 98.0377 39.5676 98.3334 39.2454C98.6291 38.9231 98.9704 38.6823 99.3571 38.5212C99.7438 38.3601 100.151 38.2805 100.578 38.2805C100.908 38.2805 101.192 38.3184 101.435 38.3942C101.677 38.47 101.888 38.5667 102.066 38.6861C102.244 38.8037 102.396 38.9326 102.517 39.0691C102.639 39.2056 102.737 39.3364 102.815 39.4596H102.843V35.8388H104.877V46.0358L104.879 46.0339ZM95.9145 46.0339H93.9676V44.9685H93.9391C93.706 45.3761 93.3913 45.6889 92.9951 45.905C92.5989 46.123 92.1287 46.2311 91.5847 46.2311C91.2074 46.2311 90.8548 46.1761 90.5306 46.068C90.2065 45.9581 89.9278 45.7913 89.6946 45.5638C89.4615 45.3363 89.2814 45.0481 89.1506 44.6974C89.0198 44.3467 88.9553 43.9297 88.9553 43.4482V38.4776H90.9894V43.1638C90.9894 43.4576 91.0273 43.6946 91.105 43.8747C91.1828 44.0548 91.2832 44.1951 91.4103 44.2937C91.5354 44.3941 91.6794 44.4624 91.8387 44.5003C91.9979 44.5382 92.1553 44.5572 92.3107 44.5572C92.4756 44.5572 92.65 44.5306 92.8339 44.4794C93.0178 44.4282 93.1884 44.3354 93.342 44.2027C93.4974 44.07 93.6244 43.8956 93.7268 43.6775C93.8292 43.4595 93.8785 43.1809 93.8785 42.8396V38.4795H95.9126V46.0339H95.9145ZM86.3828 38.4795H87.6473V39.8994H86.3828V44.0036C86.3828 44.1173 86.3885 44.2121 86.398 44.288C86.4075 44.3638 86.4397 44.4245 86.4928 44.4718C86.5459 44.5192 86.6312 44.5553 86.7468 44.578C86.8624 44.6008 87.0236 44.614 87.2264 44.614C87.2947 44.614 87.361 44.6121 87.4293 44.6064C87.4975 44.6008 87.5695 44.5951 87.6473 44.5856V46.0908C87.4823 46.1003 87.3231 46.1078 87.1677 46.1116C87.0122 46.1173 86.853 46.1192 86.688 46.1192H86.4264C85.9904 46.1192 85.6378 46.0794 85.3648 45.9979C85.0937 45.9183 84.8833 45.8064 84.7336 45.6643C84.5838 45.5221 84.4814 45.3515 84.4284 45.1524C84.3753 44.9534 84.3487 44.7316 84.3487 44.4851V39.8975H83.3023V38.4776H86.3828V38.4795Z" fill="#50B748"/>
</svg>
