<svg width="66" height="54" viewBox="0 0 66 54" fill="none" xmlns="http://www.w3.org/2000/svg">
<path d="M36.375 40.9375C38.5833 40.4375 40.5417 39.7083 42.25 38.75C43 38.3333 43.7292 37.8542 44.4375 37.3125C45.1042 36.8125 45.7083 36.2083 46.25 35.5C46.7917 34.8333 47.2292 34.0625 47.5625 33.1875C47.8958 32.3542 48.0625 31.4375 48.0625 30.4375H34.9375V0H65.6875V21.0625C65.6875 27.3958 65.0208 32.625 63.6875 36.75C62.3542 40.9167 60.4375 44.2292 57.9375 46.6875C55.3958 49.1458 52.3125 50.875 48.6875 51.875C45.0625 52.875 40.9583 53.375 36.375 53.375V40.9375ZM1.5625 40.9375C3.77083 40.4375 5.72917 39.7083 7.4375 38.75C8.1875 38.3333 8.91667 37.8542 9.625 37.3125C10.2917 36.8125 10.8958 36.2083 11.4375 35.5C11.9792 34.8333 12.4167 34.0625 12.75 33.1875C13.0833 32.3542 13.25 31.4375 13.25 30.4375H0V0H30.875V21.0625C30.875 27.3958 30.2083 32.625 28.875 36.75C27.5417 40.9167 25.6042 44.2292 23.0625 46.6875C20.5208 49.1458 17.4583 50.875 13.875 51.875C10.25 52.875 6.14583 53.375 1.5625 53.375V40.9375Z" fill="#F48632"/>
</svg>
