<svg width="66" height="54" viewBox="0 0 66 54" fill="none" xmlns="http://www.w3.org/2000/svg">
<path d="M29.3125 12.4375C27.1042 12.9375 25.1458 13.6667 23.4375 14.625C22.6875 15.0417 21.9583 15.5208 21.25 16.0625C20.5833 16.5625 19.9792 17.1667 19.4375 17.875C18.8958 18.5417 18.4583 19.3125 18.125 20.1875C17.7917 21.0208 17.625 21.9375 17.625 22.9375H30.75V53.375H0V32.3125C0 25.9792 0.666667 20.75 2 16.625C3.33333 12.4583 5.25 9.14583 7.75 6.6875C10.2917 4.22917 13.375 2.5 17 1.5C20.625 0.5 24.7292 0 29.3125 0V12.4375ZM64.125 12.4375C61.9167 12.9375 59.9583 13.6667 58.25 14.625C57.5 15.0417 56.7708 15.5208 56.0625 16.0625C55.3958 16.5625 54.7917 17.1667 54.25 17.875C53.7083 18.5417 53.2708 19.3125 52.9375 20.1875C52.6042 21.0208 52.4375 21.9375 52.4375 22.9375H65.6875V53.375H34.8125V32.3125C34.8125 25.9792 35.4792 20.75 36.8125 16.625C38.1458 12.4583 40.0833 9.14583 42.625 6.6875C45.1667 4.22917 48.2292 2.5 51.8125 1.5C55.4375 0.5 59.5417 0 64.125 0V12.4375Z" fill="#F48632"/>
</svg>
