<svg width="28" height="18" viewBox="0 0 28 18" fill="none" xmlns="http://www.w3.org/2000/svg">
<path d="M12.7896 14.5791L11.7257 16.091V16.0915L11.6023 16.2675C11.4453 16.4916 11.2243 16.6317 10.9444 16.6036C10.8018 16.5892 10.6526 16.5292 10.5354 16.4467C10.4183 16.3641 10.3118 16.2445 10.2501 16.1152C10.1354 15.8745 10.1816 15.6302 10.3214 15.415V15.4131L11.9537 13.0931L11.9545 13.0922C12.1114 12.8737 12.3304 12.7374 12.6064 12.7649C12.749 12.7792 12.8976 12.8391 13.0148 12.9216C13.1321 13.0042 13.2386 13.1241 13.3002 13.2535C13.4208 13.507 13.3636 13.7631 13.2064 13.9865L12.7896 14.5791ZM11.4402 12.5017C11.5971 12.2783 11.6543 12.0222 11.5338 11.7688C11.4723 11.6395 11.3657 11.5194 11.2485 11.4371C11.1312 11.3546 10.9825 11.2948 10.8399 11.2806C10.5601 11.2526 10.3391 11.3927 10.1818 11.6165L9.76082 12.2152H9.70245V12.2972L8.57551 13.8996L8.23513 14.3838C8.07751 14.6081 8.02351 14.8598 8.14126 15.1139C8.26376 15.3783 8.54795 15.5784 8.8382 15.6042C9.11701 15.629 9.33557 15.4933 9.4932 15.2693L9.72138 14.9451L11.3268 12.663L11.4402 12.5017ZM7.32688 1.82999L5.11576 0.553239C5.02362 0.499965 4.91907 0.471899 4.81263 0.471864C4.75807 0.471864 4.70432 0.479114 4.65163 0.493176C4.49357 0.535301 4.36057 0.635864 4.2787 0.777552L0.398009 7.4988C0.229384 7.79093 0.330697 8.16718 0.622634 8.3358L2.83376 9.61255C2.90347 9.65274 2.98045 9.67874 3.06026 9.68904C3.14007 9.69934 3.22113 9.69373 3.29876 9.67255C3.45601 9.63018 3.58926 9.52936 3.67082 9.38824L7.55151 2.66699C7.72038 2.37443 7.61932 1.99886 7.32688 1.82999ZM9.12526 11.8453V11.7963C9.26488 11.581 9.31057 11.3369 9.1957 11.0964C9.13401 10.9673 9.02738 10.8475 8.9102 10.7652C8.79295 10.6828 8.6442 10.6231 8.5017 10.6089C8.22207 10.5811 8.00107 10.721 7.84382 10.9446L6.69563 12.5772C6.53857 12.8006 6.4812 13.0566 6.60188 13.3101C6.66363 13.4397 6.76982 13.5589 6.88707 13.6417C7.00382 13.7242 7.1532 13.7841 7.29526 13.7983C7.57101 13.826 7.78988 13.6904 7.94688 13.4721L7.9477 13.4713L9.0807 11.8607L9.12526 11.8453ZM27.601 7.4988L23.7203 0.777552C23.6386 0.635989 23.5053 0.535489 23.3475 0.493176C23.295 0.47905 23.2408 0.471864 23.1864 0.471802C23.0795 0.471802 22.9758 0.499739 22.8833 0.553176L20.6718 1.82993C20.6022 1.87012 20.5412 1.92369 20.4924 1.98754C20.4435 2.05139 20.4078 2.12427 20.3872 2.20199C20.3661 2.27963 20.3606 2.36068 20.3709 2.44047C20.3812 2.52026 20.4073 2.59722 20.4474 2.66693L24.3278 9.38818C24.4096 9.52974 24.5426 9.6303 24.7003 9.67255C24.7779 9.69362 24.8588 9.69917 24.9386 9.68888C25.0183 9.67858 25.0952 9.65264 25.1648 9.61255L27.3762 8.33605C27.6686 8.16743 27.7697 7.79105 27.601 7.4988ZM13.3946 15.0654L13.3669 15.0789L12.3701 16.4973L12.3666 16.5277C12.3287 16.8608 12.5599 17.1648 12.8516 17.3001C13.2112 17.4668 13.5487 17.3634 13.777 17.0388L14.3529 16.2201C14.5813 15.8954 14.5639 15.5439 14.2857 15.2619C14.0591 15.0324 13.697 14.9172 13.3946 15.0654ZM19.9275 3.46718C18.9946 3.73036 18.0379 3.84261 17.0696 3.81268C16.3236 3.78961 15.5967 3.68224 14.8689 3.52199C14.3311 3.40368 13.7573 3.3173 13.2169 3.4683C12.8038 3.58374 12.4511 3.8233 12.1229 4.09249C11.9089 4.26805 11.7044 4.45693 11.5038 4.64749C11.2503 4.88843 11.0014 5.13455 10.7523 5.37993C10.5585 5.57097 10.3643 5.76152 10.1695 5.95155L10.1356 5.98455L10.0101 8.62136C10.0044 8.74099 10.0121 8.94743 10.1271 9.01999C10.2259 9.08236 10.3888 9.0678 10.4981 9.04768C10.7063 9.00936 10.9173 8.91886 11.1026 8.81874C11.5094 8.59899 11.8466 7.82599 12.0382 7.41668C12.1299 7.22086 12.2214 7.02411 12.3228 6.83305C12.3619 6.75957 12.424 6.70093 12.4996 6.66611C12.5907 6.62396 12.6814 6.58132 12.772 6.53818C13.2274 6.32211 13.7067 6.09349 14.209 6.01461C14.6871 5.93955 15.125 6.01393 15.5456 6.25736L21.5506 9.73374L23.1721 8.90586L20.0172 3.44193L19.9275 3.46718ZM21.3476 10.4941L15.1651 6.91511C15.0287 6.83618 14.8836 6.78286 14.7273 6.7603C14.4721 6.72343 14.2156 6.77368 13.9731 6.85255C13.6752 6.94943 13.3809 7.09024 13.0981 7.22461C13.0568 7.24418 13.0155 7.2638 12.9741 7.28324L12.9362 7.30105L12.9176 7.33855C12.8523 7.47122 12.7885 7.60465 12.7263 7.7388C12.4414 8.34755 12.076 9.15724 11.4637 9.4878C10.9648 9.75718 10.2497 9.99511 9.72263 9.66349C9.59176 9.58118 9.48401 9.46643 9.40676 9.33274C9.2762 9.10693 9.23913 8.84268 9.25138 8.58536L9.38376 5.79868C9.38816 5.70213 9.4292 5.6109 9.49851 5.54355C9.73982 5.30986 9.97945 5.07449 10.2186 4.83868C10.3183 4.74043 10.4182 4.64255 10.5179 4.54436L10.6542 4.41018L7.97482 3.45311L4.75707 9.02743L6.62307 11.3587L7.22207 10.5075C7.58557 9.99086 8.14588 9.74086 8.76888 9.88436C8.86651 9.9068 8.96195 9.93855 9.0537 9.97855C9.15692 10.0236 9.25533 10.0789 9.34745 10.1436C9.55057 10.2864 9.72263 10.4753 9.84232 10.6931L9.90413 10.8056L10.0122 10.7363C10.5337 10.402 11.1923 10.4684 11.6859 10.8157C12.0427 11.0668 12.3019 11.4582 12.3521 11.8961L12.3648 12.0068L12.4761 12.0024C12.8229 11.9885 13.1694 12.1014 13.4521 12.3004C14.0419 12.7157 14.3023 13.4447 13.9985 14.1256L13.9409 14.2546L14.0776 14.2905C14.3628 14.3656 14.6202 14.5191 14.8269 14.7288C15.304 15.2127 15.4076 15.8744 15.0855 16.4744L15.0307 16.5766L16.4565 17.4067C16.6927 17.5442 16.9519 17.5794 17.1944 17.4375C17.318 17.3652 17.4284 17.2487 17.5004 17.1249C17.5725 17.0011 17.6194 16.8477 17.6215 16.7045C17.6256 16.4237 17.4677 16.2154 17.2318 16.0776L17.2037 16.0612H17.203L15.5658 15.1082C15.3846 15.0028 15.3241 14.7696 15.4293 14.5887C15.4544 14.5456 15.4877 14.5078 15.5273 14.4776C15.5669 14.4474 15.6121 14.4253 15.6603 14.4125C15.7085 14.3997 15.7588 14.3966 15.8082 14.4033C15.8576 14.4099 15.9052 14.4262 15.9483 14.4513L17.6106 15.4191C17.613 15.4206 17.6154 15.4221 17.6179 15.4234L18.1351 15.7243C18.3714 15.8619 18.6308 15.8971 18.8734 15.7551C18.9968 15.6829 19.1076 15.5662 19.1794 15.4424C19.2514 15.3182 19.2982 15.1654 19.3002 15.0221C19.3041 14.7466 19.1519 14.541 18.9234 14.4032L18.9224 14.4023L16.8686 13.2062C16.6876 13.1009 16.6268 12.8671 16.732 12.6864C16.8375 12.5054 17.07 12.4446 17.251 12.5499L19.3203 13.7542H19.3208L19.9465 14.1192C20.1828 14.2571 20.4396 14.289 20.6822 14.1502C20.9353 14.0055 21.1097 13.705 21.1108 13.4136C21.1119 13.1335 20.9579 12.9275 20.7211 12.7895L20.1924 12.4814L18.1717 11.3047C17.9906 11.1993 17.9288 10.9664 18.0343 10.7852C18.1398 10.6041 18.3729 10.5422 18.5541 10.6477L20.5749 11.8246C20.8112 11.9622 21.0703 11.997 21.3126 11.8545C21.4363 11.7818 21.5456 11.6657 21.6181 11.5419C21.6906 11.4182 21.7376 11.2638 21.7395 11.1206C21.7433 10.8394 21.5845 10.6312 21.3476 10.4941Z" fill="white"/>
</svg>
