<svg width="22" height="26" viewBox="0 0 22 26" fill="none" xmlns="http://www.w3.org/2000/svg">
<path d="M3.08422 4.49772C3.3352 4.63895 5.02454 5.4551 5.84069 5.8481C5.84389 6.16487 5.85089 6.71267 5.86165 6.72197C5.95161 7.50639 6.10601 8.37786 6.15074 8.62396C6.07653 8.6651 5.69514 8.9145 5.69514 9.69024L5.6962 9.70307C5.69564 9.72342 5.69514 9.74393 5.69514 9.76501C5.8593 11.9212 6.71681 10.9919 6.89363 11.9364C7.18776 13.5067 8.57816 14.6428 9.44363 15.035C9.94384 15.2616 10.4586 15.3771 10.9996 15.3882C11.5407 15.3772 12.0554 15.2616 12.5557 15.035C13.4211 14.6428 14.8115 13.5066 15.1057 11.9364C15.2825 10.9919 16.14 11.9212 16.3042 9.76501C16.3042 9.74388 16.3036 9.72342 16.3031 9.70307L16.3042 9.69024C16.3042 8.91445 15.9227 8.6651 15.8485 8.62396C15.8933 8.37786 16.0477 7.50645 16.1376 6.72197C16.1483 6.71267 16.1554 6.16493 16.1586 5.8481C16.7432 5.56675 17.3272 5.28392 17.9104 4.99961V7.08392C17.7459 7.18099 17.6303 7.35232 17.6303 7.55661C17.6303 7.73747 17.7221 7.8907 17.8559 7.99198C17.8559 7.99198 17.618 9.32897 17.5411 9.72219C17.4642 10.1153 18.8975 10.0364 18.833 9.72219C18.7686 9.40782 18.5184 7.99198 18.5184 7.99198C18.6523 7.8907 18.744 7.73747 18.744 7.55661C18.744 7.35227 18.6289 7.18105 18.4646 7.08392V4.72728C18.6852 4.61782 18.8494 4.5346 18.915 4.49772C19.0926 4.39779 19.1882 4.26994 19.1681 4.13712C19.1923 3.99862 19.0922 3.84977 18.8234 3.71817C16.9054 2.77928 12.0154 0.386271 11.5319 0.155641C11.321 0.0550375 11.1473 0.0105928 10.9996 0C10.852 0.0105928 10.6783 0.0550375 10.4674 0.155641C9.98386 0.386271 5.09393 2.77934 3.17591 3.71817C2.90706 3.84977 2.80696 3.99862 2.83128 4.13712C2.81099 4.26994 2.90667 4.39779 3.08422 4.49772ZM17.5095 17.9844C16.6071 17.6591 15.0365 16.7211 14.7674 16.5764C14.6954 16.5344 14.6136 16.5122 14.5303 16.5122C14.4408 16.5122 14.353 16.5377 14.2774 16.5857C14.2018 16.6337 14.1414 16.7023 14.1033 16.7833C13.3593 18.0289 11.9799 21.6507 11.0175 21.7179C11.0116 21.7175 11.0056 21.7163 10.9996 21.7157C10.9937 21.7163 10.9876 21.7175 10.9818 21.7179C10.0193 21.6507 8.63998 18.0289 7.89596 16.7833C7.85786 16.7023 7.79748 16.6337 7.72186 16.5857C7.64624 16.5377 7.55852 16.5122 7.46895 16.5122C7.38563 16.5122 7.30382 16.5344 7.23187 16.5764C6.96279 16.7211 5.3921 17.6591 4.48975 17.9844C1.4609 19.0765 0.0986328 20.1903 0.0986328 20.9498V26H21.9007V20.9498C21.9006 20.1903 20.5384 19.0765 17.5095 17.9844Z" fill="white"/>
</svg>
