<svg width="26" height="26" viewBox="0 0 26 26" fill="none" xmlns="http://www.w3.org/2000/svg">
<path d="M13 26C20.1797 26 26 20.1797 26 13C26 5.8203 20.1797 0 13 0C5.8203 0 0 5.8203 0 13C0 20.1797 5.8203 26 13 26Z" fill="#F48632"/>
<path fill-rule="evenodd" clip-rule="evenodd" d="M8.93586 19.3464L4.19649 14.2386C3.88208 13.9017 3.71413 13.4539 3.72948 12.9933C3.74483 12.5327 3.94223 12.0971 4.27838 11.7819C4.61659 11.4688 5.0652 11.3026 5.52578 11.3199C5.98635 11.3372 6.42126 11.5364 6.73507 11.874L10.3996 15.7945L16.2036 10.3693C16.2554 10.3217 16.3101 10.2772 16.3674 10.2362L19.0902 7.68739C19.4271 7.37299 19.8749 7.20504 20.3355 7.22039C20.796 7.23574 21.2317 7.43314 21.5469 7.76928C21.8613 8.10617 22.0292 8.55401 22.0139 9.01456C21.9985 9.47512 21.8011 9.91078 21.465 10.226L13.1225 18.0055L10.2256 20.6976L8.9461 19.326L8.93586 19.3464Z" fill="white"/>
</svg>
