<svg width="57" height="57" viewBox="0 0 57 57" fill="none" xmlns="http://www.w3.org/2000/svg">
<g filter="url(#filter0_d_449_744)">
<circle cx="28.5" cy="28.5" r="24.5" fill="white"/>
</g>
<g clip-path="url(#clip0_449_744)">
<mask id="mask0_449_744" style="mask-type:luminance" maskUnits="userSpaceOnUse" x="16" y="16" width="26" height="26">
<path d="M41.8 16H16V41.8H41.8V16Z" fill="white"/>
</mask>
<g mask="url(#mask0_449_744)">
<path d="M21.4842 25.7763C20.9148 25.7763 20.356 25.541 19.9513 25.1313C19.5482 24.7231 19.3305 24.1875 19.3381 23.6236V21.8262C19.3381 21.6175 19.5074 21.4482 19.716 21.4482C19.9246 21.4482 20.0939 21.6175 20.0939 21.8262V23.6286C20.0894 23.994 20.2295 24.3371 20.4895 24.6007C20.753 24.8677 21.1159 25.0209 21.4847 25.0209C21.6933 25.0209 21.8627 25.1902 21.8627 25.3989C21.8627 25.6075 21.6933 25.7768 21.4847 25.7768L21.4842 25.7763ZM34.3555 20.908C34.1469 20.908 33.9776 20.7387 33.9776 20.5301V18.3119C33.9776 18.2131 33.8939 18.1295 33.7957 18.1295H20.2759C20.1771 18.1295 20.0939 18.2131 20.0939 18.3119V20.1144C20.0939 20.323 19.9246 20.4923 19.716 20.4923C19.5074 20.4923 19.3381 20.323 19.3381 20.1144V18.3119C19.3381 17.7949 19.7588 17.3741 20.2759 17.3741H33.7957C34.3127 17.3741 34.7334 17.7949 34.7334 18.3119V20.5301C34.7334 20.7387 34.5641 20.908 34.3555 20.908Z" fill="#F48632"/>
<path d="M26.7819 25.7763H21.4854C21.2772 25.7763 21.1079 25.6075 21.1074 25.3994C21.1069 25.1913 21.2752 25.0215 21.4833 25.021C22.2463 25.0174 22.8671 24.3936 22.8671 23.6302V22.3019C22.8595 21.7315 23.0853 21.1887 23.502 20.7781C23.9202 20.3659 24.4932 20.1386 25.0737 20.1547C25.2823 20.1603 25.4466 20.3341 25.441 20.5427C25.4355 20.7514 25.2621 20.9151 25.053 20.9101C24.6771 20.8995 24.3047 21.0477 24.0321 21.3162C23.7635 21.5813 23.6179 21.9295 23.6224 22.2973V23.6307C23.6224 24.1603 23.4289 24.6461 23.1089 25.0215H26.7814C26.99 25.0215 27.1593 25.1908 27.1593 25.3994C27.1593 25.608 26.99 25.7773 26.7814 25.7773L26.7819 25.7763Z" fill="#F48632"/>
<path d="M41.4211 40.4259H26.7802C26.5715 40.4259 26.4022 40.2566 26.4022 40.048V33.2775C26.4022 33.0689 26.5715 32.8995 26.7802 32.8995C26.9888 32.8995 27.1581 33.0689 27.1581 33.2775V39.6705H41.0437V22.2999C41.0437 21.5561 40.4249 20.9192 39.6917 20.9081H26.6431C26.9641 21.2835 27.1581 21.7703 27.1581 22.2999V31.5647C27.1581 31.7733 26.9888 31.9426 26.7802 31.9426C26.5715 31.9426 26.4022 31.7733 26.4022 31.5647V22.2999C26.4022 21.537 25.7814 20.9126 25.018 20.9081C24.8099 20.9071 24.6416 20.7373 24.6426 20.5291C24.6436 20.321 24.8124 20.1522 25.0205 20.1522H39.6943C39.6943 20.1522 39.6978 20.1522 39.6993 20.1522C40.8573 20.1678 41.7991 21.1313 41.7991 22.2999V40.048C41.7991 40.2566 41.6298 40.4259 41.4211 40.4259Z" fill="#F48632"/>
<path d="M23.4427 40.4258H17.7123C17.5037 40.4258 17.3343 40.2565 17.3343 40.0479V38.5447H16.3779C16.1693 38.5447 16 38.3754 16 38.1668V36.2867C16 36.0781 16.1693 35.9088 16.3779 35.9088H22.1089C22.3175 35.9088 22.4868 36.0781 22.4868 36.2867V37.7889H23.4432C23.6518 37.7889 23.8211 37.9582 23.8211 38.1668V40.0479C23.8211 40.2565 23.6518 40.4258 23.4432 40.4258H23.4427ZM18.0897 39.6705H23.0648V38.5447H18.0897V39.6705ZM16.7554 37.7894H21.7304V36.6652H16.7559V37.7894H16.7554Z" fill="#F48632"/>
<path d="M22.1089 32.9035H16.3779C16.1693 32.9035 16 32.7347 16 32.5261V30.645C16 30.4364 16.1693 30.2671 16.3779 30.2671H18.3875C18.5961 30.2671 18.7654 30.4364 18.7654 30.645C18.7654 30.8536 18.5961 31.0229 18.3875 31.0229H16.7559V32.1487H21.7309V31.0229H20.0988C19.8902 31.0229 19.7208 30.8536 19.7208 30.645C19.7208 30.4364 19.8902 30.2671 20.0988 30.2671H22.1084C22.317 30.2671 22.4863 30.4364 22.4863 30.645V32.5261C22.4863 32.7347 22.317 32.904 22.1084 32.904L22.1089 32.9035Z" fill="#F48632"/>
<path d="M24.4565 36.6647H18.7256C18.517 36.6647 18.3477 36.4954 18.3477 36.2868V32.5256C18.3477 32.317 18.517 32.1477 18.7256 32.1477H24.4565C24.6651 32.1477 24.8344 32.317 24.8344 32.5256V36.2868C24.8344 36.4954 24.6651 36.6647 24.4565 36.6647ZM19.1035 35.9094H24.0786V34.7836H19.1035V35.9094ZM19.1035 34.0283H24.0786V32.9041H19.1035V34.0283Z" fill="#F48632"/>
<path d="M35.8385 30.377C35.1471 30.377 34.5853 29.7511 34.5853 28.9822C34.5853 28.2132 35.1476 27.5859 35.8385 27.5859C36.5293 27.5859 37.0917 28.2122 37.0917 28.9822C37.0917 29.7522 36.5293 30.377 35.8385 30.377ZM35.8385 28.3417C35.5638 28.3417 35.3406 28.6289 35.3406 28.9822C35.3406 29.3354 35.5638 29.6211 35.8385 29.6211C36.1131 29.6211 36.3363 29.3344 36.3363 28.9822C36.3363 28.63 36.1131 28.3417 35.8385 28.3417ZM33.1431 30.056C33.0942 30.056 33.0448 30.0464 32.9969 30.0268C32.8045 29.9462 32.7138 29.7244 32.7949 29.5324L34.7762 24.8088C34.8569 24.6163 35.0786 24.5256 35.2706 24.6068C35.4631 24.6874 35.5538 24.9091 35.4726 25.1011L33.4913 29.8247C33.4308 29.9693 33.2902 30.0565 33.1426 30.0565L33.1431 30.056ZM32.3645 27.1475C31.6732 27.1475 31.1113 26.5216 31.1113 25.7526C31.1113 24.9837 31.6737 24.3563 32.3645 24.3563C33.0554 24.3563 33.6178 24.9827 33.6178 25.7526C33.6178 26.5226 33.0554 27.1475 32.3645 27.1475ZM32.3645 25.1122C32.0899 25.1122 31.8667 25.3994 31.8667 25.7526C31.8667 26.1059 32.0899 26.3916 32.3645 26.3916C32.6392 26.3916 32.8624 26.1049 32.8624 25.7526C32.8624 25.4004 32.6392 25.1122 32.3645 25.1122Z" fill="#F48632"/>
<path d="M34.1014 32.6067C31.2121 32.6067 28.8613 30.256 28.8613 27.3666C28.8613 24.4772 31.2121 22.1265 34.1014 22.1265C36.9908 22.1265 39.3416 24.4772 39.3416 27.3666C39.3416 30.256 36.9908 32.6067 34.1014 32.6067ZM34.1014 22.8823C31.6288 22.8823 29.6172 24.8939 29.6172 27.3666C29.6172 29.8393 31.6288 31.8508 34.1014 31.8508C36.5741 31.8508 38.5862 29.8393 38.5862 27.3666C38.5862 24.8939 36.5746 22.8823 34.1014 22.8823Z" fill="#F48632"/>
<path d="M36.3872 37.9673H29.2393C29.0306 37.9673 28.8613 37.798 28.8613 37.5894C28.8613 37.3807 29.0306 37.2114 29.2393 37.2114H36.3872C36.5958 37.2114 36.7651 37.3807 36.7651 37.5894C36.7651 37.798 36.5958 37.9673 36.3872 37.9673ZM38.9641 36.2575H29.2398C29.0311 36.2575 28.8618 36.0882 28.8618 35.8796C28.8618 35.671 29.0311 35.5017 29.2398 35.5017H38.9641C39.1728 35.5017 39.3421 35.671 39.3421 35.8796C39.3421 36.0882 39.1728 36.2575 38.9641 36.2575ZM38.9641 34.5463H29.2398C29.0311 34.5463 28.8618 34.377 28.8618 34.1683C28.8618 33.9597 29.0311 33.7904 29.2398 33.7904H38.9641C39.1728 33.7904 39.3421 33.9597 39.3421 34.1683C39.3421 34.377 39.1728 34.5463 38.9641 34.5463Z" fill="#F48632"/>
</g>
</g>
<defs>
<filter id="filter0_d_449_744" x="0" y="0" width="57" height="57" filterUnits="userSpaceOnUse" color-interpolation-filters="sRGB">
<feFlood flood-opacity="0" result="BackgroundImageFix"/>
<feColorMatrix in="SourceAlpha" type="matrix" values="0 0 0 0 0 0 0 0 0 0 0 0 0 0 0 0 0 0 127 0" result="hardAlpha"/>
<feOffset/>
<feGaussianBlur stdDeviation="2"/>
<feComposite in2="hardAlpha" operator="out"/>
<feColorMatrix type="matrix" values="0 0 0 0 0 0 0 0 0 0 0 0 0 0 0 0 0 0 0.15 0"/>
<feBlend mode="normal" in2="BackgroundImageFix" result="effect1_dropShadow_449_744"/>
<feBlend mode="normal" in="SourceGraphic" in2="effect1_dropShadow_449_744" result="shape"/>
</filter>
<clipPath id="clip0_449_744">
<rect width="25.8" height="25.8" fill="white" transform="translate(16 16)"/>
</clipPath>
</defs>
</svg>
