<svg width="57" height="57" viewBox="0 0 57 57" fill="none" xmlns="http://www.w3.org/2000/svg">
<g filter="url(#filter0_d_201_933)">
<circle cx="28.5" cy="28.5" r="24.5" fill="#F48632"/>
</g>
<g clip-path="url(#clip0_201_933)">
<path d="M41.8521 38.3816H35.8716C35.6301 38.3816 35.434 38.1855 35.434 37.944C35.434 37.7024 35.6301 37.5064 35.8716 37.5064H41.8521C41.9326 37.5064 41.9979 37.441 41.9979 37.3605V16.0211C41.9979 15.9405 41.9326 15.8752 41.8521 15.8752H14.0211C13.9405 15.8752 13.8752 15.9405 13.8752 16.0211V19.6152C13.8752 19.8567 13.6791 20.0528 13.4376 20.0528C13.196 20.0528 13 19.8567 13 19.6152V16.0211C13 15.458 13.458 15 14.0211 15H41.8521C42.4151 15 42.8731 15.458 42.8731 16.0211V37.3605C42.8731 37.9235 42.4151 38.3816 41.8521 38.3816Z" fill="white"/>
<path d="M33.2752 38.3815H14.0211C13.458 38.3815 13 37.9235 13 37.3605V21.8317C13 21.5901 13.196 21.3941 13.4376 21.3941C13.6791 21.3941 13.8752 21.5901 13.8752 21.8317V37.3599C13.8752 37.4404 13.9405 37.5058 14.0211 37.5058H33.2752C33.5168 37.5058 33.7128 37.7018 33.7128 37.9434C33.7128 38.1849 33.5168 38.3809 33.2752 38.3809V38.3815Z" fill="white"/>
<path d="M33.1877 36.5956H15.2276C14.9861 36.5956 14.79 36.3995 14.79 36.158V17.2235C14.79 16.982 14.9861 16.7859 15.2276 16.7859H40.6455C40.887 16.7859 41.0831 16.982 41.0831 17.2235V29.2422C41.0831 29.4838 40.887 29.6798 40.6455 29.6798C40.4039 29.6798 40.2079 29.4838 40.2079 29.2422V17.6611H15.6652V35.721H33.1877C33.4292 35.721 33.6253 35.917 33.6253 36.1586C33.6253 36.4001 33.4292 36.5962 33.1877 36.5962V36.5956Z" fill="white"/>
<path d="M40.6452 36.5956H35.9005C35.6589 36.5956 35.4629 36.3996 35.4629 36.158C35.4629 35.9165 35.6589 35.7204 35.9005 35.7204H40.2076V31.5755C40.2076 31.334 40.4036 31.1379 40.6452 31.1379C40.8867 31.1379 41.0828 31.334 41.0828 31.5755V36.158C41.0828 36.3996 40.8867 36.5956 40.6452 36.5956Z" fill="white"/>
<path d="M33.7602 21.3241H18.6749C18.4333 21.3241 18.2373 21.1281 18.2373 20.8865C18.2373 20.645 18.4333 20.4489 18.6749 20.4489H33.7602C34.0018 20.4489 34.1978 20.645 34.1978 20.8865C34.1978 21.1281 34.0018 21.3241 33.7602 21.3241Z" fill="white"/>
<path d="M37.1986 23.9853H18.6749C18.4333 23.9853 18.2373 23.7893 18.2373 23.5477C18.2373 23.3061 18.4333 23.1101 18.6749 23.1101H37.1986C37.4401 23.1101 37.6362 23.3061 37.6362 23.5477C37.6362 23.7893 37.4401 23.9853 37.1986 23.9853Z" fill="white"/>
<path d="M29.1993 26.647H18.6749C18.4333 26.647 18.2373 26.451 18.2373 26.2094C18.2373 25.9679 18.4333 25.7719 18.6749 25.7719H29.1988C29.4403 25.7719 29.6364 25.9679 29.6364 26.2094C29.6364 26.451 29.4403 26.647 29.1988 26.647H29.1993Z" fill="white"/>
<path d="M19.2929 33.6106C19.8582 32.1216 20.1097 30.5358 20.1505 28.9476L19.2911 29.0637C19.4854 30.2295 19.5006 31.4658 20.0449 32.5411C20.3005 33.0464 20.8215 33.3451 21.3793 33.1205C21.8496 32.9309 22.2247 32.4081 22.3683 31.9337H21.5246C21.5853 32.2494 21.7556 32.575 21.9814 32.8025C22.4062 33.2308 22.964 33.1853 23.5194 33.1847C24.3859 33.1835 25.2517 33.1818 26.1182 33.1788C26.6812 33.1771 26.6824 32.3019 26.1182 32.3037C25.1368 32.3066 24.1554 32.3083 23.174 32.3095C22.9914 32.3095 22.7942 32.3422 22.6402 32.2237C22.4675 32.0919 22.4079 31.9057 22.3689 31.7004C22.2831 31.2563 21.6424 31.3124 21.5252 31.7004C21.4732 31.8719 21.2107 32.3637 20.9814 32.3235C20.86 32.3025 20.8069 32.1146 20.762 32.0178C20.6745 31.8287 20.6109 31.6286 20.5566 31.4279C20.3262 30.5801 20.2801 29.6944 20.136 28.8303C20.0525 28.3291 19.2888 28.4709 19.2765 28.9464C19.2374 30.4617 18.9895 31.9565 18.4503 33.3766C18.2502 33.9035 19.0956 34.1316 19.294 33.6094" fill="white"/>
<path d="M35.8064 40.8C35.7434 40.8 35.6804 40.7866 35.6221 40.7591L34.552 40.2615L33.4819 40.7591C33.3466 40.8222 33.1884 40.8117 33.0618 40.7311C32.9358 40.6506 32.8594 40.5118 32.8594 40.3624V33.4192C32.8594 33.1777 33.0554 32.9816 33.297 32.9816C33.5385 32.9816 33.7346 33.1777 33.7346 33.4192V39.6762L34.367 39.3822C34.4843 39.3279 34.6191 39.3279 34.7364 39.3822L35.3688 39.6762V33.4192C35.3688 33.1777 35.5649 32.9816 35.8064 32.9816C36.048 32.9816 36.244 33.1777 36.244 33.4192V40.3624C36.244 40.5118 36.1676 40.6512 36.0416 40.7311C35.9704 40.7766 35.8881 40.8 35.8064 40.8Z" fill="white"/>
<path d="M34.5523 34.7285C34.0943 34.7285 33.7991 34.372 33.5616 34.0855C33.4706 33.9752 33.3323 33.809 33.267 33.7815C33.1911 33.75 32.9753 33.7687 32.8183 33.7827C32.4554 33.8148 32.0032 33.8545 31.6899 33.5406C31.3772 33.2272 31.4168 32.7751 31.4489 32.4116C31.4629 32.2535 31.4816 32.0376 31.4501 31.9611C31.4227 31.8952 31.2564 31.7569 31.1467 31.6653C30.8608 31.4279 30.5049 31.132 30.5049 30.674C30.5049 30.216 30.8608 29.9202 31.1467 29.6827C31.2564 29.5911 31.4227 29.4534 31.4501 29.3875C31.4816 29.3111 31.4629 29.0946 31.4489 28.9365C31.4168 28.573 31.3777 28.1208 31.6899 27.8075C32.0032 27.4936 32.4548 27.5333 32.8183 27.5654C32.9758 27.5794 33.1911 27.598 33.267 27.5665C33.3323 27.5391 33.4706 27.3728 33.5616 27.2625C33.7991 26.9761 34.0943 26.6196 34.5523 26.6196C35.0104 26.6196 35.3056 26.9761 35.5431 27.2625C35.6341 27.3728 35.7724 27.5391 35.8377 27.5665C35.9136 27.598 36.1294 27.5794 36.2864 27.5654C36.6499 27.5333 37.1015 27.4936 37.4142 27.8075C37.7269 28.1208 37.6873 28.573 37.6552 28.9365C37.6412 29.0946 37.6225 29.3105 37.654 29.3869C37.6814 29.4528 37.8477 29.5911 37.9574 29.6821C38.2433 29.9196 38.5992 30.2154 38.5992 30.6734C38.5992 31.1315 38.2433 31.4273 37.9574 31.6647C37.8477 31.7563 37.6814 31.894 37.654 31.9606C37.6225 32.037 37.6412 32.2535 37.6552 32.411C37.6867 32.7745 37.7264 33.2267 37.4136 33.54C37.1009 33.8539 36.6487 33.8136 36.2858 33.7821C36.1283 33.7681 35.913 33.7494 35.8371 33.781C35.7718 33.8084 35.6335 33.9747 35.5425 34.0849C35.305 34.3714 35.0098 34.7279 34.5518 34.7279L34.5523 34.7285ZM33.1124 32.8894C33.2786 32.8894 33.4467 32.9087 33.6025 32.9734C33.8679 33.0837 34.0547 33.3089 34.2355 33.5271C34.3207 33.6298 34.4759 33.8171 34.5523 33.851C34.6288 33.8177 34.784 33.6298 34.8692 33.5271C35.0495 33.3089 35.2362 33.0837 35.5022 32.9734C35.7764 32.8591 36.0886 32.8865 36.3634 32.911C36.4953 32.9227 36.7088 32.9414 36.7917 32.9186C36.815 32.8357 36.7957 32.6205 36.7841 32.488C36.7602 32.2126 36.7327 31.901 36.8465 31.6262C36.9568 31.3602 37.1814 31.1735 37.399 30.9926C37.5017 30.9068 37.6902 30.7505 37.7229 30.674C37.6902 30.5976 37.5023 30.4412 37.399 30.3555C37.1814 30.1746 36.9568 29.9873 36.8465 29.7218C36.7327 29.4476 36.7602 29.1354 36.7841 28.8601C36.7957 28.7276 36.8144 28.5129 36.7911 28.43C36.7088 28.4073 36.4947 28.426 36.3628 28.4376C36.088 28.4615 35.7759 28.489 35.5016 28.3752C35.2362 28.2649 35.0494 28.0397 34.8686 27.8215C34.7834 27.7188 34.6282 27.5315 34.5518 27.4977C34.4753 27.5315 34.3201 27.7188 34.2349 27.8215C34.0547 28.0397 33.8679 28.2649 33.6019 28.3752C33.3277 28.489 33.0161 28.4615 32.7407 28.4376C32.6088 28.426 32.3953 28.4073 32.3124 28.43C32.2897 28.5129 32.3084 28.7282 32.32 28.8601C32.3439 29.1354 32.3714 29.4476 32.2576 29.7218C32.1473 29.9879 31.9227 30.1746 31.7051 30.3555C31.6018 30.4412 31.4139 30.5976 31.3812 30.674C31.4139 30.7505 31.6018 30.9068 31.7051 30.9926C31.9227 31.1735 32.1473 31.3608 32.2576 31.6268C32.3714 31.901 32.3439 32.2132 32.32 32.4886C32.3084 32.621 32.2897 32.8357 32.3124 32.9186C32.3953 32.9414 32.6088 32.9227 32.7407 32.911C32.8597 32.9005 32.9852 32.8894 33.1118 32.8894H33.1124Z" fill="white"/>
<path d="M34.5527 32.3836C33.6104 32.3836 32.8438 31.6169 32.8438 30.6747C32.8438 29.7324 33.6104 28.9657 34.5527 28.9657C35.495 28.9657 36.2617 29.7324 36.2617 30.6747C36.2617 31.6169 35.495 32.3836 34.5527 32.3836ZM34.5527 29.8403C34.0929 29.8403 33.7189 30.2143 33.7189 30.6741C33.7189 31.1338 34.0929 31.5078 34.5527 31.5078C35.0125 31.5078 35.3865 31.1338 35.3865 30.6741C35.3865 30.2143 35.0125 29.8403 34.5527 29.8403Z" fill="white"/>
</g>
<defs>
<filter id="filter0_d_201_933" x="0" y="0" width="57" height="57" filterUnits="userSpaceOnUse" color-interpolation-filters="sRGB">
<feFlood flood-opacity="0" result="BackgroundImageFix"/>
<feColorMatrix in="SourceAlpha" type="matrix" values="0 0 0 0 0 0 0 0 0 0 0 0 0 0 0 0 0 0 127 0" result="hardAlpha"/>
<feOffset/>
<feGaussianBlur stdDeviation="2"/>
<feComposite in2="hardAlpha" operator="out"/>
<feColorMatrix type="matrix" values="0 0 0 0 0 0 0 0 0 0 0 0 0 0 0 0 0 0 0.15 0"/>
<feBlend mode="normal" in2="BackgroundImageFix" result="effect1_dropShadow_201_933"/>
<feBlend mode="normal" in="SourceGraphic" in2="effect1_dropShadow_201_933" result="shape"/>
</filter>
<clipPath id="clip0_201_933">
<rect width="29.8731" height="25.8" fill="white" transform="translate(13 15)"/>
</clipPath>
</defs>
</svg>
