<svg width="57" height="57" viewBox="0 0 57 57" fill="none" xmlns="http://www.w3.org/2000/svg">
<g filter="url(#filter0_d_449_619)">
<circle cx="28.5" cy="28.5" r="24.5" fill="white"/>
</g>
<g clip-path="url(#clip0_449_619)">
<path d="M38.5155 32.0126C38.8406 31.0088 39.0058 29.9622 39.0058 28.8955C39.0058 27.8287 38.8421 26.7896 38.5186 25.7894C39.2296 25.5223 39.8756 25.095 40.4122 24.5271C41.3394 23.5455 41.8287 22.2615 41.7904 20.9116C41.7108 18.1245 39.3787 15.9229 36.5921 16.002C35.2422 16.0408 33.9884 16.6027 33.0613 17.5843C32.5931 18.0801 32.2369 18.6531 32.0036 19.2729C31.0028 18.9499 29.9597 18.7861 28.8965 18.7861C27.8332 18.7861 26.7891 18.9504 25.7874 19.2739C25.0653 17.3626 23.2164 16 21.0557 16C18.2681 16 16 18.2681 16 21.0557C16 23.2164 17.3631 25.0643 19.2739 25.7864C18.9504 26.7881 18.7861 27.8317 18.7861 28.8955C18.7861 29.9592 18.9514 31.0088 19.2764 32.0126C17.3641 32.7337 16 34.5825 16 36.7443C16 37.5052 16.1648 38.2369 16.4903 38.9187C16.58 39.1071 16.8057 39.1867 16.9942 39.097C17.1827 39.0068 17.2623 38.7816 17.1726 38.5931C16.8959 38.0136 16.7559 37.3918 16.7559 36.7443C16.7559 34.3734 18.6848 32.445 21.0557 32.445C23.4266 32.445 25.356 34.3739 25.356 36.7443C25.356 39.1147 23.4271 41.0441 21.0557 41.0441C19.9743 41.0441 18.9408 40.641 18.1456 39.9093C17.9919 39.7682 17.7526 39.7778 17.6115 39.9315C17.4704 40.0852 17.48 40.324 17.6337 40.4651C18.5689 41.3253 19.7843 41.7995 21.0557 41.7995C23.22 41.7995 25.0703 40.4329 25.7904 38.517C26.7906 38.84 27.8332 39.0038 28.896 39.0038C29.9587 39.0038 31.0018 38.84 32.002 38.517C32.7221 40.4324 34.5725 41.799 36.7367 41.799C39.5244 41.799 41.7924 39.5309 41.7924 36.7433C41.7924 34.5815 40.4284 32.7327 38.5155 32.0111V32.0126ZM33.6105 18.1033C34.3991 17.2683 35.4659 16.7906 36.6138 16.7574C36.6556 16.7564 36.6969 16.7553 36.7388 16.7558C39.0532 16.7558 40.9686 18.6042 41.0351 20.9322C41.0678 22.0801 40.6516 23.1721 39.8635 24.0076C39.0749 24.8425 38.0081 25.3202 36.8602 25.3535C36.8184 25.3545 36.7771 25.3555 36.7352 25.3555C34.4208 25.3555 32.5054 23.5072 32.4389 21.1791C32.4057 20.0312 32.8224 18.9388 33.6105 18.1038V18.1033ZM31.7904 37.7919C30.8592 38.0948 29.8872 38.2485 28.8965 38.2485C27.9058 38.2485 26.9338 38.0948 26.0025 37.7919C26.0751 37.4472 26.1119 37.0965 26.1119 36.7443C26.1119 33.9567 23.8438 31.6891 21.0557 31.6891C20.6944 31.6891 20.3422 31.7274 20.002 31.8C19.6967 30.8652 19.542 29.8902 19.542 28.8955C19.542 27.9007 19.6962 26.9322 19.9995 26C20.3467 26.0741 20.7009 26.1114 21.0557 26.1114C21.9219 26.1114 22.7765 25.8886 23.5274 25.4669C23.7093 25.3646 23.7738 25.1343 23.672 24.9524C23.5702 24.7705 23.3394 24.7055 23.1575 24.8078C22.5195 25.166 21.7924 25.355 21.0562 25.355C18.6848 25.355 16.7564 23.4261 16.7564 21.0552C16.7564 18.6843 18.6848 16.7558 21.0557 16.7558C23.4266 16.7558 25.356 18.6848 25.356 21.0557C25.356 22.0474 25.0103 23.0154 24.3825 23.7808C24.25 23.9421 24.2736 24.1804 24.4349 24.3124C24.5961 24.445 24.8345 24.4213 24.9665 24.26C25.7047 23.36 26.1119 22.2217 26.1119 21.0557C26.1119 20.6939 26.0731 20.3406 26.0005 19.9995C26.9327 19.6961 27.9048 19.5419 28.896 19.5419C29.8872 19.5419 30.8592 19.6961 31.7909 19.999C31.7078 20.3941 31.6715 20.7972 31.6831 21.2003C31.7617 23.9375 34.0136 26.1114 36.7347 26.1109C37.0905 26.1109 37.4452 26.0741 37.7929 26C38.0963 26.9317 38.2505 27.9043 38.2505 28.895C38.2505 29.8856 38.0953 30.8647 37.7904 31.7995C37.4442 31.7259 37.091 31.6886 36.7373 31.6886C33.9491 31.6886 31.6816 33.9562 31.6816 36.7438C31.6816 37.1031 31.7194 37.4533 31.7909 37.7914L31.7904 37.7919ZM36.7373 41.0441C34.3664 41.0441 32.4374 39.1152 32.4374 36.7448C32.4374 34.3744 34.3664 32.445 36.7373 32.445C39.1081 32.445 41.0371 34.3739 41.0371 36.7448C41.0371 39.1157 39.1081 41.0441 36.7373 41.0441Z" fill="#F48632"/>
<path d="M23.629 18.8249C23.499 18.7362 23.3272 18.7377 23.1987 18.8284C23.0702 18.9191 22.9321 18.9947 22.7875 19.0552C22.2685 18.649 21.5157 18.6536 21.0002 19.102C20.7341 19.3328 20.5648 19.6553 20.5255 20.0055C19.9662 19.9224 19.4658 19.613 19.1413 19.1499C19.0632 19.0386 18.9306 18.9781 18.7956 18.9912C18.66 19.0043 18.5421 19.0894 18.4867 19.2139C18.4761 19.2381 18.2216 19.8196 18.2539 20.5306C18.2786 21.0748 18.4736 21.7763 19.1836 22.318C18.9271 22.4011 18.658 22.4384 18.3889 22.4278C18.1803 22.4198 18.0044 22.5825 17.9964 22.7911C17.9908 22.9332 18.0659 23.0668 18.1904 23.1358C18.7835 23.4654 19.4184 23.6301 20.0392 23.6301C20.66 23.6301 21.2184 23.478 21.7364 23.1731C22.3864 22.7906 22.8591 22.2051 23.1156 21.4901C23.1236 21.4719 23.1302 21.4533 23.1357 21.4336C23.2677 21.0451 23.3368 20.6198 23.3368 20.1688C23.3368 20.1492 23.3363 20.129 23.3353 20.1094C23.5514 19.8544 23.7051 19.5525 23.7842 19.228C23.8215 19.0748 23.7596 18.9146 23.6295 18.8259L23.629 18.8249ZM22.5683 20.0494C22.5759 20.0887 22.5799 20.1295 22.5799 20.1683C22.5799 20.5387 22.525 20.8818 22.4197 21.1917C22.4141 21.2064 22.4091 21.221 22.4051 21.2361C22.209 21.7853 21.8518 22.2263 21.3524 22.5205C20.8954 22.7896 20.3708 22.904 19.8361 22.8652C19.9586 22.8047 20.077 22.7357 20.1899 22.6591C20.3033 22.582 20.3663 22.4495 20.3542 22.3124C20.3421 22.1759 20.2564 22.0564 20.1309 22.0005C19.4255 21.6871 19.048 21.1882 19.0097 20.5185C19.0027 20.3885 19.0072 20.258 19.0233 20.129C19.5434 20.5634 20.209 20.8002 20.9039 20.7826C21.109 20.7775 21.2723 20.6097 21.2723 20.4046V20.1703C21.2693 19.9793 21.3509 19.7969 21.4955 19.672C21.7656 19.4371 22.1763 19.4659 22.4111 19.736C22.4575 19.7889 22.5174 19.8282 22.5844 19.8488C22.5613 19.9128 22.5557 19.9824 22.5683 20.0494ZM35.493 21.3535H36.0287V23.607C36.0287 23.8156 36.198 23.9849 36.4066 23.9849C36.6152 23.9849 36.7845 23.8156 36.7845 23.607V21.3535H37.368C37.5767 21.3535 37.746 21.1842 37.746 20.9756C37.746 20.7669 37.5767 20.5976 37.368 20.5976H36.7845V19.5404C36.7845 19.1776 37.0798 18.8818 37.4431 18.8818H37.9324C38.141 18.8818 38.3104 18.7125 38.3104 18.5039C38.3104 18.2953 38.141 18.126 37.9324 18.126H37.4431C36.6631 18.126 36.0287 18.7604 36.0287 19.5404V20.5976H35.493C35.2844 20.5976 35.1151 20.7669 35.1151 20.9756C35.1151 21.1842 35.2844 21.3535 35.493 21.3535ZM20.1985 38.699C20.2887 38.699 20.3783 38.6758 20.4585 38.6294L23.0309 37.1434C23.1917 37.0502 23.2909 36.8788 23.2909 36.6929C23.2909 36.508 23.1912 36.3351 23.0309 36.2429L20.4585 34.7569C20.2977 34.6642 20.0997 34.6642 19.9384 34.7569C19.7777 34.8501 19.6784 35.0215 19.6784 35.2074V38.1789C19.6784 38.3639 19.7782 38.5367 19.9384 38.6294C20.0175 38.6753 20.1072 38.699 20.1985 38.699ZM20.4343 35.6161L22.2997 36.6934L20.4343 37.7708V35.6161ZM38.3789 34.0676H35.0944C34.524 34.0676 34.0599 34.5317 34.0599 35.1026V38.3865C34.0599 38.957 34.524 39.4216 35.0944 39.4216H38.3789C38.9493 39.4216 39.4134 38.9575 39.4134 38.3865V35.1026C39.4134 34.5322 38.9493 34.0676 38.3789 34.0676ZM38.6575 38.386C38.6575 38.5397 38.5326 38.6647 38.3789 38.6652H35.0944C34.9402 38.6652 34.8158 38.5402 34.8158 38.386V35.1021C34.8158 34.9484 34.9407 34.8234 35.0944 34.8229H38.3789C38.5326 34.8229 38.6575 34.9479 38.6575 35.1021V38.386Z" fill="#F48632"/>
<path d="M36.736 35.6019C36.1061 35.6019 35.5936 36.1144 35.5936 36.7443C35.5936 37.3742 36.1061 37.8867 36.736 37.8867C37.3658 37.8867 37.8783 37.3742 37.8783 36.7443C37.8783 36.1144 37.3658 35.6019 36.736 35.6019ZM36.736 37.1308C36.5228 37.1308 36.3495 36.9575 36.3495 36.7443C36.3495 36.5312 36.5228 36.3578 36.736 36.3578C36.9491 36.3578 37.1224 36.5312 37.1224 36.7443C37.1224 36.9575 36.9491 37.1308 36.736 37.1308ZM31.6304 24.9741C31.4218 24.9741 31.2524 25.1434 31.2524 25.352V25.5213C30.7193 25.8357 30.1615 26.1053 29.584 26.3281C29.1214 26.5059 28.6472 26.6531 28.165 26.769C28.0889 26.71 27.9952 26.6778 27.8984 26.6778H26.168C25.7498 26.6778 25.4102 27.0179 25.4102 27.4356V29.4205C25.4102 29.8388 25.7503 30.1784 26.168 30.1784H26.5137L26.6447 32.6984C26.6558 32.9071 26.8332 33.0668 27.0418 33.0562C27.2504 33.0451 27.4102 32.8678 27.3996 32.6591L27.2706 30.1784H27.8984C27.9987 30.1784 28.0909 30.1441 28.165 30.0872C28.4719 30.1613 28.7752 30.2479 29.0751 30.3472C29.2731 30.4127 29.4873 30.3054 29.5528 30.1074C29.6183 29.9093 29.5109 29.6952 29.3129 29.6297C28.9914 29.5228 28.6649 29.4296 28.3353 29.3505V27.5057C28.8518 27.3817 29.3598 27.224 29.8551 27.0335C30.3338 26.8491 30.8004 26.6339 31.2519 26.39V30.4671C31.0862 30.3774 30.9184 30.2923 30.749 30.2107C30.5611 30.12 30.3353 30.1991 30.2451 30.387C30.1544 30.5755 30.2335 30.8012 30.422 30.8919C30.7047 31.0285 30.9818 31.1766 31.2524 31.3354V31.5042C31.2524 31.7128 31.4218 31.8821 31.6304 31.8821C31.839 31.8821 32.0083 31.7128 32.0083 31.5042V25.352C32.0083 25.1434 31.8395 24.9741 31.6309 24.9741H31.6304ZM27.58 29.4225L26.166 29.4205L26.168 27.4336H27.5795V29.4225H27.58Z" fill="#F48632"/>
</g>
<defs>
<filter id="filter0_d_449_619" x="0" y="0" width="57" height="57" filterUnits="userSpaceOnUse" color-interpolation-filters="sRGB">
<feFlood flood-opacity="0" result="BackgroundImageFix"/>
<feColorMatrix in="SourceAlpha" type="matrix" values="0 0 0 0 0 0 0 0 0 0 0 0 0 0 0 0 0 0 127 0" result="hardAlpha"/>
<feOffset/>
<feGaussianBlur stdDeviation="2"/>
<feComposite in2="hardAlpha" operator="out"/>
<feColorMatrix type="matrix" values="0 0 0 0 0 0 0 0 0 0 0 0 0 0 0 0 0 0 0.15 0"/>
<feBlend mode="normal" in2="BackgroundImageFix" result="effect1_dropShadow_449_619"/>
<feBlend mode="normal" in="SourceGraphic" in2="effect1_dropShadow_449_619" result="shape"/>
</filter>
<clipPath id="clip0_449_619">
<rect width="25.7929" height="25.8" fill="white" transform="translate(16 16)"/>
</clipPath>
</defs>
</svg>
