<svg width="57" height="57" viewBox="0 0 57 57" fill="none" xmlns="http://www.w3.org/2000/svg">
<g filter="url(#filter0_d_1061_1036)">
<circle cx="28.5" cy="28.5" r="24.5" fill="white"/>
</g>
<path d="M39.913 35.2799C39.0224 35.2799 38.2754 35.9035 38.084 36.7367H29.0307V36.2572C29.0307 35.7996 28.7041 35.401 28.254 35.3094C27.6678 35.1896 27.0985 34.9981 26.5592 34.739C24.8126 33.901 23.4969 32.433 22.8544 30.6053C22.2119 28.7777 22.3196 26.8093 23.1576 25.0626C24.1483 22.9979 26.0053 21.5508 28.2526 21.0925C28.7035 21.0004 29.0307 20.6016 29.0307 20.1441V19.5747H38.084C38.2754 20.4079 39.0224 21.0315 39.913 21.0315C40.948 21.0315 41.7899 20.1895 41.7899 19.1546C41.7899 18.1196 40.948 17.2776 39.913 17.2776C39.0224 17.2776 38.2754 17.9012 38.084 18.7344H29.0307V16.4562H33.0422C33.2336 17.2895 33.9807 17.913 34.8712 17.913C35.9062 17.913 36.7481 17.071 36.7481 16.036C36.7481 15.0011 35.9062 14.1591 34.8712 14.1591C33.9807 14.1591 33.2336 14.7827 33.0422 15.6159H29.0307V14.9677C29.0307 14.6881 28.9099 14.4222 28.6992 14.2382C28.5956 14.1476 28.4738 14.0803 28.342 14.0408C28.2103 14.0012 28.0715 13.9903 27.9352 14.0087C26.7385 14.1712 25.5666 14.4821 24.4466 14.9341C24.1163 15.0675 23.8531 15.3352 23.7247 15.6687C23.6607 15.8353 23.6316 16.0133 23.6391 16.1916C23.6465 16.37 23.6904 16.5449 23.768 16.7056L24.5242 18.2654C24.6282 18.4801 24.5503 18.7411 24.3465 18.8596C23.4177 19.3996 22.5744 20.0749 21.8444 20.8631C21.6857 21.0345 21.4152 21.0531 21.2287 20.9056L19.8707 19.8317C19.7309 19.7215 19.57 19.641 19.3979 19.5954C19.2258 19.5498 19.0461 19.5399 18.8701 19.5664C18.6932 19.5936 18.5237 19.6567 18.3721 19.7519C18.2206 19.8471 18.0901 19.9724 17.9889 20.12C17.1387 21.361 16.4862 22.7264 16.0547 24.1675C16.0035 24.339 15.988 24.5192 16.0092 24.6969C16.0303 24.8746 16.0876 25.0461 16.1776 25.2008C16.2677 25.3545 16.3882 25.488 16.5319 25.5933C16.6755 25.6985 16.8392 25.7732 17.0128 25.8127L18.7015 26.1945C18.9335 26.2469 19.0889 26.4691 19.0552 26.7002C18.9005 27.7634 18.9048 28.8437 19.068 29.9057C19.1037 30.1386 18.9496 30.3633 18.7172 30.4171L17.0288 30.8085C16.8555 30.8489 16.6923 30.9245 16.5493 31.0304C16.4062 31.1364 16.2864 31.2705 16.1972 31.4245C16.108 31.5797 16.0516 31.7514 16.0313 31.9293C16.011 32.1071 16.0274 32.2872 16.0794 32.4584C16.5179 33.8985 17.1781 35.2614 18.0363 36.4983C18.1384 36.6452 18.2696 36.7697 18.4217 36.864C18.5739 36.9583 18.7437 37.0204 18.9208 37.0465C19.097 37.0719 19.2766 37.061 19.4484 37.0143C19.6202 36.9676 19.7807 36.8862 19.9199 36.7751L21.2803 35.6858C21.4659 35.5373 21.7376 35.5553 21.8991 35.727C22.0545 35.8921 22.2589 36.0789 22.5068 36.2821C22.5929 36.3527 22.7036 36.3863 22.8145 36.3753C22.9254 36.3643 23.0274 36.3097 23.098 36.2236C23.1687 36.1374 23.2022 36.0267 23.1912 35.9158C23.1803 35.8049 23.1257 35.7029 23.0395 35.6323C22.8196 35.452 22.6418 35.2902 22.5112 35.1514C22.0517 34.6627 21.2803 34.6093 20.7551 35.0299L19.3947 36.1192C19.3457 36.1588 19.2891 36.1877 19.2283 36.2042C19.1676 36.2207 19.1041 36.2244 19.0419 36.2151C18.9786 36.2061 18.918 36.1841 18.8637 36.1504C18.8094 36.1167 18.7628 36.0721 18.7266 36.0194C17.9183 34.8542 17.2963 33.5701 16.8832 32.2134C16.8642 32.1524 16.8582 32.0882 16.8653 32.0247C16.8725 31.9612 16.8928 31.8999 16.9249 31.8447C16.9561 31.7901 16.9983 31.7425 17.0489 31.7051C17.0994 31.6677 17.1572 31.6411 17.2185 31.6272L18.9069 31.2358C19.5649 31.0833 20.0004 30.4431 19.8985 29.7784C19.7479 28.7987 19.744 27.8021 19.8867 26.8213C19.9831 26.1588 19.5439 25.5235 18.8867 25.3749L17.1981 24.9931C17.1366 24.9795 17.0787 24.9533 17.0279 24.9161C16.9771 24.8789 16.9346 24.8315 16.9031 24.7771C16.8707 24.722 16.8501 24.6609 16.8426 24.5975C16.8351 24.5341 16.8409 24.4698 16.8596 24.4087C17.2662 23.0508 17.881 21.7642 18.6821 20.5947C18.7179 20.5418 18.7643 20.497 18.8183 20.463C18.8724 20.429 18.9329 20.4066 18.996 20.3972C19.0582 20.3875 19.1217 20.3908 19.1826 20.4069C19.2434 20.4231 19.3002 20.4517 19.3494 20.4909L20.7073 21.5648C21.2358 21.9826 22.006 21.9253 22.4609 21.4341C23.1344 20.707 23.9123 20.0841 24.7691 19.5859C25.3504 19.2477 25.5749 18.5066 25.2803 17.8989L24.5241 16.3391C24.4962 16.2821 24.4805 16.2199 24.4778 16.1565C24.4752 16.0931 24.4858 16.0299 24.5089 15.9708C24.5546 15.8519 24.6443 15.7605 24.7613 15.7132C25.8166 15.2873 26.9208 14.9945 28.0484 14.8414C28.066 14.8388 28.0838 14.8402 28.1008 14.8453C28.1178 14.8504 28.1334 14.8593 28.1466 14.8711C28.163 14.8854 28.1905 14.917 28.1905 14.9676V20.1441C28.1905 20.205 28.147 20.2564 28.0846 20.2691C25.5774 20.7804 23.5055 22.3951 22.4 24.6991C21.4649 26.6481 21.3447 28.8446 22.0617 30.884C22.7786 32.9234 24.2468 34.5615 26.1958 35.4966C26.7974 35.7855 27.4324 35.9992 28.0863 36.1327C28.1476 36.1452 28.1904 36.1964 28.1904 36.2572V41.5858C28.1904 41.6363 28.163 41.6679 28.1466 41.6823C28.1336 41.6941 28.118 41.7029 28.1012 41.7081C28.0843 41.7132 28.0665 41.7146 28.049 41.7121C26.9509 41.5657 25.8687 41.2809 24.8322 40.8656C24.7744 40.8426 24.722 40.8079 24.6783 40.7636C24.6346 40.7194 24.6006 40.6665 24.5783 40.6085C24.5551 40.5496 24.5443 40.4865 24.5466 40.4233C24.549 40.36 24.5644 40.298 24.5919 40.241L24.5944 40.2358L25.4462 38.3906C25.6677 37.9108 25.4984 37.3349 25.0522 37.051C24.7775 36.8764 24.5055 36.6975 24.2365 36.5142C24.1909 36.4831 24.1396 36.4613 24.0856 36.45C24.0316 36.4387 23.9759 36.4382 23.9217 36.4484C23.8675 36.4587 23.8158 36.4795 23.7696 36.5097C23.7235 36.54 23.6837 36.579 23.6526 36.6246C23.6216 36.6702 23.5998 36.7215 23.5885 36.7755C23.5772 36.8295 23.5767 36.8852 23.5869 36.9394C23.5972 36.9936 23.618 37.0453 23.6482 37.0914C23.6785 37.1376 23.7175 37.1774 23.7631 37.2084C24.0395 37.3967 24.3189 37.5806 24.6012 37.76C24.6461 37.7887 24.6792 37.8327 24.6943 37.8839C24.7093 37.935 24.7055 37.9899 24.6833 38.0384L23.8326 39.8811C23.7566 40.0417 23.7141 40.216 23.7077 40.3935C23.7013 40.5711 23.7312 40.748 23.7954 40.9137C23.9251 41.2464 24.1891 41.5131 24.5197 41.6456C25.6209 42.0869 26.771 42.3895 27.9381 42.5451C28.0742 42.5631 28.2126 42.5519 28.344 42.5121C28.4755 42.4724 28.5969 42.405 28.7002 42.3145C28.804 42.2236 28.8872 42.1116 28.9443 41.9859C29.0013 41.8603 29.0308 41.7238 29.0308 41.5858V40.6956H33.0423C33.2336 41.5288 33.9807 42.1524 34.8713 42.1524C35.9062 42.1524 36.7482 41.3104 36.7482 40.2754C36.7482 39.2405 35.9062 38.3985 34.8713 38.3985C33.9807 38.3985 33.2336 39.022 33.0423 39.8553H29.0308V37.5771H38.0841C38.2754 38.4104 39.0225 39.0339 39.9131 39.0339C40.948 39.0339 41.79 38.1919 41.79 37.1569C41.79 36.1219 40.9479 35.2799 39.913 35.2799ZM39.913 18.1179C40.4846 18.1179 40.9496 18.5829 40.9496 19.1545C40.9496 19.7261 40.4846 20.1912 39.913 20.1912C39.3414 20.1912 38.8763 19.7261 38.8763 19.1545C38.8763 18.5829 39.3414 18.1179 39.913 18.1179ZM34.8712 14.9994C35.4428 14.9994 35.9079 15.4644 35.9079 16.036C35.9079 16.6077 35.4428 17.0727 34.8712 17.0727C34.2996 17.0727 33.8345 16.6077 33.8345 16.036C33.8345 15.4644 34.2996 14.9994 34.8712 14.9994ZM34.8712 39.2387C35.4428 39.2387 35.9079 39.7037 35.9079 40.2753C35.9079 40.8469 35.4428 41.312 34.8712 41.312C34.2996 41.312 33.8345 40.8469 33.8345 40.2753C33.8345 39.7037 34.2996 39.2387 34.8712 39.2387ZM39.913 38.1936C39.3414 38.1936 38.8763 37.7285 38.8763 37.1569C38.8763 36.5853 39.3414 36.1203 39.913 36.1203C40.4846 36.1203 40.9496 36.5853 40.9496 37.1569C40.9496 37.7285 40.4846 38.1936 39.913 38.1936Z" fill="#F48632"/>
<path d="M29.3771 26.8346C29.6092 26.8346 29.7973 26.6465 29.7973 26.4144C29.7973 26.1824 29.6092 25.9943 29.3771 25.9943H27.8557C27.7443 25.9943 27.6374 26.0386 27.5586 26.1174C27.4798 26.1962 27.4355 26.303 27.4355 26.4144V30.0252C27.4355 30.1366 27.4798 30.2435 27.5586 30.3223C27.6374 30.4011 27.7443 30.4454 27.8557 30.4454H29.3771C29.6092 30.4454 29.7973 30.2572 29.7973 30.0252C29.7973 29.7932 29.6092 29.6051 29.3771 29.6051H28.2758V28.64H29.2649C29.497 28.64 29.6851 28.4518 29.6851 28.2198C29.6851 27.9878 29.497 27.7997 29.2649 27.7997H28.2758V26.8345H29.3771V26.8346ZM34.06 27.3449C34.06 26.591 33.4226 25.9777 32.6392 25.9777H31.6696C31.5582 25.9777 31.4513 26.0219 31.3726 26.1007C31.2938 26.1795 31.2495 26.2864 31.2495 26.3978V30.0419C31.2495 30.2739 31.4376 30.462 31.6696 30.462C31.9017 30.462 32.0898 30.2739 32.0898 30.0419V28.9166L33.3244 30.3194C33.3638 30.3643 33.4124 30.4002 33.4668 30.4248C33.5212 30.4494 33.5803 30.4621 33.64 30.462C33.7208 30.462 33.7999 30.4386 33.8677 30.3948C33.9356 30.351 33.9894 30.2885 34.0227 30.2148C34.056 30.1412 34.0673 30.0595 34.0553 29.9796C34.0433 29.8997 34.0086 29.8249 33.9552 29.7643L32.9916 28.6694C33.6051 28.5182 34.06 27.9818 34.06 27.3449ZM32.6391 27.8718C32.5128 27.8718 32.293 27.8728 32.0953 27.8737C32.0942 27.6803 32.0933 27.467 32.0933 27.3449C32.0933 27.2414 32.0928 27.0206 32.0922 26.818H32.6392C32.9538 26.818 33.2197 27.0593 33.2197 27.3449C33.2197 27.6305 32.9538 27.8718 32.6391 27.8718ZM35.6264 30.0419C35.6264 30.2739 35.8145 30.4621 36.0466 30.4621C36.2787 30.4621 36.4667 30.2739 36.4667 30.0419V28.8769C36.6798 28.8758 36.9236 28.8747 37.0612 28.8747C37.871 28.8747 38.5298 28.225 38.5298 27.4262C38.5298 26.6275 37.871 25.9777 37.0612 25.9777H36.0466C35.9913 25.9777 35.9366 25.9886 35.8855 26.0098C35.8344 26.031 35.7881 26.0621 35.749 26.1013C35.71 26.1404 35.6791 26.1869 35.6581 26.238C35.637 26.2891 35.6263 26.3439 35.6264 26.3992V30.0419ZM37.0612 26.818C37.4018 26.818 37.6895 27.0965 37.6895 27.4262C37.6895 27.7559 37.4018 28.0344 37.0612 28.0344C36.9247 28.0344 36.6837 28.0355 36.4715 28.0366C36.4703 27.8175 36.4686 27.0473 36.468 26.8181H37.0612V26.818Z" fill="#F48632"/>
<path d="M32.1078 23.7167H29.0046C26.4906 23.7167 24.4453 25.7619 24.4453 28.2759C24.4453 30.7898 26.4906 32.8351 29.0046 32.8351H36.6223C39.1362 32.8351 41.1815 30.7899 41.1815 28.2759C41.1815 25.7619 39.1362 23.7167 36.6223 23.7167H33.7884C33.5563 23.7167 33.3682 23.9048 33.3682 24.1368C33.3682 24.3689 33.5563 24.557 33.7884 24.557H36.6223C38.6729 24.557 40.3412 26.2252 40.3412 28.2759C40.3412 30.3265 38.6729 31.9948 36.6223 31.9948H29.0046C26.9539 31.9948 25.2856 30.3265 25.2856 28.2759C25.2856 26.2252 26.9539 24.557 29.0046 24.557H32.1078C32.2193 24.557 32.3261 24.5127 32.4049 24.4339C32.4837 24.3551 32.528 24.2483 32.528 24.1368C32.528 24.0254 32.4837 23.9185 32.4049 23.8397C32.3261 23.7609 32.2193 23.7167 32.1078 23.7167Z" fill="#F48632"/>
<defs>
<filter id="filter0_d_1061_1036" x="0" y="0" width="57" height="57" filterUnits="userSpaceOnUse" color-interpolation-filters="sRGB">
<feFlood flood-opacity="0" result="BackgroundImageFix"/>
<feColorMatrix in="SourceAlpha" type="matrix" values="0 0 0 0 0 0 0 0 0 0 0 0 0 0 0 0 0 0 127 0" result="hardAlpha"/>
<feOffset/>
<feGaussianBlur stdDeviation="2"/>
<feComposite in2="hardAlpha" operator="out"/>
<feColorMatrix type="matrix" values="0 0 0 0 0 0 0 0 0 0 0 0 0 0 0 0 0 0 0.15 0"/>
<feBlend mode="normal" in2="BackgroundImageFix" result="effect1_dropShadow_1061_1036"/>
<feBlend mode="normal" in="SourceGraphic" in2="effect1_dropShadow_1061_1036" result="shape"/>
</filter>
</defs>
</svg>
