<svg width="58" height="57" viewBox="0 0 58 57" fill="none" xmlns="http://www.w3.org/2000/svg">
<g filter="url(#filter0_d_449_642)">
<ellipse cx="29.0093" cy="28.5" rx="24.23" ry="24.5" fill="white"/>
</g>
<g clip-path="url(#clip0_449_642)">
<path d="M41.3924 31.5678L40.3291 31.3169C40.2728 31.0418 40.2011 30.7705 40.1139 30.504L40.9057 29.7529C41.0385 29.6272 41.0773 29.43 41.0024 29.2618C40.7691 28.7417 40.4854 28.2464 40.1554 27.7827C40.0491 27.6333 39.8605 27.5689 39.6867 27.6226L38.6564 27.939C38.4704 27.7284 38.2728 27.528 38.0639 27.3405L38.3775 26.2993C38.4301 26.1236 38.3668 25.9328 38.2191 25.8254C37.9906 25.6588 37.7536 25.5035 37.5103 25.3606V17.7543C37.5103 16.5691 36.557 15.6052 35.3848 15.6052H18.3813C17.2091 15.6052 16.2559 16.5691 16.2559 17.7543V28.9298C16.2559 30.115 17.2091 31.0789 18.3813 31.0789H22.8755L21.4844 34.9473H19.2315C18.9966 34.9473 18.8064 35.1397 18.8064 35.3772C18.8064 36.5624 19.7596 37.5263 20.9318 37.5263H26.1795C26.2417 37.6214 26.2975 37.7208 26.3634 37.8132C26.4697 37.9626 26.6583 38.027 26.8321 37.9733L27.8624 37.6568C28.0483 37.8675 28.246 38.0679 28.4548 38.2554L28.1413 39.2966C28.0887 39.4723 28.152 39.663 28.2997 39.7705C28.7588 40.1052 29.2508 40.3937 29.763 40.6275C29.9288 40.7038 30.1244 40.664 30.2487 40.5297L30.991 39.7286C31.2535 39.8167 31.5229 39.8892 31.7955 39.9462L32.0436 41.0218C32.0851 41.2013 32.2349 41.334 32.4161 41.3517C32.7025 41.3807 32.9868 41.3952 33.2605 41.3952C33.5341 41.3952 33.8184 41.3807 34.1053 41.3523C34.2865 41.334 34.4364 41.2013 34.4778 41.0224L34.7259 39.9467C34.998 39.8903 35.2663 39.8172 35.5304 39.7291L36.2727 40.5302C36.3971 40.6645 36.5921 40.7038 36.7584 40.628C37.2728 40.3921 37.7627 40.1052 38.2207 39.771C38.3684 39.6636 38.4322 39.4728 38.379 39.2972L38.0655 38.2554C38.2744 38.0673 38.4726 37.8675 38.658 37.6568L39.6883 37.9738C39.8615 38.0276 40.0507 37.9631 40.157 37.8137C40.487 37.3506 40.7712 36.8547 41.004 36.3346C41.0789 36.167 41.0401 35.9692 40.9073 35.8435L40.1155 35.0924C40.2027 34.8259 40.2744 34.554 40.3307 34.279L41.394 34.028C41.5715 33.9861 41.7027 33.8352 41.7202 33.6519C41.7479 33.3629 41.7622 33.0754 41.7622 32.7982C41.7622 32.521 41.7479 32.2335 41.7192 31.9439C41.7016 31.7607 41.5704 31.6097 41.3929 31.5678H41.3924ZM18.3813 16.4649H35.3848C36.0878 16.4649 36.6601 17.0435 36.6601 17.7543V24.9416C36.5177 24.9125 36.371 24.9598 36.2711 25.0662L35.5288 25.8673C35.2653 25.7792 34.9964 25.7061 34.7243 25.6497L34.4762 24.5741C34.4348 24.3946 34.2849 24.2619 34.1037 24.2442C33.5421 24.1872 32.9756 24.1872 32.414 24.2442C32.2328 24.2624 32.083 24.3951 32.0415 24.5741L31.7934 25.6497C31.5208 25.7066 31.2524 25.7792 30.9889 25.8673L30.2466 25.0662C30.1222 24.9319 29.9272 24.8927 29.7609 24.9684C29.2466 25.2043 28.7566 25.4912 28.2986 25.8254C28.1509 25.9328 28.0871 26.1236 28.1403 26.2993L28.2859 26.7807H19.6566V21.6228H23.9074V20.7631H19.6566V18.1842H34.1096V23.3421H34.9597V17.7543C34.9597 17.5169 34.7695 17.3245 34.5347 17.3245H19.2315C18.9966 17.3245 18.8064 17.5169 18.8064 17.7543V26.7807H17.106V17.7543C17.106 17.0435 17.6783 16.4649 18.3813 16.4649ZM28.1583 27.6403C28.0595 27.7402 27.9548 27.8343 27.8618 27.9396L26.8878 27.6403H28.1578H28.1583ZM17.106 28.9298V27.6403H26.5467C26.4734 27.6693 26.4096 27.7188 26.3629 27.7832C26.0329 28.2464 25.7486 28.7423 25.5159 29.2624C25.441 29.43 25.4797 29.6277 25.6126 29.7534L26.1046 30.2198H18.3813C17.6783 30.2198 17.106 29.6411 17.106 28.9303V28.9298ZM23.7799 31.0789H26.2454C26.2263 31.1579 26.2061 31.2369 26.1896 31.3164L25.1264 31.5673C24.9489 31.6092 24.8177 31.7602 24.8001 31.9434C24.772 32.233 24.7576 32.5204 24.7576 32.7977C24.7576 33.0749 24.772 33.3618 24.8007 33.6519C24.8187 33.8352 24.95 33.9861 25.1269 34.028L26.1902 34.279C26.2359 34.5046 26.2996 34.726 26.3666 34.9463H22.3888L23.7799 31.0778V31.0789ZM20.9318 36.6666C20.3914 36.6661 19.91 36.3217 19.7294 35.807H25.6514L25.6126 35.8435C25.4797 35.9692 25.441 36.1664 25.5159 36.3346C25.5664 36.4474 25.6296 36.556 25.6848 36.6666H20.9318ZM40.8966 33.2635L39.8647 33.5074C39.6974 33.5472 39.5698 33.6847 39.5422 33.8561C39.4747 34.2682 39.3679 34.6733 39.2223 35.0645C39.1623 35.2273 39.2042 35.4105 39.3296 35.5292L40.0975 36.2567C39.9598 36.5339 39.8063 36.802 39.6373 37.0605L38.6378 36.7531C38.4736 36.7021 38.2951 36.7564 38.1862 36.8912C37.9221 37.2157 37.6277 37.5134 37.3068 37.7804C37.1739 37.8911 37.1203 38.0711 37.1702 38.2371L37.4741 39.2477C37.2186 39.4186 36.9529 39.5744 36.6792 39.7135L35.9598 38.9366C35.8423 38.8098 35.6611 38.7674 35.5001 38.8281C35.1154 38.9743 34.7132 39.0828 34.3046 39.1516C34.1351 39.18 33.999 39.3084 33.9597 39.4777L33.719 40.5211C33.4124 40.5404 33.1053 40.5404 32.7992 40.5211L32.5585 39.4777C32.5197 39.3084 32.3837 39.1795 32.2137 39.1516C31.8056 39.0833 31.4055 38.9748 31.0181 38.8281C30.8571 38.7669 30.6759 38.8098 30.5585 38.9366L29.839 39.7135C29.5648 39.5744 29.2992 39.4191 29.0436 39.2477L29.348 38.2376C29.3975 38.0716 29.3438 37.8916 29.2115 37.7809C28.8905 37.5139 28.5962 37.2163 28.3321 36.8918C28.2226 36.7574 28.0446 36.7032 27.8804 36.7537L26.8809 37.0605C26.7114 36.802 26.5579 36.5339 26.4203 36.2567L27.1886 35.5292C27.314 35.4105 27.3565 35.2273 27.2959 35.0645C27.1509 34.6728 27.0435 34.2682 26.9761 33.8556C26.9484 33.6842 26.8209 33.5461 26.6535 33.5069L25.6216 33.263C25.6014 32.9535 25.6009 32.6429 25.6206 32.3335L26.6525 32.0895C26.8198 32.0498 26.9474 31.9122 26.975 31.7408C27.0419 31.3293 27.1498 30.9226 27.2949 30.5325C27.3554 30.3697 27.3129 30.1865 27.1875 30.0672L26.4192 29.3397C26.5557 29.0636 26.7104 28.7949 26.8793 28.536L27.8788 28.8427C28.0436 28.8933 28.2221 28.8384 28.3305 28.7047C28.5946 28.3801 28.889 28.0825 29.2099 27.8155C29.3427 27.7048 29.3964 27.5248 29.3465 27.3588L29.0425 26.3482C29.2981 26.1773 29.5638 26.0215 29.8374 25.8823L30.5569 26.6592C30.6743 26.786 30.8555 26.8285 31.0165 26.7678C31.4012 26.6216 31.8035 26.5131 32.2121 26.4443C32.3816 26.4159 32.5176 26.2874 32.5569 26.1182L32.7976 25.0748C33.1042 25.0555 33.4114 25.0555 33.7174 25.0748L33.9581 26.1182C33.9969 26.2874 34.1329 26.4164 34.303 26.4443C34.7111 26.5126 35.1112 26.6211 35.4985 26.7678C35.658 26.829 35.8407 26.786 35.9582 26.6592L36.6776 25.8823C36.9507 26.0209 37.217 26.1768 37.4731 26.3482L37.1686 27.3582C37.1187 27.5248 37.1729 27.7048 37.3052 27.8149C37.6256 28.0814 37.9215 28.3807 38.1846 28.7041C38.2935 28.8384 38.472 28.8933 38.6362 28.8422L39.6357 28.5354C39.8052 28.7944 39.9598 29.063 40.0964 29.3392L39.3281 30.0667C39.2027 30.1854 39.1601 30.3686 39.2207 30.5314C39.3658 30.922 39.4731 31.3287 39.5406 31.7403C39.5682 31.9117 39.6958 32.0498 39.8631 32.089L40.895 32.3329C40.9152 32.6429 40.9158 32.9535 40.8961 33.2635H40.8966Z" fill="#F48632"/>
<path d="M36.2347 32.7982C36.2347 31.1391 34.8993 29.7894 33.259 29.7894C31.6187 29.7894 30.2834 31.1391 30.2834 32.7982C30.2834 34.4573 31.6187 35.807 33.259 35.807C34.8993 35.807 36.2347 34.4573 36.2347 32.7982ZM33.259 34.9473C32.0869 34.9473 31.1336 33.9834 31.1336 32.7982C31.1336 31.613 32.0869 30.6491 33.259 30.6491C34.4312 30.6491 35.3845 31.613 35.3845 32.7982C35.3845 33.9834 34.4312 34.9473 33.259 34.9473ZM29.8137 30.2805L29.1256 29.7765C28.9465 30.0258 28.7892 30.2934 28.6575 30.5706L29.4237 30.9424C29.5337 30.7103 29.6644 30.489 29.8137 30.2805ZM33.0555 28.5053L33.0157 27.6468C32.7107 27.6613 32.4062 27.7037 32.1097 27.7725L32.3005 28.6101C32.5486 28.5526 32.801 28.5177 33.0555 28.5059V28.5053ZM36.4265 28.7552L35.8978 29.4284C36.0965 29.588 36.283 29.7669 36.4514 29.9598L37.0891 29.3913C36.8872 29.1603 36.6656 28.947 36.427 28.7552H36.4265ZM29.1628 33.9507L28.3434 34.1796C28.4237 34.4751 28.5326 34.7663 28.666 35.0446L29.4316 34.6701C29.3206 34.4391 29.2308 34.1984 29.1628 33.9507ZM31.2346 29.0174L30.8286 28.2619C30.5619 28.4086 30.3063 28.5811 30.0682 28.7734L30.6006 29.444C30.7988 29.2833 31.0119 29.1399 31.2351 29.0174H31.2346ZM37.4419 33.566L38.2788 33.7186C38.3325 33.4177 38.3596 33.1082 38.3596 32.7982V32.7799L37.5094 32.7982C37.5094 33.0572 37.4865 33.3151 37.4419 33.566ZM33.4535 37.0922L33.4918 37.9507C33.7968 37.9368 34.1002 37.8954 34.3983 37.8272L34.2091 36.989C33.962 37.0459 33.7086 37.0803 33.4535 37.0922ZM36.6991 35.3234L37.3866 35.8295C37.5657 35.5808 37.7235 35.3138 37.8558 35.036L37.0901 34.6631C36.9791 34.8947 36.8484 35.1155 36.6991 35.324V35.3234ZM37.3526 31.6382L38.172 31.4083C38.0902 31.1106 37.9812 30.821 37.8468 30.5432L37.0827 30.9199C37.1943 31.1509 37.2852 31.3927 37.3521 31.6388L37.3526 31.6382ZM35.2755 36.5828L35.6789 37.3393C35.9477 37.1926 36.2028 37.0218 36.4408 36.8289L35.9105 36.1573C35.7118 36.3174 35.4982 36.4609 35.2755 36.5823V36.5828ZM31.2585 37.5445C31.539 37.666 31.8323 37.7611 32.1294 37.8293L32.3159 36.9906C32.0677 36.9342 31.8254 36.8547 31.5922 36.7537L31.2585 37.5445ZM30.0613 35.6308L29.4221 36.197C29.6229 36.4286 29.8456 36.643 30.0842 36.8348L30.6129 36.1621C30.4136 36.002 30.2292 35.8242 30.0613 35.6302V35.6308ZM35.249 28.0476C34.9674 27.9267 34.6756 27.8321 34.3776 27.765L34.1916 28.6037C34.4397 28.6595 34.682 28.7385 34.9158 28.839L35.249 28.0476ZM29.0735 32.039L28.2366 31.8881C28.184 32.1884 28.1574 32.493 28.1574 32.7982V32.8079L29.0076 32.7982C29.0076 32.5435 29.0299 32.2878 29.0735 32.039ZM31.4338 19.5994L30.8328 20.207L31.8074 21.1924H26.4571C25.2849 21.1924 24.3317 22.1563 24.3317 23.3415V25.9205H25.1818V23.3415C25.1818 22.6307 25.7541 22.0521 26.4571 22.0521H31.8074L30.8328 23.0374L31.4338 23.6451L33.1342 21.9258C33.3 21.7582 33.3005 21.4863 33.1342 21.3187L31.4338 19.5994ZM20.5059 19.0438H21.356V19.9035H20.5059V19.0438ZM22.2062 19.0438H23.0564V19.9035H22.2062V19.0438ZM23.9066 19.0438H24.7567V19.9035H23.9066V19.0438Z" fill="#F48632"/>
</g>
<defs>
<filter id="filter0_d_449_642" x="0.779297" y="0" width="56.4609" height="57" filterUnits="userSpaceOnUse" color-interpolation-filters="sRGB">
<feFlood flood-opacity="0" result="BackgroundImageFix"/>
<feColorMatrix in="SourceAlpha" type="matrix" values="0 0 0 0 0 0 0 0 0 0 0 0 0 0 0 0 0 0 127 0" result="hardAlpha"/>
<feOffset/>
<feGaussianBlur stdDeviation="2"/>
<feComposite in2="hardAlpha" operator="out"/>
<feColorMatrix type="matrix" values="0 0 0 0 0 0 0 0 0 0 0 0 0 0 0 0 0 0 0.15 0"/>
<feBlend mode="normal" in2="BackgroundImageFix" result="effect1_dropShadow_449_642"/>
<feBlend mode="normal" in="SourceGraphic" in2="effect1_dropShadow_449_642" result="shape"/>
</filter>
<clipPath id="clip0_449_642">
<rect width="25.5053" height="25.7895" fill="white" transform="translate(16.2559 15.6052)"/>
</clipPath>
</defs>
</svg>
