<svg width="57" height="57" viewBox="0 0 57 57" fill="none" xmlns="http://www.w3.org/2000/svg">
<g filter="url(#filter0_d_449_717)">
<circle cx="28.5" cy="28.5" r="24.5" fill="white"/>
</g>
<g clip-path="url(#clip0_449_717)">
<path d="M41.346 27.9592C41.3359 27.7607 41.1666 27.5974 40.9666 27.5974H36.5841L37.2951 25.9758C37.3349 25.8831 37.3374 25.7788 37.3012 25.6846L36.9373 24.7498C37.1404 24.6753 37.3364 24.5846 37.5244 24.4777L38.437 25.0421C38.6058 25.1363 38.7665 25.1137 38.9187 24.9746L39.801 24.0051C39.926 23.868 39.9341 23.6609 39.8197 23.5148L39.1641 22.6732C39.2442 22.4944 39.3107 22.3094 39.3631 22.1205L40.4098 21.8786C40.5897 21.8373 40.7136 21.6725 40.7045 21.4881L40.6385 20.1834C40.6295 19.999 40.4889 19.8478 40.306 19.8247L39.2402 19.6896C39.1691 19.5067 39.0845 19.3293 38.9867 19.1595L39.5541 18.256C39.6529 18.0988 39.6242 17.8937 39.4861 17.7702L38.5105 16.8944C38.374 16.772 38.1694 16.7639 38.0243 16.8758L37.1732 17.5294C36.9918 17.4492 36.8043 17.3827 36.6123 17.3308L36.3699 16.2938C36.3281 16.1144 36.1633 15.9894 35.9799 16L34.6657 16.0665C34.4818 16.0756 34.3306 16.2157 34.307 16.3981L34.1704 17.4543C33.985 17.5253 33.8051 17.61 33.6327 17.7083L32.7202 17.1439C32.5639 17.0476 32.3619 17.0759 32.2384 17.2114L31.3561 18.1809C31.2311 18.318 31.223 18.5251 31.3374 18.6712L31.993 19.5127C31.931 19.6518 31.8771 19.7949 31.8318 19.9406L30.0479 19.1585C29.8267 19.0854 29.6594 19.1504 29.546 19.3545L28.0318 22.8083V16.8919C28.0318 16.3996 27.2699 16.3996 27.2699 16.8919V18.5604C24.6597 18.6707 22.252 20.0499 20.8063 22.2731C20.5468 22.6722 21.1631 23.1217 21.4447 22.6884C22.7494 20.6813 24.9177 19.4326 27.2694 19.3228V35.4483H24.9207C24.6002 35.4483 24.3397 35.1862 24.3397 34.8637V33.5576C24.3397 33.4175 24.2626 33.2885 24.1396 33.222C21.7158 31.9169 20.2263 29.3923 20.252 26.6334C20.2586 25.9144 20.3704 25.2003 20.5851 24.514C20.7317 24.0439 20.0046 23.8166 19.8579 24.2868C19.6216 25.0441 19.4977 25.8327 19.4906 26.6264C19.4629 29.5919 21.023 32.3125 23.5783 33.7814V34.8632C23.5783 35.473 23.9849 35.989 24.5402 36.1542V37.9587C24.5402 39.1238 25.4881 40.0716 26.6531 40.0716H27.2694V41.4191C27.2694 41.9114 28.0313 41.9114 28.0313 41.4191V32.3029L31.9124 34.0046L31.8252 34.5019C31.6972 34.5453 31.5723 34.5967 31.4508 34.6561L30.767 34.1794C30.6158 34.0741 30.4102 34.0923 30.2797 34.2228L29.5274 34.9756C29.3969 35.1061 29.3787 35.3117 29.4846 35.4629L29.9618 36.1462C29.9028 36.2676 29.8514 36.3931 29.8081 36.5211L28.9938 36.6647C28.8114 36.697 28.6783 36.8557 28.6788 37.0411L28.6834 38.1094C28.6844 38.2928 28.8154 38.4495 28.9958 38.4828L29.8151 38.6325C29.86 38.7625 29.9129 38.8889 29.9734 39.0124L29.5027 39.6912C29.3979 39.8423 29.416 40.0474 29.5465 40.1774L30.3049 40.9353C30.4354 41.0653 30.64 41.084 30.7912 40.9786L31.4695 40.5075C31.5924 40.568 31.7194 40.6209 31.8494 40.6652L31.9996 41.4846C32.0328 41.665 32.1895 41.796 32.373 41.7965L33.4412 41.8H33.4422C33.6272 41.8 33.7854 41.667 33.8172 41.4851L33.9603 40.6703C34.0883 40.6269 34.2132 40.5755 34.3347 40.5161L35.0185 40.9928C35.1696 41.0986 35.3752 41.0799 35.5057 40.9494L36.2581 40.1966C36.3886 40.0661 36.4067 39.8605 36.3009 39.7093L35.8237 39.026C35.8827 38.9046 35.9341 38.7791 35.9774 38.6511L36.7917 38.5075C36.9741 38.4752 37.1072 38.3165 37.1067 38.1311L37.1021 37.0628C37.1011 36.8794 36.9701 36.7227 36.7897 36.6894L36.0197 36.5488C37.1097 36.5438 38.2168 36.5438 39.2931 36.5438C39.4191 36.5675 39.5355 36.5297 39.6423 36.4309L41.2432 34.7287C41.3097 34.6582 41.3465 34.5649 41.3465 34.4677V27.9784C41.3465 27.9718 41.3455 27.9658 41.345 27.9592H41.346ZM40.0852 28.3593L39.2175 29.282H33.7532L34.6209 28.3593H40.0852ZM35.7869 21.798C35.7496 21.7042 35.6771 21.6286 35.5849 21.5873L34.1392 20.9534C34.2082 20.259 34.7821 19.6987 35.5062 19.6619C36.3039 19.6231 36.9832 20.2313 37.023 21.0204C37.0558 21.6674 36.6446 22.249 36.0414 22.451L35.7869 21.7975V21.798ZM35.41 22.9287L35.8212 23.9849L36.2566 25.1021L34.7448 24.4344L35.41 22.9287ZM32.7393 19.2326L32.1351 18.4571L32.5886 17.9587L33.4312 18.4797C33.5571 18.5573 33.7164 18.5553 33.8403 18.4742C34.0852 18.3134 34.3518 18.188 34.6315 18.1008C34.7736 18.0565 34.8769 17.9335 34.896 17.7859L35.022 16.8118L35.7008 16.7775L35.924 17.734C35.9577 17.8791 36.0731 17.9909 36.2188 18.0207C36.506 18.0791 36.7837 18.1774 37.0437 18.3124C37.1752 18.3805 37.3339 18.3664 37.4513 18.2767L38.2374 17.673L38.7388 18.123L38.2163 18.9554C38.1366 19.0824 38.1387 19.2442 38.2213 19.3686C38.3825 19.611 38.5085 19.8751 38.5962 20.1527C38.6411 20.2948 38.764 20.3976 38.9116 20.4162L39.8943 20.5407L39.928 21.2084L38.963 21.4311C38.8179 21.4644 38.7061 21.5793 38.6758 21.7249C38.6169 22.0101 38.5176 22.2852 38.3815 22.5427C38.3115 22.6753 38.3261 22.8365 38.4178 22.9544L39.022 23.7299L38.5685 24.2283L37.726 23.7073C37.6 23.6297 37.4407 23.6317 37.3168 23.7123C37.1117 23.8468 36.891 23.9567 36.6602 24.0403L36.318 23.1615C37.221 22.8421 37.8333 21.9612 37.7839 20.9821C37.7229 19.7733 36.6839 18.84 35.468 18.9015C34.448 18.9529 33.6226 19.6886 33.4191 20.638L32.5337 20.2495C32.5932 20.0398 32.6743 19.8373 32.7756 19.6448C32.8456 19.5122 32.8315 19.351 32.7393 19.2331V19.2326ZM26.6531 39.3102C25.9078 39.3102 25.3016 38.704 25.3016 37.9587V36.2097H27.2694V39.3097H26.6531V39.3102ZM28.0313 24.706L30.0903 20.0101L34.9293 22.1315L33.8943 24.4747C33.8202 24.6959 33.8852 24.8632 34.0888 24.9771L36.4445 26.0177L35.7517 27.5974H34.4556C34.3508 27.5974 34.25 27.6408 34.178 27.7173L32.577 29.4195C32.4984 29.5032 32.4571 29.7254 32.4672 29.8453V33.3727H32.3674L28.0308 31.4709V24.7055L28.0313 24.706ZM36.3437 37.8136L35.6136 37.9426C35.4659 37.9688 35.3475 38.0787 35.3107 38.2238C35.2538 38.4475 35.1661 38.6617 35.0497 38.8607C34.9746 38.9892 34.9807 39.1495 35.0658 39.2714L35.4942 39.8847L35.1928 40.1865L34.5791 39.7587C34.4571 39.6735 34.2969 39.6675 34.1684 39.7426C33.9693 39.8595 33.7552 39.9471 33.5319 40.0041C33.3868 40.0409 33.277 40.1598 33.2513 40.3074L33.1233 41.0381L32.6924 41.0366L32.5574 40.2999C32.5307 40.1543 32.4223 40.0373 32.2792 40.0001C32.0545 39.9416 31.8388 39.8519 31.6388 39.7335C31.5108 39.6579 31.35 39.6635 31.2276 39.7486L30.6184 40.1714L30.31 39.8635L30.7322 39.2543C30.8169 39.1318 30.8229 38.9716 30.7469 38.8431C30.6284 38.643 30.5387 38.4279 30.4798 38.2031C30.4425 38.06 30.3251 37.9517 30.18 37.925L29.4432 37.7904L29.4412 37.3596L30.1714 37.2306C30.319 37.2044 30.4375 37.0945 30.4742 36.9494C30.5312 36.7257 30.6189 36.5115 30.7353 36.3125C30.8103 36.184 30.8043 36.0237 30.7191 35.9018L30.2908 35.2885L30.5922 34.9867L31.2059 35.4145C31.3279 35.4997 31.4881 35.5057 31.6166 35.4306C31.8156 35.3137 32.0298 35.2261 32.253 35.1691C32.3982 35.1323 32.508 35.0134 32.5337 34.8658L32.6617 34.1351L33.0925 34.1366L33.2276 34.8733C33.2543 35.0189 33.3626 35.1359 33.5057 35.1731C33.7305 35.2316 33.9462 35.3213 34.1462 35.4397C34.2742 35.5153 34.4349 35.5098 34.5574 35.4246L35.1666 35.0018L35.475 35.3097L35.0527 35.9189C34.9681 36.0414 34.962 36.2016 35.0381 36.3301C35.1565 36.5302 35.2462 36.7453 35.3052 36.9701C35.3425 37.1132 35.4599 37.2215 35.605 37.2482L36.3417 37.3828L36.3437 37.8136ZM39.7471 35.2084C39.7471 34.8335 39.7461 33.9068 39.7461 33.9068C39.7461 33.4145 38.9842 33.4145 38.9842 33.9068V35.7829C38.0228 35.7829 37.0406 35.7839 36.0711 35.7879L36.2828 35.482C36.3876 35.3309 36.3694 35.1258 36.2389 34.9958L35.4806 34.2379C35.35 34.1079 35.1455 34.0892 34.9943 34.1946L34.316 34.6657C34.1931 34.6052 34.0661 34.5523 33.9361 34.508L33.7859 33.6886C33.738 33.4271 33.4619 33.3425 33.2346 33.3757C33.2286 32.9529 33.2744 30.7408 33.2346 30.062H38.9842V31.9184C38.9842 32.4107 39.7461 32.4107 39.7461 31.9184C39.7461 31.9184 39.7471 30.4863 39.7471 29.8307L40.5851 28.9398V34.3175L39.7471 35.2084Z" fill="#F48632"/>
<path d="M32.8923 35.8559H32.8868C32.4272 35.8559 31.9954 36.0343 31.6714 36.3588C31.3458 36.6849 31.1675 37.1182 31.1695 37.5803C31.1715 38.0414 31.3524 38.4747 31.6794 38.8013C32.0065 39.1278 32.4403 39.3087 32.9009 39.3102H32.9064C33.366 39.3102 33.7978 39.1318 34.1219 38.8073C34.4474 38.4813 34.6258 38.0479 34.6237 37.5858C34.6217 37.1253 34.4408 36.6914 34.1138 36.3649C33.7868 36.0384 33.3529 35.8575 32.8923 35.8559ZM33.5832 38.2691C33.4023 38.45 33.1604 38.5518 32.9034 38.5488C32.6449 38.5478 32.4015 38.4465 32.2176 38.2631C32.0337 38.0797 31.9319 37.8363 31.9309 37.5778C31.9299 37.3203 32.0291 37.0789 32.21 36.8975C32.3899 36.7166 32.6348 36.6158 32.8898 36.6178C33.1483 36.6189 33.3917 36.7201 33.5756 36.9036C33.7595 37.087 33.8613 37.3304 33.8623 37.5889C33.8634 37.8464 33.7641 38.0877 33.5832 38.2691ZM20.9382 20.384C21.2581 20.384 21.4335 19.9597 21.2077 19.734L19.9092 18.4349C19.561 18.0867 19.0223 18.6254 19.3705 18.9736L20.6691 20.2726C20.7406 20.3442 20.8374 20.3845 20.9387 20.384H20.9382ZM18.2055 26.3845H16.3692C15.8769 26.3845 15.8769 27.1464 16.3692 27.1464H18.206C18.6983 27.1464 18.6983 26.3845 18.206 26.3845H18.2055ZM20.785 33.2104L19.4864 34.5095C19.1382 34.8577 19.6769 35.3964 20.0251 35.0482L21.3236 33.7491C21.6718 33.4009 21.1332 32.8622 20.785 33.2104Z" fill="#F48632"/>
</g>
<defs>
<filter id="filter0_d_449_717" x="0" y="0" width="57" height="57" filterUnits="userSpaceOnUse" color-interpolation-filters="sRGB">
<feFlood flood-opacity="0" result="BackgroundImageFix"/>
<feColorMatrix in="SourceAlpha" type="matrix" values="0 0 0 0 0 0 0 0 0 0 0 0 0 0 0 0 0 0 127 0" result="hardAlpha"/>
<feOffset/>
<feGaussianBlur stdDeviation="2"/>
<feComposite in2="hardAlpha" operator="out"/>
<feColorMatrix type="matrix" values="0 0 0 0 0 0 0 0 0 0 0 0 0 0 0 0 0 0 0.15 0"/>
<feBlend mode="normal" in2="BackgroundImageFix" result="effect1_dropShadow_449_717"/>
<feBlend mode="normal" in="SourceGraphic" in2="effect1_dropShadow_449_717" result="shape"/>
</filter>
<clipPath id="clip0_449_717">
<rect width="25.348" height="25.8" fill="white" transform="translate(16 16)"/>
</clipPath>
</defs>
</svg>
